SplineFontDB: 3.2
FontName: AmiriLatin-Regular
FullName: Amiri Latin
FamilyName: Amiri Latin
Weight: Regular
Copyright: Copyright (c) 2010, Sebastian Kosch (sebastian@aldusleaf.org).\nCopyright (c) 2012-2014 Khaled Hosny (khaledhosny@eglug.org).\n\nThis Font Software is licensed under the Open Font License, Version 1.1.
Version: 0.8
ItalicAngle: 0
UnderlinePosition: -112
UnderlineWidth: 47
Ascent: 800
Descent: 200
InvalidEm: 0
LayerCount: 2
Layer: 0 0 "Back" 1
Layer: 1 0 "Fore" 0
FSType: 0
OS2Version: 0
OS2_WeightWidthSlopeOnly: 0
OS2_UseTypoMetrics: 1
CreationTime: 1270926789
ModificationTime: 1589745668
PfmFamily: 17
TTFWeight: 400
TTFWidth: 5
LineGap: 90
VLineGap: 0
OS2TypoAscent: 700
OS2TypoAOffset: 0
OS2TypoDescent: -300
OS2TypoDOffset: 0
OS2TypoLinegap: 90
OS2WinAscent: 0
OS2WinAOffset: 1
OS2WinDescent: 0
OS2WinDOffset: 1
HheadAscent: 700
HheadAOffset: 0
HheadDescent: -300
HheadDOffset: 0
OS2SubXSize: 650
OS2SubYSize: 699
OS2SubXOff: 0
OS2SubYOff: 140
OS2SupXSize: 650
OS2SupYSize: 699
OS2SupXOff: 0
OS2SupYOff: 479
OS2StrikeYSize: 49
OS2StrikeYPos: 258
OS2FamilyClass: 258
OS2Vendor: 'PfEd'
Lookup: 1 0 0 "'ccmp' Turkish i" { "'ccmp' Turkish i-1"  } ['ccmp' ('latn' <'TRK ' > ) ]
Lookup: 1 0 0 "'c2sc' Capitals to Small Capitals in Latin lookup 0" { "'c2sc' Capitals to Small Capitals in Latin lookup 0 subtable"  } ['c2sc' ('DFLT' <'dflt' > 'latn' <'TRK ' 'dflt' > ) ]
Lookup: 1 0 0 "'smcp' Lowercase to Small Capitals lookup 2" { "'smcp' Lowercase to Small Capitals lookup 2-1" ("sc") } ['smcp' ('DFLT' <'dflt' > 'latn' <'TRK ' 'dflt' > ) ]
Lookup: 4 0 1 "'liga' Standard Ligatures lookup 0" { "'liga' Standard Ligatures lookup 0-1"  } ['liga' ('DFLT' <'dflt' > 'latn' <'TRK ' 'dflt' > ) ]
Lookup: 1 0 0 "'pnum' Proportional Numbers lookup 12" { "'pnum' Proportional Numbers lookup 12-1" ("prop") } ['pnum' ('DFLT' <'dflt' > 'latn' <'TRK ' 'dflt' > ) ]

StartChar: exclam
Encoding: 33 33 1
Width: 235
Flags: W
HStem: -11 107<75 160> 607 20G<106 137>
VStem: 63 107<1 85> 73 92<319 617>
LayerCount: 2
Fore
SplineSet
63 44 m 0xe0
 63 73 89 97 118 97 c 0
 147 97 171 73 171 44 c 0
 171 15 147 -11 118 -11 c 0
 89 -11 63 15 63 44 c 0xe0
122 627 m 0
 152 627 165 595 165 570 c 0
 165 543 152 412 131 168 c 1
 127 160 124 156 115 155 c 1
 110 157 106 160 103 166 c 1
 89 323 73 520 73 570 c 0xd0
 73 597 91 627 122 627 c 0
EndSplineSet
Substitution2: "'smcp' Lowercase to Small Capitals lookup 2-1" exclam.sc
EndChar

StartChar: quotedbl
Encoding: 34 34 2
Width: 273
Flags: W
HStem: 462 221<72 100 190 218>
VStem: 38 76<511 669> 155 76<511 669>
LayerCount: 2
Fore
SplineSet
206 683 m 0
 218 683 223 680 231 670 c 1
 231 642 224 531 218 480 c 1
 215 474 206 466 198 462 c 1
 195 462 191 464 189 468 c 1
 168 538 155 587 155 614 c 0
 155 641 175 683 206 683 c 0
89 683 m 0
 101 683 106 680 114 670 c 1
 114 642 107 531 101 480 c 1
 98 474 89 466 81 462 c 1
 78 462 74 464 72 468 c 1
 51 538 38 587 38 614 c 0
 38 641 58 683 89 683 c 0
EndSplineSet
EndChar

StartChar: numbersign
Encoding: 35 35 3
Width: 468
UnlinkRmOvrlpSave: 1
Flags: W
HStem: 174 48<58 383> 360 48<84 410>
LayerCount: 2
Fore
SplineSet
404 360 m 1
 249 360 249 360 83 360 c 1
 71 360 78 404 91 408 c 9
 410 408 l 17
 424 408 417 366 404 360 c 1
377 174 m 1
 222 174 221 174 55 174 c 1
 43 174 52 218 65 222 c 9
 383 222 l 17
 397 222 390 180 377 174 c 1
365 516 m 1
 295 75 l 2
 294 71 286 62 271 62 c 0
 261 62 260 66 260 66 c 1
 331 506 l 1
 334 515 333 519 352 519 c 0
 361 519 362 518 365 516 c 1
208 516 m 1
 136 75 l 2
 135 71 129 62 114 62 c 0
 104 62 103 66 103 66 c 1
 173 506 l 1
 176 515 176 519 195 519 c 0
 204 519 205 518 208 516 c 1
EndSplineSet
EndChar

StartChar: dollar
Encoding: 36 36 4
Width: 486
Flags: W
HStem: -10 33<215 303> 592 32<186 272>
VStem: 50 35<114 168> 67 75<426 538> 278 34<623 665> 355 82<83 202> 373 31<461 511>
LayerCount: 2
Fore
SplineSet
285 667 m 1xd8
 293 667 319 667 319 660 c 1
 312 618 l 1
 335 613 358 606 393 598 c 1
 405 548 403 490 404 465 c 1
 399 462 394 461 387 461 c 0
 383 461 376 463 373 466 c 1xda
 369 499 345 547 305 573 c 1
 268 347 l 1
 270 346 272 344 274 343 c 0
 336 304 438 255 438 162 c 0
 438 58 342 -10 241 -10 c 0
 230 -10 220 -9 209 -8 c 1
 202 -51 l 1
 193 -51 168 -49 168 -42 c 1
 174 -4 l 1
 136 2 101 12 72 18 c 1
 60 74 50 150 50 161 c 1
 54 165 67 169 74 169 c 0
 79 169 83 168 85 164 c 1xec
 90 141 109 64 181 35 c 1
 221 277 l 1
 151 318 67 368 67 459 c 0
 67 559 157 624 251 624 c 0
 261 624 270 624 278 623 c 1
 285 667 l 1xd8
253 259 m 1
 215 26 l 1
 224 25 233 23 243 23 c 0
 302 23 355 64 355 137 c 0xcc
 355 206 308 229 253 259 c 1
236 367 m 1
 272 588 l 1
 263 590 254 592 245 592 c 0
 163 592 143 533 143 488 c 0xd8
 143 428 187 397 236 367 c 1
EndSplineSet
EndChar

StartChar: percent
Encoding: 37 37 5
Width: 651
Flags: W
HStem: -7 24<441 509> 282 23<428 496> 317 24<159 226> 606 23<146 213>
VStem: 39 62<398 558> 265 64<390 557> 320 62<74 232> 546 64<65 233>
LayerCount: 2
Fore
SplineSet
182 606 m 0xfd
 124 606 102 542 102 484 c 0
 102 417 142 342 191 342 c 0
 248 342 265 408 265 465 c 0
 265 530 234 606 182 606 c 0xfd
186 630 m 0
 271 630 329 558 329 473 c 0
 329 395 275 317 186 317 c 0
 105 317 39 387 39 473 c 0
 39 560 99 630 186 630 c 0
464 282 m 0
 406 282 383 218 383 160 c 0xfb
 383 93 425 18 474 18 c 0
 531 18 546 84 546 141 c 0
 546 206 516 282 464 282 c 0
468 306 m 0
 553 306 610 233 610 148 c 0
 610 70 557 -7 467 -7 c 0
 386 -7 320 62 320 148 c 0
 320 235 381 306 468 306 c 0
584 609 m 1
 112 0 l 2
 108 -5 92 -12 80 -12 c 0
 66 -12 63 -3 62 -1 c 1
 533 609 l 2
 538 615 547 621 553 621 c 0
 581 621 575 618 584 609 c 1
EndSplineSet
EndChar

StartChar: ampersand
Encoding: 38 38 6
Width: 666
Flags: W
HStem: -3 42<195 334 502 593> 282 22<453 495 583 640> 605 35<256 347>
VStem: 52 84<92 231> 157 71<435 579> 376 66<454 581>
LayerCount: 2
Fore
SplineSet
396 93 m 1
 333 157 236 307 236 307 c 1
 183 271 136 238 136 168 c 0
 136 76 203 39 274 39 c 0
 313 39 365 60 396 93 c 1
306 605 m 0
 264 605 229 575 229 530 c 0
 229 482 248 433 279 376 c 1
 340 411 376 443 376 518 c 0
 376 562 350 605 306 605 c 0
301 641 m 0
 387 641 442 601 442 531 c 0
 442 443 371 391 297 345 c 1
 338 276 392 205 441 150 c 1
 477 205 497 255 497 265 c 0
 497 285 460 280 453 282 c 1
 450 288 450 301 454 305 c 1
 531 305 l 2
 565 305 594 308 639 310 c 1
 642 308 641 282 638 282 c 1
 621 282 581 273 570 266 c 0
 565 263 529 189 469 120 c 1
 513 74 541 44 564 44 c 0
 585 44 610 76 615 89 c 1
 626 89 638 78 638 71 c 1
 634 62 606 0 531 0 c 0
 473 0 419 70 419 70 c 1
 372 29 305 -3 241 -3 c 0
 127 -3 52 55 52 154 c 0
 52 248 132 300 214 342 c 1
 187 389 157 440 157 507 c 0
 157 581 219 641 301 641 c 0
EndSplineSet
Substitution2: "'smcp' Lowercase to Small Capitals lookup 2-1" ampersand.sc
EndChar

StartChar: quotesingle
Encoding: 39 39 7
Width: 156
Flags: W
HStem: 462 221<72 100>
VStem: 38 76<511 669>
LayerCount: 2
Fore
SplineSet
89 683 m 0
 101 683 106 680 114 670 c 1
 114 642 107 531 101 480 c 1
 98 474 89 466 81 462 c 1
 78 462 74 464 72 468 c 1
 51 538 38 587 38 614 c 0
 38 641 58 683 89 683 c 0
EndSplineSet
Substitution2: "'smcp' Lowercase to Small Capitals lookup 2-1" quotesingle.sc
EndChar

StartChar: parenleft
Encoding: 40 40 8
Width: 255
Flags: W
VStem: 36 71<120 437>
LayerCount: 2
Fore
SplineSet
107 278 m 0
 107 125 158 -46 250 -127 c 1
 251 -127 238 -142 231 -146 c 1
 117 -56 36 89 36 278 c 0
 36 468 117 612 231 702 c 1
 238 698 251 683 250 683 c 1
 158 602 107 432 107 278 c 0
EndSplineSet
Substitution2: "'smcp' Lowercase to Small Capitals lookup 2-1" parenleft.sc
EndChar

StartChar: parenright
Encoding: 41 41 9
Width: 255
Flags: W
VStem: 148 71<120 437>
LayerCount: 2
Fore
SplineSet
220 278 m 0
 220 89 138 -56 24 -146 c 1
 17 -142 5 -127 6 -127 c 1
 98 -46 148 125 148 278 c 0
 148 432 98 602 6 683 c 1
 5 683 17 698 24 702 c 1
 138 612 220 468 220 278 c 0
EndSplineSet
Substitution2: "'smcp' Lowercase to Small Capitals lookup 2-1" parenright.sc
EndChar

StartChar: asterisk
Encoding: 42 42 10
Width: 432
Flags: W
HStem: 381 60<302 384> 424 63<37 145>
VStem: 127 56<560 645> 204 24<411 440>
LayerCount: 2
Fore
SplineSet
295 599 m 0x70
 312 618 334 625 349 610 c 0
 365 594 362 573 343 556 c 0
 309 525 276 519 249 493 c 1
 249 493 243 484 244 479 c 0
 245 474 248 472 253 470 c 0
 287 454 315 460 358 440 c 0
 380 430 395 412 386 393 c 0
 376 373 354 369 333 381 c 0xb0
 292 403 277 433 244 451 c 1
 244 451 235 456 230 454 c 0
 224 451 225 446 224 441 c 0
 220 404 233 380 228 333 c 0
 225 309 212 289 191 292 c 0
 170 295 159 315 164 339 c 0
 173 385 197 409 204 446 c 1
 204 446 205 455 201 459 c 0
 198 463 193 463 188 462 c 0
 152 454 133 434 86 424 c 0
 63 419 38 425 35 446 c 0
 31 467 48 484 72 487 c 0
 119 493 147 477 185 482 c 1
 185 482 194 485 196 490 c 0
 198 495 197 499 194 504 c 0
 175 536 150 549 127 590 c 0
 115 611 114 635 132 645 c 0
 152 655 171 644 182 622 c 0
 202 579 195 547 212 513 c 1
 212 513 217 503 222 502 c 0
 227 501 231 504 235 508 c 0
 260 535 264 564 295 599 c 0x70
EndSplineSet
EndChar

StartChar: plus
Encoding: 43 43 11
Width: 529
Flags: W
HStem: 213 55<35 236 291 495>
VStem: 236 55<7 213 268 470>
LayerCount: 2
Fore
SplineSet
236 463 m 1
 252 469 271 474 278 474 c 0
 288 474 291 468 291 468 c 1
 291 268 l 25
 369 268 412 268 490 268 c 16
 494 268 499 264 499 256 c 0
 499 240 491 221 483 213 c 1
 291 213 l 25
 291 213 291 91 291 16 c 1
 279 7 259 5 249 5 c 0
 242 5 236 10 236 14 c 2
 236 213 l 25
 36 213 l 1
 36 213 30 213 30 223 c 0
 30 227 35 260 45 268 c 1
 236 268 l 9
 236 268 236 444 236 463 c 1
EndSplineSet
EndChar

StartChar: comma
Encoding: 44 44 12
Width: 196
Flags: W
HStem: -136 256
VStem: 78 68<-26 63>
LayerCount: 2
Fore
SplineSet
104 120 m 0
 112 120 122 117 129 113 c 1
 136 101 146 82 146 45 c 0
 146 -11 81 -109 31 -136 c 1
 24 -136 17 -121 17 -115 c 1
 37 -100 78 -69 78 -7 c 0
 78 25 46 34 46 72 c 0
 46 93 69 120 104 120 c 0
EndSplineSet
Substitution2: "'smcp' Lowercase to Small Capitals lookup 2-1" comma.sc
Substitution2: "'c2sc' Capitals to Small Capitals in Latin lookup 0 subtable" comma.sc
EndChar

StartChar: hyphen
Encoding: 45 45 13
Width: 368
Flags: W
HStem: 205 62<78 307>
VStem: 57 255
LayerCount: 2
Fore
SplineSet
69 255 m 1
 69 255 273 266 305 267 c 0
 309 267 312 266 312 258 c 0
 312 241 307 222 299 205 c 1
 253 202 152 198 63 194 c 0
 58 194 57 196 57 205 c 0
 57 224 62 240 69 255 c 1
EndSplineSet
EndChar

StartChar: slash
Encoding: 47 47 14
Width: 403
Flags: HW
LayerCount: 2
Fore
SplineSet
360 743 m 0
 368 743 372 737 373 734 c 1
 85 -12 l 2
 82 -19 69 -34 47 -34 c 0
 32 -34 29 -27 29 -27 c 1
 321 729 l 1
 322 732 337 743 360 743 c 0
EndSplineSet
Substitution2: "'smcp' Lowercase to Small Capitals lookup 2-1" slash.sc
EndChar

StartChar: zero
Encoding: 48 48 15
Width: 532
Flags: W
HStem: -3 36<218 310> 590 36<223 315>
VStem: 53 86<169 455> 393 86<168 460>
LayerCount: 2
Fore
SplineSet
271 590 m 0
 189 590 139 465 139 312 c 0
 139 159 190 33 262 33 c 0
 349 33 393 164 393 317 c 0
 393 470 343 590 271 590 c 0
266 626 m 0
 403 626 479 482 479 312 c 0
 479 142 401 -3 266 -3 c 0
 133 -3 53 142 53 312 c 0
 53 482 131 626 266 626 c 0
EndSplineSet
Substitution2: "'pnum' Proportional Numbers lookup 12-1" zero.prop
Substitution2: "'zero' Slashed Zero lookup 11-1" zero.slash
Substitution2: "'onum' Oldstyle Figures lookup 3-1" zero.onum
Substitution2: "'ordn' Ordinals lookup 0-1" zero.ordn
EndChar

StartChar: one
Encoding: 49 49 16
Width: 532
Flags: W
HStem: -3 28<170 235 324 388> 607 20G<313 319>
VStem: 241 77<32 545>
LayerCount: 2
Fore
SplineSet
241 113 m 2
 241 508 l 2
 241 536 235 545 221 545 c 0
 206 545 168 531 152 525 c 1
 147 529 143 535 143 542 c 0
 143 544 142 547 145 548 c 0
 225 584 311 627 314 627 c 2
 316 627 l 2
 322 627 325 616 326 611 c 1
 326 611 318 577 318 517 c 2
 318 113 l 2
 318 84 318 57 323 41 c 0
 326 30 374 25 386 25 c 1
 390 20 391 2 386 -3 c 1
 346 -1 315 2 277 2 c 0
 239 2 213 -1 173 -3 c 1
 168 2 169 20 173 25 c 1
 185 25 232 30 235 41 c 0
 240 57 241 84 241 113 c 2
EndSplineSet
Substitution2: "'pnum' Proportional Numbers lookup 12-1" one.prop
Substitution2: "'onum' Oldstyle Figures lookup 3-1" one.onum
Substitution2: "'ordn' Ordinals lookup 0-1" one.ordn
EndChar

StartChar: two
Encoding: 50 50 17
Width: 532
Flags: W
HStem: 0 71<160 404> 563 63<182 302>
VStem: 80 19<486 492> 346 83<369 518>
LayerCount: 2
Fore
SplineSet
467 146 m 1
 447 98 420 18 414 0 c 9
 414 0 83 0 76 0 c 1
 72 2 66 10 66 14 c 1
 148 105 242 216 299 299 c 0
 339 358 346 397 346 445 c 0
 346 512 300 563 238 563 c 0
 160 563 111 499 99 479 c 1
 91 479 80 491 80 495 c 1
 87 519 157 627 260 627 c 0
 354 627 429 547 429 464 c 0
 429 408 407 358 373 316 c 0
 304 231 204 120 160 71 c 9
 354 71 l 2
 393 71 415 95 436 146 c 0
 438 151 441 152 447 152 c 0
 451 152 463 149 467 146 c 1
EndSplineSet
Substitution2: "'pnum' Proportional Numbers lookup 12-1" two.prop
Substitution2: "'onum' Oldstyle Figures lookup 3-1" two.onum
Substitution2: "'ordn' Ordinals lookup 0-1" two.ordn
EndChar

StartChar: three
Encoding: 51 51 18
Width: 532
Flags: W
HStem: -5 39<183 302> 311 29<176 224> 575 52<193 298>
VStem: 330 73<435 543> 365 84<122 262>
LayerCount: 2
Fore
SplineSet
275 627 m 0xf0
 325 627 403 582 403 502 c 0xf0
 403 439 346 391 312 370 c 1
 368 362 449 309 449 213 c 0
 449 79 323 -5 201 -5 c 0
 175 -5 133 2 102 18 c 1
 96 22 82 39 82 55 c 0
 82 83 102 102 123 102 c 0
 150 102 162 75 178 59 c 0
 197 40 224 34 250 34 c 0
 302 34 365 74 365 186 c 0xe8
 365 265 304 323 240 323 c 0
 219 323 194 314 182 311 c 1
 178 316 176 322 176 330 c 0
 176 334 176 337 178 340 c 1
 256 358 330 400 330 484 c 0
 330 536 290 575 234 575 c 0
 172 575 134 518 125 511 c 1
 119 511 113 523 113 532 c 1
 143 577 199 627 275 627 c 0xf0
EndSplineSet
Substitution2: "'pnum' Proportional Numbers lookup 12-1" three.prop
Substitution2: "'onum' Oldstyle Figures lookup 3-1" three.onum
Substitution2: "'ordn' Ordinals lookup 0-1" three.ordn
EndChar

StartChar: four
Encoding: 52 52 19
Width: 532
Flags: W
HStem: -6 21G<357 388> 170 56<115 334 411 480> 609 20G<393 401>
VStem: 334 77<-5 170 226 512>
LayerCount: 2
Fore
SplineSet
396 629 m 0
 406 629 411 619 411 611 c 2
 411 226 l 25
 469 226 l 18
 475 226 482 207 482 186 c 0
 482 177 481 173 479 170 c 1
 411 170 l 25
 411 -1 l 1
 411 -1 407 -6 369 -6 c 0
 346 -6 334 -5 334 2 c 2
 334 170 l 25
 59 170 l 1
 52 174 49 182 49 188 c 1
 367 604 l 2
 373 612 388 629 396 629 c 0
334 512 m 25
 115 226 l 25
 334 226 l 25
 334 512 l 25
EndSplineSet
Substitution2: "'pnum' Proportional Numbers lookup 12-1" four.prop
Substitution2: "'onum' Oldstyle Figures lookup 3-1" four.onum
Substitution2: "'ordn' Ordinals lookup 0-1" four.ordn
EndChar

StartChar: five
Encoding: 53 53 20
Width: 532
Flags: W
HStem: -5 39<183 302> 331 55<163 294> 543 77<193 391> 609 20G<320 413>
VStem: 365 84<124 260>
LayerCount: 2
Fore
SplineSet
266 386 m 0xe8
 381 386 449 296 449 213 c 0
 449 79 323 -5 201 -5 c 0
 175 -5 133 2 102 18 c 1
 96 22 82 39 82 55 c 0
 82 83 102 102 123 102 c 0
 150 102 162 75 178 59 c 0
 197 40 224 34 250 34 c 0
 302 34 365 73 365 186 c 0
 365 247 322 331 209 331 c 3
 188 331 143 324 127 316 c 1
 123 316 119 323 119 330 c 1
 140 439 165 560 176 620 c 1
 320 620 l 2xe8
 360 620 410 629 410 629 c 17xd8
 416 625 422 623 422 618 c 0
 422 612 411 570 393 549 c 1
 366 546 330 543 279 543 c 2
 279 543 210 543 197 543 c 1
 185 484 174 422 162 367 c 1
 189 378 240 386 266 386 c 0xe8
EndSplineSet
Substitution2: "'pnum' Proportional Numbers lookup 12-1" five.prop
Substitution2: "'onum' Oldstyle Figures lookup 3-1" five.onum
Substitution2: "'ordn' Ordinals lookup 0-1" five.ordn
EndChar

StartChar: six
Encoding: 54 54 21
Width: 532
Flags: W
HStem: -6 32<225 318> 338 48<201 324> 604 28<401 434>
VStem: 71 84<117 306> 378 83<108 278>
LayerCount: 2
Fore
SplineSet
159 299 m 1
 156 278 155 255 155 232 c 0
 155 144 193 26 271 26 c 0
 333 26 378 92 378 180 c 0
 378 263 343 338 255 338 c 0
 227 338 191 334 159 299 c 1
282 386 m 0
 419 386 461 268 461 198 c 0
 461 89 374 -6 263 -6 c 0
 145 -6 71 110 71 215 c 0
 71 315 103 407 165 474 c 0
 234 550 345 611 427 632 c 1
 436 632 438 610 438 604 c 1
 356 578 211 515 167 342 c 1
 201 370 249 386 282 386 c 0
EndSplineSet
Substitution2: "'pnum' Proportional Numbers lookup 12-1" six.prop
Substitution2: "'onum' Oldstyle Figures lookup 3-1" six.onum
Substitution2: "'ordn' Ordinals lookup 0-1" six.ordn
EndChar

StartChar: seven
Encoding: 55 55 22
Width: 532
Flags: W
HStem: -5 21G<168 178> 547 71<115 410>
LayerCount: 2
Fore
SplineSet
398 618 m 2
 423 618 459 621 465 621 c 0
 471 621 471 617 471 612 c 0
 471 599 456 574 443 547 c 2
 186 -2 l 1
 184 -4 181 -5 176 -5 c 0
 161 -5 133 4 133 13 c 1
 234 165 410 547 410 547 c 9
 162 547 l 2
 123 547 107 524 92 472 c 0
 91 467 86 466 80 466 c 0
 76 466 65 469 61 472 c 1
 78 525 95 587 102 618 c 9
 398 618 l 2
EndSplineSet
Substitution2: "'pnum' Proportional Numbers lookup 12-1" seven.prop
Substitution2: "'onum' Oldstyle Figures lookup 3-1" seven.onum
Substitution2: "'ordn' Ordinals lookup 0-1" seven.ordn
EndChar

StartChar: eight
Encoding: 56 56 23
Width: 532
Flags: W
HStem: -9 35<211 326> 594 34<221 314>
VStem: 82 77<75 220> 109 72<420 543> 361 70<414 549> 371 79<84 198>
LayerCount: 2
Fore
SplineSet
266 26 m 0xe4
 330 26 371 69 371 135 c 0
 371 216 260 280 246 288 c 0
 244 289 243 290 240 290 c 0
 239 290 237 290 236 289 c 0
 182 255 159 215 159 153 c 0
 159 73 214 26 266 26 c 0xe4
266 594 m 0
 219 594 182 545 182 486 c 0
 182 411 246 376 283 355 c 0
 285 354 287 354 289 354 c 0
 291 354 292 353 295 355 c 0
 335 381 361 421 361 475 c 0xd8
 361 532 325 594 266 594 c 0
271 628 m 0
 358 628 432 575 432 484 c 0xd8
 432 408 367 364 322 336 c 1
 318 335 319 332 322 330 c 0
 381 297 450 233 450 163 c 0
 450 65 362 -9 264 -9 c 0
 157 -9 82 55 82 150 c 0xe4
 82 236 171 287 209 311 c 0
 212 313 211 315 209 316 c 0
 168 340 109 397 109 469 c 0
 109 552 185 628 271 628 c 0
EndSplineSet
Substitution2: "'pnum' Proportional Numbers lookup 12-1" eight.prop
Substitution2: "'onum' Oldstyle Figures lookup 3-1" eight.onum
Substitution2: "'ordn' Ordinals lookup 0-1" eight.ordn
EndChar

StartChar: nine
Encoding: 57 57 24
Width: 532
Flags: W
HStem: -6 28<98 132> 240 48<208 331> 600 32<215 307>
VStem: 72 83<348 520> 377 84<320 509>
LayerCount: 2
Fore
SplineSet
373 327 m 1
 376 348 377 371 377 394 c 0
 377 482 340 600 262 600 c 0
 200 600 155 534 155 446 c 0
 155 363 189 288 277 288 c 0
 305 288 341 292 373 327 c 1
94 22 m 1
 176 48 321 111 365 284 c 1
 331 256 283 240 250 240 c 0
 113 240 72 358 72 428 c 0
 72 537 159 632 270 632 c 0
 388 632 461 516 461 411 c 0
 461 311 429 219 367 152 c 0
 298 76 187 15 105 -6 c 1
 96 -6 94 16 94 22 c 1
EndSplineSet
Substitution2: "'pnum' Proportional Numbers lookup 12-1" nine.prop
Substitution2: "'onum' Oldstyle Figures lookup 3-1" nine.onum
EndChar

StartChar: colon
Encoding: 58 58 25
Width: 220
Flags: W
HStem: -11 107<69 153> 313 107<69 153>
VStem: 57 107<1 85 325 410>
LayerCount: 2
Fore
SplineSet
57 44 m 0
 57 73 82 97 111 97 c 0
 140 97 164 73 164 44 c 0
 164 15 140 -11 111 -11 c 0
 82 -11 57 15 57 44 c 0
57 368 m 0
 57 397 82 421 111 421 c 0
 140 421 164 397 164 368 c 0
 164 339 140 313 111 313 c 0
 82 313 57 339 57 368 c 0
EndSplineSet
Substitution2: "'smcp' Lowercase to Small Capitals lookup 2-1" colon.sc
EndChar

StartChar: semicolon
Encoding: 59 59 26
Width: 226
Flags: W
HStem: 313 107<72 156>
VStem: 66 101<25 109 325 410> 99 68<-26 63>
LayerCount: 2
Fore
SplineSet
124 120 m 0xc0
 132 120 142 117 149 113 c 1
 156 101 167 82 167 45 c 0xc0
 167 -11 102 -109 52 -136 c 1
 45 -136 37 -121 37 -115 c 1
 57 -100 99 -69 99 -7 c 0xa0
 99 25 66 34 66 72 c 0
 66 93 89 120 124 120 c 0xc0
60 368 m 0
 60 397 85 421 114 421 c 0
 143 421 167 397 167 368 c 0
 167 339 143 313 114 313 c 0
 85 313 60 339 60 368 c 0
EndSplineSet
Substitution2: "'smcp' Lowercase to Small Capitals lookup 2-1" semicolon.sc
EndChar

StartChar: less
Encoding: 60 60 27
Width: 480
Flags: W
HStem: 400 20G<412 414>
LayerCount: 2
Fore
SplineSet
434 34 m 0
 434 27 424 -15 418 -15 c 0
 417 -15 415 -14 413 -13 c 2
 47 173 l 2
 32 181 29 195 29 212 c 0
 29 223 37 230 47 235 c 2
 407 418 l 2
 409 419 411 420 412 420 c 0
 415 420 422 410 429 374 c 0
 430 368 426 365 426 365 c 1
 107 204 l 1
 431 40 l 1
 431 40 434 39 434 34 c 0
EndSplineSet
Substitution2: "'smcp' Lowercase to Small Capitals lookup 2-1" less.sc
EndChar

StartChar: equal
Encoding: 61 61 28
Width: 551
Flags: W
HStem: 117 54<79 474> 258 54<79 474>
LayerCount: 2
Fore
SplineSet
467 117 m 1
 310 117 239 117 71 117 c 1
 59 117 72 166 86 171 c 9
 480 171 l 17
 494 171 481 124 467 117 c 1
467 258 m 1
 310 258 239 258 71 258 c 1
 59 258 72 307 86 312 c 9
 480 312 l 17
 494 312 481 265 467 258 c 1
EndSplineSet
Substitution2: "'smcp' Lowercase to Small Capitals lookup 2-1" equal.sc
EndChar

StartChar: greater
Encoding: 62 62 29
Width: 481
Flags: W
HStem: 400 20G<66 69>
LayerCount: 2
Fore
SplineSet
47 34 m 0
 47 38 50 40 50 40 c 1
 373 204 l 1
 56 365 l 1
 56 365 53 366 53 373 c 0
 53 391 64 420 68 420 c 0
 69 420 71 419 73 418 c 2
 435 235 l 2
 445 230 451 223 451 212 c 0
 451 195 450 181 435 173 c 2
 68 -13 l 2
 66 -14 64 -15 63 -15 c 0
 57 -15 47 26 47 34 c 0
EndSplineSet
Substitution2: "'smcp' Lowercase to Small Capitals lookup 2-1" greater.sc
EndChar

StartChar: question
Encoding: 63 63 30
Width: 347
Flags: W
HStem: -11 107<73 158> 535 92<63 179> 556 71<81 188>
VStem: 62 107<1 85> 94 28<156 236> 254 49<422 523>
LayerCount: 2
Fore
SplineSet
62 44 m 0x94
 62 73 87 97 116 97 c 0
 145 97 169 73 169 44 c 0
 169 15 145 -11 116 -11 c 0
 87 -11 62 15 62 44 c 0x94
98 535 m 0xd4
 84 535 55 552 55 584 c 0
 55 599 58 613 63 620 c 1
 73 625 89 627 110 627 c 0
 174 627 303 560 303 446 c 0
 303 380 277 339 204 297 c 0
 178 281 134 247 128 236 c 0
 119 220 122 190 122 168 c 1
 118 160 115 156 106 155 c 1
 101 157 97 160 94 166 c 1xcc
 89 187 86 229 86 255 c 0
 86 327 133 353 169 376 c 0
 217 406 254 429 254 476 c 0
 254 527 219 556 182 556 c 0xb4
 130 556 123 535 98 535 c 0xd4
EndSplineSet
Substitution2: "'smcp' Lowercase to Small Capitals lookup 2-1" question.sc
EndChar

StartChar: at
Encoding: 64 64 31
Width: 730
Flags: W
HStem: -121 18<255 279> -7 42<483 570> -5 57<276 333> 380 45<381 486> 525 39<307 506>
VStem: 48 39<61 280> 189 72<64 227> 413 64<41 122> 656 39<153 369>
LayerCount: 2
Fore
SplineSet
408 564 m 0xdf80
 599 564 695 416 695 264 c 0
 695 115 608 -7 494 -7 c 0xdf80
 446 -7 413 17 413 77 c 0
 413 89 417 114 420 122 c 1
 401 86 339 -5 282 -5 c 3xbf80
 221 -5 189 59 189 127 c 3
 189 270 335 425 469 425 c 0
 503 425 521 419 540 412 c 9
 480 104 l 2
 479 100 478 84 478 79 c 0
 478 48 498 35 524 35 c 0
 586 35 656 139 656 261 c 0
 656 393 578 525 408 525 c 0
 209 525 87 336 87 166 c 0
 87 52 147 -35 217 -76 c 0
 252 -97 271 -101 290 -104 c 1
 290 -112 267 -121 255 -121 c 0
 243 -121 230 -120 217 -115 c 0
 127 -82 48 28 48 166 c 0
 48 357 181 564 408 564 c 0xdf80
428 380 m 3
 353 380 262 259 262 147 c 0
 262 86 278 52 312 52 c 3xbf80
 361 52 429 174 448 268 c 2
 468 367 l 17
 459 377 441 380 428 380 c 3
EndSplineSet
Substitution2: "'smcp' Lowercase to Small Capitals lookup 2-1" at.sc
EndChar

StartChar: A
Encoding: 65 65 32
Width: 612
Flags: W
HStem: -3 28<-13 42 127 188 394 451 569 617> 247 38<195 370> 628 20G<314 320>
LayerCount: 2
Fore
SplineSet
93 136 m 2
 93 136 221 467 281 619 c 1
 286 629 310 647 319 647 c 0
 322 647 321 646 324 645 c 1
 523 123 l 0
 537 86 546 63 548 59 c 0
 558 36 607 25 615 25 c 1
 620 18 617 0 616 -3 c 1
 577 -1 552 2 509 2 c 0
 464 2 441 -1 396 -3 c 1
 391 2 392 20 397 25 c 1
 409 25 442 30 451 38 c 0
 454 41 455 46 455 52 c 0
 455 81 389 242 389 242 c 1
 389 242 386 246 383 246 c 0
 358 248 310 247 286 247 c 0
 246 247 225 247 181 244 c 0
 179 244 176 241 176 241 c 1
 176 241 148 169 132 122 c 16
 120 88 118 66 118 53 c 0
 118 30 178 25 186 25 c 1
 189 22 190 3 188 -3 c 1
 149 -1 136 2 93 2 c 0
 48 2 33 -1 -12 -3 c 1
 -15 0 -15 18 -12 25 c 1
 0 25 37 31 47 44 c 0
 67 69 79 101 93 136 c 2
284 529 m 1
 195 291 l 1
 195 291 195 287 197 287 c 0
 222 286 263 285 285 285 c 0
 315 285 337 286 367 288 c 0
 369 288 370 293 370 293 c 1
 284 529 l 1
EndSplineSet
EndChar

StartChar: B
Encoding: 66 66 33
Width: 582
Flags: W
HStem: -3 31<42 112 212 372> 324 37<202 353> 612 31<44 113 207 330>
VStem: 117 85<46 324 361 602> 406 89<425 554> 443 97<103 257>
LayerCount: 2
Fore
SplineSet
202 324 m 1xf4
 202 112 l 2
 202 98 203 53 210 46 c 0
 225 30 251 28 287 28 c 0
 360 28 443 53 443 172 c 0
 443 245 411 324 261 324 c 2
 202 324 l 1xf4
202 361 m 1
 283 361 l 2
 371 361 406 420 406 476 c 0xf8
 406 563 346 612 255 612 c 0
 243 612 210 612 206 603 c 0
 201 591 202 558 202 529 c 2
 202 361 l 1
298 644 m 0
 387 644 495 609 495 498 c 0xf8
 495 423 430 369 396 356 c 0
 394 355 393 354 396 352 c 1
 444 350 539 291 539 194 c 0xf4
 539 138 522 90 474 50 c 0
 427 11 344 -2 269 -3 c 0
 237 -3 82 -3 44 -3 c 1
 39 2 40 20 44 25 c 1
 56 25 109 30 112 41 c 0
 117 57 117 84 117 113 c 2
 117 530 l 2
 117 559 117 587 112 603 c 0
 109 614 56 618 44 618 c 1
 40 623 39 641 44 646 c 1
 84 644 122 642 160 642 c 0
 198 642 240 644 298 644 c 0
EndSplineSet
EndChar

StartChar: C
Encoding: 67 67 34
Width: 658
Flags: W
HStem: -6 32<311 478> 619 32<307 475>
VStem: 47 97<207 437> 573 33<474 526> 586 31<137 182>
LayerCount: 2
Fore
SplineSet
377 651 m 0xe8
 441 651 512 647 584 631 c 1
 584 631 606 496 606 486 c 1
 607 480 595 474 585 474 c 0
 579 474 576 475 573 477 c 1xf0
 567 507 545 619 382 619 c 0
 237 619 144 472 144 335 c 0
 144 183 227 26 397 26 c 0
 457 26 498 48 526 73 c 0
 564 107 579 155 586 187 c 1
 596 188 608 185 617 179 c 1
 617 159 597 50 583 38 c 1
 529 8 463 -6 373 -6 c 0
 180 -6 47 141 47 314 c 0
 47 497 185 651 377 651 c 0xe8
EndSplineSet
EndChar

StartChar: D
Encoding: 68 68 35
Width: 693
Flags: W
HStem: -3 31<42 112 209 382> 611 31<44 113 206 368>
VStem: 117 86<42 608> 547 97<193 438>
LayerCount: 2
Fore
SplineSet
203 528 m 2
 203 112 l 0
 203 98 203 48 208 42 c 0
 216 31 252 28 288 28 c 0
 427 28 547 116 547 306 c 0
 547 527 416 611 275 611 c 0
 263 611 210 611 207 601 c 0
 202 585 203 556 203 528 c 2
301 643 m 0
 515 643 644 507 644 326 c 0
 644 160 563 -3 288 -3 c 0
 245 -3 82 -3 44 -3 c 1
 39 2 40 20 44 25 c 1
 56 25 109 30 112 41 c 0
 117 57 117 84 117 113 c 2
 117 530 l 2
 117 559 117 587 112 603 c 0
 109 614 56 618 44 618 c 1
 40 623 39 641 44 646 c 1
 84 644 122 642 160 642 c 0
 198 642 258 643 301 643 c 0
EndSplineSet
EndChar

StartChar: E
Encoding: 69 69 36
Width: 573
Flags: W
HStem: -3 28<42 111> 0 33<208 426> 305 36<202 375> 398 20G<414 421> 609 32<205 424> 618 28<42 111>
VStem: 117 85<43 303 341 606> 403 31<225 283 363 418> 471 31<511 558>
LayerCount: 2
Fore
SplineSet
160 642 m 0x3b80
 252 642 368 648 474 648 c 1
 481 599 493 560 502 516 c 1
 499 513 492 511 485 511 c 0
 478 511 472 513 471 518 c 0
 450 596 410 609 358 609 c 2
 274 609 l 0
 262 609 209 609 206 599 c 0
 201 583 202 555 202 529 c 2
 202 347 l 2
 202 342 223 341 244 341 c 2
 295 341 l 2
 389 341 386 347 403 411 c 0
 404 416 410 418 417 418 c 0
 424 418 431 416 434 413 c 1
 434 229 l 1
 432 227 425 225 418 225 c 0
 411 225 405 227 403 232 c 0
 388 288 384 291 375 297 c 0
 364 304 309 305 272 305 c 0
 245 305 202 305 202 296 c 2
 202 110 l 2
 202 95 201 48 207 43 c 0
 220 33 236 33 277 33 c 2
 324 33 l 2
 370 33 420 43 447 60 c 0
 478 79 492 116 508 158 c 0
 509 162 515 164 522 164 c 0
 532 164 543 161 546 158 c 1
 527 105 501 39 494 -4 c 1
 388 -4 291 0 161 0 c 0x7b80
 115 0 82 -3 44 -3 c 1
 39 2 40 20 44 25 c 1
 56 25 109 30 112 41 c 0
 117 57 117 84 117 113 c 2
 117 530 l 2
 117 559 117 587 112 603 c 0
 109 614 56 618 44 618 c 1
 40 623 39 641 44 646 c 1xb780
 84 644 122 642 160 642 c 0x3b80
EndSplineSet
EndChar

StartChar: F
Encoding: 70 70 37
Width: 522
Flags: W
HStem: -3 28<42 111 207 286> 305 36<202 375> 398 20G<414 421> 609 32<205 424> 618 28<42 111>
VStem: 117 85<33 303 341 606> 403 31<225 283 363 418> 471 31<511 558>
LayerCount: 2
Fore
SplineSet
160 642 m 0xf7
 252 642 368 648 474 648 c 1
 481 599 493 560 502 516 c 1
 499 513 492 511 485 511 c 0
 478 511 472 513 471 518 c 0
 450 596 410 609 358 609 c 2
 274 609 l 0xf7
 262 609 209 609 206 599 c 0
 201 583 202 555 202 529 c 2
 202 347 l 2
 202 342 223 341 244 341 c 2
 295 341 l 2
 389 341 386 347 403 411 c 0
 404 416 410 418 417 418 c 0
 424 418 431 416 434 413 c 1
 434 229 l 1
 432 227 425 225 418 225 c 0
 411 225 405 227 403 232 c 0
 388 288 384 291 375 297 c 0
 364 304 309 305 272 305 c 0
 245 305 202 305 202 296 c 2
 202 113 l 2
 202 84 201 57 206 41 c 0
 209 30 272 25 284 25 c 1
 288 20 289 2 284 -3 c 1
 244 -1 198 2 160 2 c 0
 114 2 82 -3 44 -3 c 1
 39 2 40 20 44 25 c 1
 56 25 109 30 112 41 c 0
 117 57 117 84 117 113 c 2
 117 530 l 2
 117 559 117 587 112 603 c 0
 109 614 56 618 44 618 c 1
 40 623 39 641 44 646 c 1xef
 84 644 122 642 160 642 c 0xf7
EndSplineSet
EndChar

StartChar: G
Encoding: 71 71 38
Width: 703
Flags: W
HStem: -6 32<311 481> 259 28<449 517 612 677> 619 32<307 475>
VStem: 47 97<207 437> 522 84<63 252> 573 33<474 526>
LayerCount: 2
Fore
SplineSet
522 171 m 2xf8
 522 200 523 227 518 243 c 0
 515 254 463 259 451 259 c 1
 447 264 446 282 451 287 c 1
 491 285 527 282 565 282 c 0
 603 282 635 285 675 287 c 1
 680 282 679 264 675 259 c 1
 663 259 614 254 611 243 c 0
 606 227 606 200 606 171 c 2
 606 171 606 112 606 102 c 0xf8
 606 81 616 72 616 62 c 0
 616 56 614 54 597 45 c 0
 555 23 502 -6 373 -6 c 0
 180 -6 47 141 47 314 c 0
 47 497 185 651 377 651 c 0
 441 651 512 647 584 631 c 1
 584 631 606 496 606 486 c 1
 607 480 595 474 585 474 c 0
 579 474 576 475 573 477 c 1xf4
 567 507 545 619 382 619 c 0
 237 619 144 472 144 335 c 0
 144 183 226 26 397 26 c 0
 448 26 487 43 516 58 c 0
 522 61 522 65 522 72 c 0
 522 171 l 2xf8
EndSplineSet
EndChar

StartChar: H
Encoding: 72 72 39
Width: 708
Flags: W
HStem: -3 31<42 112 206 276 433 503 598 668> 317 33<203 508> 615 31<42 112 206 276 433 503 598 668>
VStem: 117 85<35 311 354 609> 508 85<35 313 354 609>
LayerCount: 2
Fore
SplineSet
160 642 m 0
 198 642 234 644 274 646 c 1
 279 641 278 620 274 615 c 1
 262 615 209 611 206 600 c 0
 201 584 202 556 202 527 c 2
 202 356 l 1
 202 354 204 354 204 354 c 1
 252 353 302 351 357 351 c 0
 403 351 462 353 506 354 c 1
 506 354 508 355 508 357 c 0
 508 527 l 2
 508 556 508 584 503 600 c 0
 500 611 448 615 436 615 c 1
 432 620 431 641 436 646 c 1
 476 644 513 642 551 642 c 0
 589 642 625 644 665 646 c 1
 670 641 669 620 665 615 c 1
 653 615 601 611 598 600 c 0
 593 584 593 556 593 527 c 2
 593 116 l 2
 593 87 593 60 598 44 c 0
 601 33 653 28 665 28 c 1
 669 23 670 2 665 -3 c 1
 625 -1 589 2 551 2 c 0
 513 2 476 -1 436 -3 c 1
 431 2 432 23 436 28 c 1
 448 28 500 33 503 44 c 0
 508 60 508 87 508 116 c 2
 508 310 l 1
 508 312 506 313 506 313 c 1
 460 314 407 317 357 317 c 0
 221 317 207 314 203 312 c 1
 202 311 202 310 202 310 c 1
 202 116 l 2
 202 87 201 60 206 44 c 0
 209 33 262 28 274 28 c 1
 278 23 279 2 274 -3 c 1
 234 -1 198 2 160 2 c 0
 122 2 84 -1 44 -3 c 1
 39 2 40 23 44 28 c 1
 56 28 109 33 112 44 c 0
 117 60 117 87 117 116 c 2
 117 527 l 2
 117 556 117 584 112 600 c 0
 109 611 56 615 44 615 c 1
 40 620 39 641 44 646 c 1
 84 644 122 642 160 642 c 0
EndSplineSet
EndChar

StartChar: I
Encoding: 73 73 40
Width: 316
Flags: W
HStem: -3 28<42 111 207 276> 618 28<42 111 207 276>
VStem: 117 85<32 612>
LayerCount: 2
Fore
SplineSet
160 642 m 0
 198 642 234 644 274 646 c 1
 279 641 278 623 274 618 c 1
 262 618 209 614 206 603 c 0
 201 587 202 559 202 530 c 2
 202 113 l 2
 202 84 201 57 206 41 c 0
 209 30 262 25 274 25 c 1
 278 20 279 2 274 -3 c 1
 234 -1 198 2 160 2 c 0
 122 2 84 -1 44 -3 c 1
 39 2 40 20 44 25 c 1
 56 25 109 30 112 41 c 0
 117 57 117 84 117 113 c 2
 117 530 l 2
 117 559 117 587 112 603 c 0
 109 614 56 618 44 618 c 1
 40 623 39 641 44 646 c 1
 84 644 122 642 160 642 c 0
EndSplineSet
EndChar

StartChar: J
Encoding: 74 74 41
Width: 305
Flags: W
HStem: -222 46<-40 65> 618 28<37 106 202 271>
VStem: 111 85<-52 612>
LayerCount: 2
Fore
SplineSet
154 642 m 0
 192 642 229 644 269 646 c 1
 274 641 273 623 269 618 c 1
 257 618 204 614 201 603 c 0
 196 587 196 559 196 530 c 2
 196 118 l 2
 196 -126 100 -222 -32 -222 c 0
 -47 -222 -82 -213 -94 -204 c 1
 -99 -199 -102 -189 -102 -182 c 0
 -102 -152 -86 -127 -55 -127 c 0
 -37 -127 -21 -143 -8 -155 c 0
 3 -165 19 -176 36 -176 c 0
 77 -176 111 -123 111 113 c 2
 111 530 l 2
 111 559 111 587 106 603 c 0
 103 614 51 618 39 618 c 1
 35 623 34 641 39 646 c 1
 79 644 116 642 154 642 c 0
EndSplineSet
EndChar

StartChar: K
Encoding: 75 75 42
Width: 641
Flags: W
HStem: -3 31<42 112 206 276 576 646> 615 31<42 112 206 276 393 449 540 614>
VStem: 117 85<35 300 333 609>
LayerCount: 2
Fore
SplineSet
160 642 m 0
 198 642 234 644 274 646 c 1
 279 641 278 620 274 615 c 1
 262 615 209 611 206 600 c 0
 201 584 202 556 202 527 c 2
 202 333 l 1
 223 346 272 393 312 432 c 0
 388 507 406 526 436 564 c 0
 442 572 450 585 450 595 c 0
 450 619 404 616 395 616 c 1
 392 622 392 637 395 646 c 1
 431 644 471 641 507 641 c 0
 550 641 574 644 613 646 c 1
 615 640 616 616 611 616 c 0
 602 615 547 616 514 580 c 0
 430 488 373 437 288 355 c 1
 286 352 286 351 288 348 c 1
 382 239 463 141 538 70 c 0
 562 48 591 29 645 25 c 1
 650 20 645 -1 644 -3 c 1
 579 -3 525 1 505 8 c 0
 491 13 466 23 439 50 c 0
 418 71 329 171 219 297 c 0
 217 300 214 300 210 300 c 0
 207 300 204 299 202 298 c 1
 202 116 l 2
 202 87 201 60 206 44 c 0
 209 33 262 28 274 28 c 1
 278 23 279 2 274 -3 c 1
 234 -1 198 2 160 2 c 0
 122 2 84 -1 44 -3 c 1
 39 2 40 23 44 28 c 1
 56 28 109 33 112 44 c 0
 117 60 117 87 117 116 c 2
 117 527 l 2
 117 556 117 584 112 600 c 0
 109 611 56 615 44 615 c 1
 40 620 39 641 44 646 c 1
 84 644 122 642 160 642 c 0
EndSplineSet
EndChar

StartChar: L
Encoding: 76 76 43
Width: 550
Flags: W
HStem: -3 28<42 111> 0 33<208 428> 618 28<42 111 207 276>
VStem: 117 85<43 612>
LayerCount: 2
Fore
SplineSet
202 113 m 2xb0
 202 98 201 48 207 43 c 0
 220 33 236 33 277 33 c 2
 332 33 l 2
 369 33 420 41 447 60 c 0
 471 77 492 106 508 158 c 0
 509 162 515 164 522 164 c 0
 532 164 543 161 546 158 c 1
 527 105 501 39 494 -4 c 1
 388 -4 291 0 161 0 c 0x70
 115 0 82 -3 44 -3 c 1
 39 2 40 20 44 25 c 1
 56 25 109 30 112 41 c 0
 117 57 117 84 117 113 c 2
 117 530 l 2
 117 559 117 587 112 603 c 0
 109 614 56 618 44 618 c 1
 40 623 39 641 44 646 c 1
 84 644 122 642 160 642 c 0
 198 642 234 644 274 646 c 1
 279 641 278 623 274 618 c 1
 262 618 209 614 206 603 c 0
 201 587 202 559 202 530 c 2
 202 113 l 2xb0
EndSplineSet
EndChar

StartChar: M
Encoding: 77 77 44
Width: 885
Flags: W
HStem: -3 28<24 100 167 244 618 682 785 853> 618 28<57 119 770 833>
VStem: 117 44<37 283> 130 43<363 570> 677 84<318 571> 692 79<36 374>
LayerCount: 2
Fore
SplineSet
159 642 m 0xd0
 192 642 217 644 238 646 c 1
 258 584 376 317 445 143 c 0
 446 141 448 141 449 141 c 0
 450 141 452 142 453 145 c 0
 511 293 546 384 603 529 c 0
 621 574 646 646 646 646 c 1
 677 644 704 643 723 643 c 0
 757 643 808 644 832 646 c 1
 833 643 835 618 835 618 c 17
 821 618 771 611 766 601 c 0
 762 592 761 575 761 563 c 0xd8
 763 496 768 264 771 137 c 0
 772 99 774 65 783 42 c 0
 788 28 843 25 851 25 c 1
 856 16 854 0 853 -3 c 1
 814 -1 780 2 737 2 c 0
 692 2 664 -1 619 -3 c 1
 617 -1 615 17 619 25 c 1
 631 25 671 29 683 36 c 0
 690 40 692 63 692 77 c 0xc4
 692 91 690 119 690 134 c 0
 686 275 683 394 677 552 c 0
 677 556 675 571 668 571 c 0
 666 571 665 569 663 564 c 8
 583 363 532 236 457 48 c 0
 453 39 431 0 420 -2 c 0
 417 -3 414 -1 411 0 c 1
 173 570 l 1xd8
 169 357 160 83 160 73 c 0
 160 64 161 51 164 43 c 0
 170 28 234 25 242 25 c 1
 247 19 244 0 243 -3 c 1
 204 -1 183 2 140 2 c 0
 95 2 71 -1 26 -3 c 1
 24 -1 22 17 26 25 c 1
 38 25 96 30 105 43 c 0
 114 56 116 71 117 92 c 0xe0
 126 326 130 541 130 559 c 0
 130 573 130 587 126 598 c 0
 122 610 70 618 58 618 c 1
 56 618 56 644 58 646 c 1
 103 644 114 642 159 642 c 0xd0
EndSplineSet
EndChar

StartChar: N
Encoding: 78 78 45
Width: 757
Flags: W
HStem: -3 28<38 109 188 257> 619 28<38 112 510 579 659 730>
VStem: 126 45<46 555> 597 45<162 599>
LayerCount: 2
Fore
SplineSet
140 645 m 0
 169 645 200 645 214 646 c 1
 264 568 489 313 597 162 c 1
 597 219 l 0
 597 532 l 2
 597 567 597 584 587 600 c 0
 581 610 529 619 513 619 c 1
 508 626 509 641 511 647 c 1
 550 645 580 643 623 643 c 0
 668 643 683 645 728 647 c 1
 731 642 733 630 728 619 c 1
 716 619 658 612 651 600 c 0
 642 585 642 570 642 533 c 2
 642 136 l 2
 642 79 642 52 644 1 c 1
 643 -4 634 -5 631 -5 c 0
 626 -5 611 1 597 18 c 2
 171 556 l 1
 171 112 l 2
 171 77 171 61 181 45 c 0
 187 35 238 25 254 25 c 1
 259 18 258 3 256 -3 c 1
 217 -1 188 2 145 2 c 0
 100 2 85 -1 40 -3 c 1
 37 2 35 14 40 25 c 1
 52 25 109 33 116 45 c 0
 125 60 126 74 126 111 c 2
 126 535 l 2
 126 572 125 587 116 602 c 0
 109 614 52 621 40 621 c 1
 35 632 37 644 40 649 c 1
 85 647 108 645 140 645 c 0
EndSplineSet
EndChar

StartChar: O
Encoding: 79 79 46
Width: 730
Flags: W
HStem: -10 33<305 455> 618 33<274 427>
VStem: 48 97<209 437> 586 97<205 433>
LayerCount: 2
Fore
SplineSet
350 618 m 0
 204 618 145 473 145 342 c 0
 145 191 229 23 380 23 c 0
 526 23 586 170 586 302 c 0
 586 453 501 618 350 618 c 0
364 651 m 0
 536 651 683 514 683 320 c 0
 683 137 536 -10 364 -10 c 0
 192 -10 48 127 48 320 c 0
 48 503 192 651 364 651 c 0
EndSplineSet
EndChar

StartChar: P
Encoding: 80 80 47
Width: 535
Flags: W
HStem: -3 28<41 111 207 276> 271 27<246 338> 612 31<43 113 206 332>
VStem: 116 85<32 602> 416 90<375 542>
LayerCount: 2
Fore
SplineSet
506 468 m 0
 506 349 419 271 291 271 c 0
 280 271 259 274 249 279 c 0
 246 281 235 289 235 301 c 0
 235 303 236 307 240 306 c 1
 251 303 262 299 277 299 c 0
 355 299 416 353 416 451 c 0
 416 548 363 612 255 612 c 0
 243 612 210 612 206 603 c 0
 201 591 201 558 201 529 c 2
 201 113 l 2
 201 84 201 57 206 41 c 0
 209 30 261 25 273 25 c 1
 277 20 278 2 273 -3 c 1
 233 -1 197 2 159 2 c 0
 121 2 84 -1 44 -3 c 1
 39 2 40 20 44 25 c 1
 56 25 108 30 111 41 c 0
 116 57 116 84 116 113 c 2
 116 530 l 2
 116 559 116 587 111 603 c 0
 108 614 56 618 44 618 c 1
 40 623 39 641 44 646 c 1
 84 644 121 642 159 642 c 0
 197 642 240 644 298 644 c 0
 402 644 506 581 506 468 c 0
EndSplineSet
EndChar

StartChar: Q
Encoding: 81 81 48
Width: 729
Flags: W
HStem: -133 54<566 698> 618 33<274 427>
VStem: 48 97<210 437> 586 97<202 433>
LayerCount: 2
Fore
SplineSet
350 618 m 0
 204 618 145 473 145 342 c 0
 145 191 229 23 380 23 c 0
 526 23 586 170 586 302 c 0
 586 453 501 618 350 618 c 0
364 651 m 0
 536 651 683 514 683 320 c 0
 683 171 585 45 455 4 c 1
 549 -41 568 -79 669 -79 c 0
 708 -79 731 -75 738 -73 c 1
 744 -73 753 -76 756 -80 c 0
 757 -81 757 -82 757 -83 c 1
 703 -111 655 -133 595 -133 c 0
 491 -133 413 -32 286 0 c 0
 150 34 48 157 48 320 c 0
 48 503 192 651 364 651 c 0
EndSplineSet
EndChar

StartChar: R
Encoding: 82 82 49
Width: 606
Flags: W
HStem: -3 28<42 111 207 276 573 632> 295 30<202 282> 612 31<43 113 206 332>
VStem: 116 85<32 295 325 602> 405 91<404 552>
LayerCount: 2
Fore
SplineSet
298 644 m 0
 387 644 496 586 496 475 c 0
 496 405 428 335 363 313 c 1
 415 227 457 169 521 84 c 0
 549 47 577 29 631 25 c 1
 636 20 631 -1 630 -3 c 1
 565 -3 521 2 501 9 c 0
 487 14 461 22 438 52 c 0
 423 72 345 187 283 283 c 0
 277 292 267 295 253 295 c 0
 253 295 211 295 202 295 c 1
 202 113 l 1
 202 84 201 57 206 41 c 0
 209 30 262 25 274 25 c 1
 278 20 279 2 274 -3 c 1
 234 -1 198 2 160 2 c 0
 122 2 84 -1 44 -3 c 1
 39 2 40 20 44 25 c 1
 56 25 109 30 112 41 c 0
 117 57 117 84 117 113 c 2
 116 530 l 2
 116 559 116 587 111 603 c 0
 108 614 56 618 44 618 c 1
 40 623 39 641 44 646 c 1
 84 644 121 642 159 642 c 0
 197 642 240 644 298 644 c 0
405 466 m 0
 405 551 363 612 255 612 c 0
 243 612 210 612 206 603 c 0
 201 591 201 558 201 529 c 2
 202 325 l 1
 202 325 235 325 254 325 c 0
 330 325 405 380 405 466 c 0
EndSplineSet
EndChar

StartChar: S
Encoding: 83 83 50
Width: 490
Flags: W
HStem: -10 33<177 308> 617 33<188 304>
VStem: 48 36<122 180> 63 78<444 558> 363 85<88 209>
LayerCount: 2
Fore
SplineSet
255 650 m 0xd8
 316 650 338 638 402 623 c 1
 410 572 414 510 416 484 c 0
 417 477 403 474 396 474 c 0
 393 474 388 475 385 478 c 1
 379 527 331 617 248 617 c 0
 168 617 142 556 142 509 c 0xd8
 142 431 214 398 278 357 c 0
 342 316 448 266 448 169 c 0
 448 62 348 -10 244 -10 c 0
 178 -10 116 9 68 19 c 1
 56 77 48 158 48 170 c 1
 54 176 64 182 73 182 c 0
 80 182 83 178 84 173 c 0xe8
 92 136 129 23 246 23 c 0
 309 23 363 67 363 143 c 0
 363 224 300 244 233 283 c 0
 158 327 63 380 63 479 c 0
 63 583 157 650 255 650 c 0xd8
EndSplineSet
EndChar

StartChar: T
Encoding: 84 84 51
Width: 611
Flags: W
HStem: -3 28<189 258 354 423> 611 34<94 264 349 516>
VStem: 12 32<488 544> 264 85<32 611> 566 32<488 544>
LayerCount: 2
Fore
SplineSet
496 646 m 0
 512 646 543 654 555 660 c 0
 565 665 567 665 573 662 c 1
 580 602 588 546 599 494 c 1
 596 491 589 486 580 487 c 0
 575 487 568 489 566 492 c 1
 552 560 522 611 473 611 c 2
 349 611 l 1
 349 113 l 2
 349 84 349 57 354 41 c 0
 357 30 409 25 421 25 c 1
 425 20 426 2 421 -3 c 1
 381 -1 345 2 307 2 c 0
 269 2 231 -1 191 -3 c 1
 186 2 187 20 191 25 c 1
 203 25 256 30 259 41 c 0
 264 57 264 84 264 113 c 2
 264 611 l 1
 138 611 l 2
 89 611 58 560 44 492 c 1
 42 489 35 487 30 487 c 0
 21 486 15 491 12 494 c 1
 23 546 30 602 37 662 c 1
 43 665 54 662 60 659 c 0
 72 653 98 646 114 646 c 0
 199 646 405 646 496 646 c 0
EndSplineSet
EndChar

StartChar: U
Encoding: 85 85 52
Width: 706
Flags: W
HStem: -4 57<275 465> 618 28<26 95 192 261 474 542 617 690>
VStem: 101 85<155 612> 557 45<153 599>
LayerCount: 2
Fore
SplineSet
144 642 m 0
 182 642 218 644 258 646 c 1
 263 641 262 623 258 618 c 1
 246 618 194 614 191 603 c 0
 186 587 186 559 186 530 c 2
 186 289 l 2
 186 208 203 148 234 109 c 0
 265 71 310 53 368 53 c 0
 469 53 554 100 557 268 c 2
 557 532 l 2
 557 567 557 584 547 600 c 0
 541 610 493 619 477 619 c 1
 472 626 473 641 475 647 c 1
 514 645 540 643 583 643 c 0
 628 643 643 645 688 647 c 1
 691 642 693 630 688 619 c 1
 676 619 619 612 612 600 c 0
 603 585 602 570 602 533 c 2
 602 270 l 2
 602 75 499 -4 347 -4 c 0
 277 -4 216 20 173 61 c 0
 128 104 101 167 101 245 c 2
 101 530 l 2
 101 559 101 587 96 603 c 0
 93 614 41 618 29 618 c 1
 25 623 24 641 29 646 c 1
 69 644 106 642 144 642 c 0
EndSplineSet
EndChar

StartChar: V
Encoding: 86 86 53
Width: 623
Flags: W
HStem: -2 21G<294 303> 618 28<-8 46 177 229 436 487 586 637>
LayerCount: 2
Fore
SplineSet
107 642 m 0
 150 642 189 644 228 646 c 1
 230 640 230 619 226 618 c 1
 218 618 167 613 167 586 c 0
 167 577 173 553 185 520 c 0
 217 432 327 134 330 126 c 1
 336 139 427 361 486 511 c 16
 495 533 503 561 503 579 c 0
 503 610 451 617 439 617 c 1
 434 619 434 641 439 646 c 1
 475 644 505 642 541 642 c 0
 586 642 597 644 636 646 c 1
 639 641 637 618 634 618 c 1
 626 618 589 613 572 593 c 0
 560 579 538 531 523 494 c 0
 452 314 409 213 333 31 c 0
 322 5 309 -2 296 -2 c 0
 292 -2 289 10 287 14 c 0
 221 188 174 314 101 502 c 0
 86 540 73 571 56 596 c 0
 45 612 6 618 -6 618 c 1
 -8 618 -8 644 -6 646 c 1
 39 644 62 642 107 642 c 0
EndSplineSet
EndChar

StartChar: W
Encoding: 87 87 54
Width: 878
Flags: W
HStem: -2 21G<251 260 605 613> 618 28<-6 45 170 221 682 736 837 884>
LayerCount: 2
Fore
SplineSet
115 642 m 0
 158 642 181 644 220 646 c 1
 222 640 222 619 218 618 c 1
 210 618 160 613 160 586 c 1
 160 580 166 556 175 522 c 0
 197 441 247 283 288 145 c 1
 334 296 407 518 436 614 c 0
 442 633 460 646 471 646 c 0
 475 646 477 642 482 631 c 1
 489 610 573 341 638 147 c 1
 680 296 704 374 740 512 c 0
 746 535 751 562 751 580 c 0
 751 611 697 618 685 618 c 1
 680 620 680 641 685 646 c 1
 721 644 755 642 791 642 c 0
 836 642 844 644 883 646 c 1
 886 641 884 618 881 618 c 1
 873 618 839 610 819 593 c 0
 805 581 796 559 784 519 c 0
 730 334 696 206 644 31 c 0
 639 13 620 -2 607 -2 c 0
 603 -2 598 10 597 14 c 1
 549 155 438 497 438 496 c 1
 383 316 343 204 291 31 c 0
 286 13 266 -2 253 -2 c 0
 249 -2 245 10 244 14 c 0
 187 195 147 328 87 520 c 0
 75 559 71 581 52 599 c 0
 38 612 8 618 -4 618 c 1
 -6 618 -6 644 -4 646 c 1
 41 644 70 642 115 642 c 0
EndSplineSet
EndChar

StartChar: X
Encoding: 88 88 55
Width: 652
Flags: W
HStem: -3 28<-8 56 151 223 407 457 587 654> 618 28<31 85 229 282 423 484 580 633>
LayerCount: 2
Fore
SplineSet
156 642 m 0
 204 642 242 644 281 646 c 1
 283 640 284 618 279 618 c 0
 265 618 220 612 220 587 c 0
 220 579 224 570 232 558 c 2
 345 384 l 1
 404 462 463 537 487 576 c 0
 491 582 491 590 491 592 c 0
 491 601 481 617 426 617 c 1
 422 618 421 639 424 646 c 1
 463 643 489 641 525 641 c 0
 576 641 609 644 632 646 c 1
 635 641 636 623 630 617 c 1
 622 617 572 612 543 578 c 0
 468 488 434 446 364 352 c 1
 556 64 l 2
 574 36 620 25 652 25 c 1
 656 20 654 -1 653 -3 c 1
 614 -1 592 2 552 2 c 0
 497 2 464 -1 409 -3 c 1
 404 2 404 25 409 25 c 0
 420 25 466 34 466 53 c 0
 466 56 463 61 461 64 c 2
 312 294 l 1
 253 216 166 91 151 64 c 0
 150 61 146 55 146 49 c 0
 146 37 166 25 221 25 c 1
 225 19 225 0 223 -3 c 1
 187 -1 149 2 113 2 c 0
 62 2 31 -1 -8 -3 c 1
 -11 3 -8 22 -6 25 c 1
 2 25 72 33 99 68 c 0
 173 163 220 230 290 324 c 1
 252 383 153 535 153 535 c 2
 131 570 115 587 88 603 c 0
 71 613 45 618 33 618 c 0
 28 618 28 641 33 646 c 1
 81 644 108 642 156 642 c 0
EndSplineSet
EndChar

StartChar: Y
Encoding: 89 89 56
Width: 583
Flags: W
HStem: -3 28<180 249 345 414> 618 28<-13 41 185 238 384 445 528 589>
VStem: 255 85<32 313>
LayerCount: 2
Fore
SplineSet
255 113 m 2
 255 261 l 0
 255 268 253 278 248 288 c 16
 191 391 167 431 109 535 c 0
 88 571 72 587 45 603 c 0
 28 613 2 618 -10 618 c 0
 -15 618 -15 641 -10 646 c 1
 38 644 64 642 112 642 c 0
 160 642 198 644 237 646 c 1
 239 640 240 618 235 618 c 0
 221 618 177 612 177 587 c 0
 177 579 180 571 188 558 c 2
 324 323 l 1
 372 409 436 541 451 576 c 0
 452 579 454 585 454 591 c 0
 454 601 441 617 386 617 c 1
 383 617 382 643 384 646 c 1
 420 644 445 641 481 641 c 0
 532 641 550 644 589 646 c 1
 591 640 590 617 587 617 c 1
 579 617 522 617 500 578 c 0
 463 513 387 372 345 294 c 8
 339 283 341 273 341 264 c 0
 341 205 340 113 340 113 c 2
 340 84 339 57 344 41 c 0
 347 30 400 25 412 25 c 1
 416 20 417 2 412 -3 c 1
 372 -1 336 2 298 2 c 0
 260 2 222 -1 182 -3 c 1
 177 2 178 20 182 25 c 1
 194 25 247 30 250 41 c 0
 255 57 255 84 255 113 c 2
EndSplineSet
EndChar

StartChar: Z
Encoding: 90 90 57
Width: 618
Flags: W
HStem: 0 34<153 476> 611 34<150 449> 634 20G<71 84 508 551>
VStem: 42 36<480 531>
LayerCount: 2
Fore
SplineSet
211 611 m 2xd0
 145 611 99 563 78 483 c 1
 76 480 72 479 67 479 c 0
 58 479 45 484 42 487 c 1
 59 532 68 587 74 653 c 1xb0
 95 650 128 646 154 646 c 0
 344 646 l 2xd0
 426 646 467 649 549 655 c 1
 553 654 566 642 566 634 c 1xb0
 564 626 153 34 153 34 c 25
 408 34 l 2
 450 34 478 48 499 69 c 0
 527 97 540 137 551 165 c 0
 552 167 559 168 564 168 c 0
 574 168 584 163 588 159 c 1
 565 82 553 50 541 0 c 1
 541 0 240 0 52 0 c 0
 41 0 30 8 34 14 c 2
 449 611 l 1
 211 611 l 2xd0
EndSplineSet
EndChar

StartChar: bracketleft
Encoding: 91 91 58
Width: 252
Flags: W
HStem: -141 24<191 248> 683 24<191 248>
VStem: 77 47<-97 663>
LayerCount: 2
Fore
SplineSet
96 701 m 0
 176 701 245 707 245 707 c 1
 245 707 248 704 248 698 c 0
 248 692 244 685 238 683 c 0
 201 670 124 660 124 660 c 1
 124 -94 l 1
 124 -94 201 -103 238 -116 c 0
 244 -118 248 -126 248 -132 c 0
 248 -138 245 -141 245 -141 c 1
 245 -141 176 -135 96 -135 c 0
 78 -135 77 -113 77 -112 c 2
 77 679 l 2
 77 680 78 701 96 701 c 0
EndSplineSet
Substitution2: "'smcp' Lowercase to Small Capitals lookup 2-1" bracketleft.sc
EndChar

StartChar: backslash
Encoding: 92 92 59
Width: 391
Flags: W
VStem: 30 330
LayerCount: 2
Fore
SplineSet
30 732 m 1
 33 737 43 739 50 739 c 0
 61 739 74 732 77 724 c 2
 77 724 360 -11 360 -17 c 1
 359 -21 350 -27 338 -27 c 0
 331 -27 320 -21 317 -14 c 0
 209 268 116 511 30 732 c 1
EndSplineSet
Substitution2: "'smcp' Lowercase to Small Capitals lookup 2-1" backslash.sc
EndChar

StartChar: bracketright
Encoding: 93 93 60
Width: 253
Flags: W
HStem: -141 24<6 63> 683 24<6 63>
VStem: 130 47<-97 663>
LayerCount: 2
Fore
SplineSet
158 701 m 0
 176 701 177 680 177 679 c 2
 177 -112 l 2
 177 -113 176 -135 158 -135 c 0
 78 -135 9 -141 9 -141 c 1
 9 -141 6 -138 6 -132 c 0
 6 -126 10 -118 16 -116 c 0
 53 -103 130 -94 130 -94 c 1
 130 660 l 1
 130 660 53 670 16 683 c 0
 10 685 6 692 6 698 c 0
 6 704 9 707 9 707 c 1
 9 707 78 701 158 701 c 0
EndSplineSet
Substitution2: "'smcp' Lowercase to Small Capitals lookup 2-1" bracketright.sc
EndChar

StartChar: asciicircum
Encoding: 94 94 61
Width: 380
Flags: W
HStem: 413 217
VStem: 60 244
LayerCount: 2
Fore
SplineSet
182 630 m 0
 187 630 193 625 197 617 c 0
 236 540 262 502 304 429 c 1
 304 419 295 413 289 413 c 1
 244 460 182 539 182 539 c 25
 182 539 120 460 75 413 c 1
 69 413 60 419 60 429 c 1
 102 502 128 540 167 617 c 0
 171 625 177 630 182 630 c 0
EndSplineSet
Substitution2: "'smcp' Lowercase to Small Capitals lookup 2-1" asciicircum.sc
EndChar

StartChar: underscore
Encoding: 95 95 62
Width: 493
Flags: W
HStem: -42 55<18 465>
LayerCount: 2
Fore
SplineSet
14 -32 m 1
 14 -32 18 13 28 13 c 2
 467 13 l 2
 469 13 471 12 471 8 c 0
 471 -1 467 -15 461 -36 c 0
 459 -42 455 -42 455 -42 c 1
 21 -42 l 1
 21 -42 14 -42 14 -32 c 1
EndSplineSet
EndChar

StartChar: a
Encoding: 97 97 64
Width: 420
Flags: W
HStem: -8 53<135 207 316 379> 389 37<155 263>
VStem: 36 81<63 163> 51 79<288 345> 268 74<66 218 240 353>
LayerCount: 2
Fore
SplineSet
183 45 m 0xe8
 217 45 268 75 268 85 c 2
 268 218 l 17
 242 210 195 196 177 189 c 0
 142 175 117 150 117 113 c 0
 117 77 146 45 183 45 c 0xe8
235 426 m 0
 291 426 342 367 342 292 c 2
 342 91 l 2
 342 65 350 45 372 45 c 0
 390 45 401 56 404 58 c 1
 407 58 408 53 408 50 c 0
 408 44 406 36 403 31 c 1
 391 20 351 -6 330 -6 c 0
 302 -6 277 28 271 58 c 1
 259 46 184 -8 150 -8 c 0
 86 -8 36 41 36 104 c 0xe8
 36 144 64 175 85 183 c 0
 140 203 228 231 256 244 c 0
 266 248 268 251 268 269 c 2
 268 295 l 2
 268 339 232 389 184 389 c 0
 150 389 137 366 130 328 c 0
 124 295 108 281 84 281 c 0
 63 281 51 302 51 322 c 0xd8
 51 326 54 341 58 346 c 1
 88 374 164 426 235 426 c 0
EndSplineSet
Substitution2: "'smcp' Lowercase to Small Capitals lookup 2-1" a.sc
EndChar

StartChar: b
Encoding: 98 98 65
Width: 486
Flags: W
HStem: -7 33<179 287> 370 5<151 222> 613 25<4 61> 658 20G<124 147>
VStem: 70 75<52 344 375 607> 366 82<131 292>
LayerCount: 2
Fore
SplineSet
206 -7 m 0
 191 -7 155 2 134 8 c 0
 113 14 93 22 71 14 c 1
 66 14 58 30 58 35 c 1
 67 55 70 87 70 107 c 2
 70 545 l 2
 70 558 70 584 65 596 c 0
 59 610 32 613 5 613 c 1
 4 613 2 638 6 639 c 1
 55 644 104 659 145 678 c 1
 150 678 156 669 156 662 c 1
 156 662 145 631 145 577 c 2
 145 385 l 2
 145 380 145 370 151 375 c 0
 166 386 232 428 269 428 c 0
 386 428 448 317 448 228 c 0
 448 100 345 -7 206 -7 c 0
222 370 m 0
 197 370 159 353 150 344 c 0
 147 341 145 338 145 333 c 2
 145 96 l 2
 145 54 193 26 236 26 c 0
 306 26 366 110 366 189 c 0
 366 302 309 370 222 370 c 0
EndSplineSet
Substitution2: "'smcp' Lowercase to Small Capitals lookup 2-1" b.sc
EndChar

StartChar: c
Encoding: 99 99 66
Width: 413
Flags: W
HStem: -8 64<187 314> 385 43<189 283>
VStem: 38 76<129 282>
LayerCount: 2
Fore
SplineSet
373 377 m 0
 373 342 353 330 336 330 c 1
 315 330 296 355 279 366 c 0
 258 380 249 385 224 385 c 0
 172 385 114 325 114 222 c 0
 114 108 184 57 272 57 c 0
 326 57 363 91 376 106 c 1
 377 106 384 101 384 93 c 0
 384 88 381 80 378 75 c 0
 360 47 311 -8 235 -8 c 0
 117 -8 38 87 38 189 c 0
 38 332 173 428 275 428 c 0
 309 428 340 420 363 404 c 1
 367 400 373 387 373 377 c 0
EndSplineSet
Substitution2: "'smcp' Lowercase to Small Capitals lookup 2-1" c.sc
EndChar

StartChar: d
Encoding: 100 100 67
Width: 502
Flags: W
HStem: -8 61<188 283> 20 26<428 485> 387 41<192 320> 613 25<277 334> 658 20G<397 420>
VStem: 38 82<127 285> 343 75<69 366 418 607>
LayerCount: 2
Fore
SplineSet
271 428 m 0xbe
 292 428 328 422 338 418 c 1
 342 418 343 426 343 438 c 2
 343 545 l 2
 343 559 343 584 338 596 c 0
 332 610 305 613 278 613 c 1
 277 613 275 638 279 639 c 1
 328 644 377 659 418 678 c 1
 423 678 429 669 429 662 c 1
 429 662 418 631 418 577 c 2
 418 159 l 2
 418 121 419 77 425 63 c 0
 433 45 479 47 482 46 c 0
 484 45 485 37 485 34 c 0
 485 32 483 20 478 20 c 0x7e
 427 17 352 -8 351 -8 c 0
 345 -8 343 4 343 11 c 2
 343 45 l 2
 343 50 342 53 340 51 c 0
 325 35 257 -8 210 -8 c 0
 121 -8 38 82 38 201 c 0
 38 329 183 428 271 428 c 0xbe
239 387 m 0
 165 387 120 307 120 225 c 0
 120 133 169 53 258 53 c 0xbe
 302 53 343 76 343 92 c 2
 343 339 l 2
 343 361 294 387 239 387 c 0
EndSplineSet
Substitution2: "'smcp' Lowercase to Small Capitals lookup 2-1" d.sc
EndChar

StartChar: e
Encoding: 101 101 68
Width: 419
Flags: W
HStem: -8 62<188 314> 242 36<113 294> 393 35<168 259>
VStem: 39 69<139 242> 295 83<279 360>
LayerCount: 2
Fore
SplineSet
113 278 m 1
 122 278 262 278 272 278 c 0
 284 278 294 283 295 301 c 0
 296 324 275 393 215 393 c 0
 133 393 111 278 113 278 c 1
108 242 m 1
 105 117 182 55 268 55 c 0
 322 55 362 91 375 106 c 1
 376 106 383 101 383 93 c 0
 383 88 380 80 377 75 c 0
 359 47 310 -8 234 -8 c 0
 119 -8 39 80 39 195 c 0
 39 326 145 428 231 428 c 0
 348 428 378 334 378 295 c 0
 378 267 373 250 354 249 c 0
 324 247 120 242 108 242 c 1
EndSplineSet
Substitution2: "'smcp' Lowercase to Small Capitals lookup 2-1" e.sc
EndChar

StartChar: f
Encoding: 102 102 69
Width: 300
Flags: HW
HStem: -3 28<25 89 175 242> 382 40<40 94 169 288> 622 59<210 294>
VStem: 94 75<32 382 422 533>
LayerCount: 2
Fore
SplineSet
263 681 m 0
 292 681 294 679 309 669 c 1
 313 665 319 652 319 642 c 0
 319 607 293 603 280 603 c 0
 270 603 262 607 251 613 c 0
 240 619 236 622 223 622 c 0
 193 622 168 591 169 530 c 2
 169 409 l 1
 285 409 l 2
 290 409 289 404 289 398 c 0
 289 389 285 378 276 369 c 1
 169 369 l 1
 169 113 l 2
 169 84 169 57 174 41 c 0
 177 30 228 25 240 25 c 1
 244 20 245 2 240 -3 c 1
 200 -1 169 2 131 2 c 0
 93 2 68 -1 28 -3 c 1
 23 2 24 20 28 25 c 1
 40 25 86 30 89 41 c 0
 94 57 94 84 94 113 c 2
 94 369 l 1
 37 369 l 2
 34 369 33 375 33 378 c 0
 33 382 57 408 58 409 c 1
 74 409 83 409 94 409 c 1
 94 420 94 428 94 428 c 2
 94 570 203 681 263 681 c 0
EndSplineSet
Substitution2: "'smcp' Lowercase to Small Capitals lookup 2-1" f.sc
EndChar

StartChar: g
Encoding: 103 103 70
Width: 455
Flags: W
HStem: -222 38<154 288> -4 69<159 340> 134 29<173 258> 365 50<380 433> 399 29<167 254>
VStem: 22 77<-138 -59> 49 75<72 113 213 353> 301 75<211 357> 378 67<-101 -10>
LayerCount: 2
Fore
SplineSet
210 399 m 27xeb80
 154 399 124 341 124 285 c 27
 124 225 158 163 218 163 c 27
 272 163 301 220 301 274 c 27
 301 335 271 399 210 399 c 27xeb80
249 -4 m 0
 231 -4 165 -5 158 -9 c 0
 136 -22 100 -49 100 -74 c 0xe580
 100 -137 147 -184 230 -184 c 0
 297 -184 378 -133 378 -79 c 0
 378 -51 342 -4 249 -4 c 0
294 65 m 0
 371 65 445 18 445 -37 c 0
 445 -117 327 -221 191 -222 c 0
 112 -223 22 -183 22 -103 c 0xf580
 22 -60 93 -18 126 -1 c 1
 92 10 46 41 46 90 c 1
 63 110 112 145 130 156 c 1
 82 182 49 233 49 281 c 0
 49 358 120 429 214 429 c 0xeb80
 256 429 285 414 303 407 c 0
 322 400 316 402 325 400 c 1
 430 415 l 1
 437 413 439 409 439 405 c 0
 439 397 427 371 417 365 c 1xf380
 393 366 353 369 353 369 c 2
 350 369 349 368 349 366 c 1
 354 361 376 322 376 277 c 0
 376 209 305 134 211 134 c 0
 194 134 166 139 156 143 c 1
 138 133 120 116 120 100 c 0
 120 90 140 65 179 65 c 0
 243 65 251 65 294 65 c 0
EndSplineSet
Substitution2: "'smcp' Lowercase to Small Capitals lookup 2-1" g.sc
EndChar

StartChar: h
Encoding: 104 104 71
Width: 503
Flags: W
HStem: -3 28<18 82 168 231 282 345 432 495> 371 57<235 320> 613 25<22 78> 658 20G<142 165>
VStem: 87 75<32 339 354 607> 351 75<32 339>
LayerCount: 2
Fore
SplineSet
300 428 m 0
 405 428 426 363 426 221 c 2
 426 113 l 2
 426 84 426 57 431 41 c 0
 434 30 481 25 493 25 c 1
 497 20 498 2 493 -3 c 1
 453 -1 426 2 388 2 c 0
 350 2 325 -1 285 -3 c 1
 280 2 281 20 285 25 c 1
 297 25 343 30 346 41 c 0
 351 57 351 84 351 113 c 2
 351 211 l 2
 351 332 331 371 255 371 c 0
 219 371 162 326 162 317 c 2
 162 113 l 2
 162 84 162 57 167 41 c 0
 170 30 217 25 229 25 c 1
 233 20 234 2 229 -3 c 1
 189 -1 162 2 124 2 c 0
 86 2 61 -1 21 -3 c 1
 16 2 17 20 21 25 c 1
 33 25 79 30 82 41 c 0
 87 57 87 84 87 113 c 2
 87 545 l 2
 87 558 87 584 82 596 c 0
 76 610 50 613 23 613 c 1
 22 613 20 638 24 639 c 1
 73 644 121 659 162 678 c 1
 167 678 173 669 173 662 c 1
 173 662 162 631 162 577 c 2
 162 577 162 364 162 356 c 0
 162 355 163 354 165 354 c 0
 166 354 167 355 168 356 c 0
 188 377 253 428 300 428 c 0
EndSplineSet
Substitution2: "'smcp' Lowercase to Small Capitals lookup 2-1" h.sc
EndChar

StartChar: k
Encoding: 107 107 74
Width: 505
Flags: W
HStem: -3 28<18 82 168 231 432 501> 387 28<284 332 408 469> 613 25<22 78> 658 20G<142 165>
VStem: 87 75<32 199 229 607>
LayerCount: 2
Fore
SplineSet
162 113 m 2
 162 84 162 57 167 41 c 0
 170 30 217 25 229 25 c 1
 233 20 234 2 229 -3 c 1
 189 -1 162 2 124 2 c 0
 86 2 61 -1 21 -3 c 1
 16 2 17 20 21 25 c 1
 33 25 79 30 82 41 c 0
 87 57 87 84 87 113 c 2
 87 545 l 2
 87 559 87 584 82 596 c 0
 76 610 50 613 23 613 c 1
 22 613 20 638 24 639 c 1
 73 644 121 659 162 678 c 1
 167 678 173 669 173 662 c 1
 173 662 162 631 162 577 c 2
 162 229 l 1
 179 235 210 261 243 289 c 0
 294 332 332 360 332 370 c 0
 332 385 295 386 286 387 c 1
 281 394 282 413 287 415 c 1
 315 412 350 410 381 410 c 0
 414 410 446 412 467 415 c 1
 471 409 470 391 467 387 c 1
 453 387 413 379 392 364 c 0
 381 356 292 292 234 243 c 1
 307 164 387 72 410 52 c 0
 435 31 474 24 499 25 c 1
 501 22 503 7 500 2 c 1
 493 -1 463 -4 437 -4 c 0
 379 -4 332 23 317 39 c 2
 317 39 233 129 177 190 c 0
 173 195 162 199 162 199 c 1
 162 113 l 2
EndSplineSet
Substitution2: "'smcp' Lowercase to Small Capitals lookup 2-1" k.sc
EndChar

StartChar: l
Encoding: 108 108 75
Width: 249
Flags: W
HStem: -3 28<18 82 168 231> 613 25<22 78> 658 20G<142 165>
VStem: 87 75<32 607>
LayerCount: 2
Fore
SplineSet
87 545 m 2
 87 559 87 584 82 596 c 0
 76 610 50 613 23 613 c 1
 22 613 20 638 24 639 c 1
 73 644 121 659 162 678 c 1
 167 678 173 669 173 662 c 1
 173 662 162 631 162 577 c 2
 162 113 l 2
 162 84 162 57 167 41 c 0
 170 30 217 25 229 25 c 1
 233 20 234 2 229 -3 c 1
 189 -1 162 2 124 2 c 0
 86 2 61 -1 21 -3 c 1
 16 2 17 20 21 25 c 1
 33 25 79 30 82 41 c 0
 87 57 87 84 87 113 c 2
 87 545 l 2
EndSplineSet
Substitution2: "'smcp' Lowercase to Small Capitals lookup 2-1" l.sc
EndChar

StartChar: m
Encoding: 109 109 76
Width: 771
Flags: W
HStem: -3 28<33 96 183 246 291 354 440 504 549 612 698 762> 363 25<32 92> 371 57<243 330 501 587>
VStem: 102 75<32 343> 360 75<32 339> 617 75<32 340>
LayerCount: 2
Fore
SplineSet
312 428 m 0xbc
 370 428 407 406 423 347 c 1
 466 386 520 428 567 428 c 0
 672 428 693 363 693 221 c 2
 693 113 l 2
 693 84 693 57 698 41 c 0
 701 30 747 25 759 25 c 1
 763 20 764 2 759 -3 c 1
 719 -1 693 2 655 2 c 0
 617 2 591 -1 551 -3 c 1
 546 2 547 20 551 25 c 1
 563 25 610 30 613 41 c 0
 618 57 617 84 617 113 c 2
 617 218 l 2
 617 315 605 371 526 371 c 0
 478 371 430 322 430 315 c 0
 430 314 431 305 431 303 c 0
 434 284 435 251 435 233 c 2
 435 113 l 2
 435 84 435 57 440 41 c 0
 443 30 489 25 501 25 c 1
 505 20 506 2 501 -3 c 1
 461 -1 435 2 397 2 c 0
 359 2 333 -1 293 -3 c 1
 288 2 289 20 293 25 c 1
 305 25 352 30 355 41 c 0
 360 57 360 84 360 113 c 2
 360 213 l 2
 360 332 338 371 268 371 c 0xbc
 224 371 177 330 177 317 c 2
 177 113 l 2
 177 84 177 57 182 41 c 0
 185 30 231 25 243 25 c 1
 247 20 248 2 243 -3 c 1
 203 -1 177 2 139 2 c 0
 101 2 75 -1 35 -3 c 1
 30 2 31 20 35 25 c 1
 47 25 94 30 97 41 c 0
 102 57 102 84 102 113 c 2
 102 291 l 2
 102 304 102 334 97 346 c 0
 90 363 41 363 34 363 c 1
 32 365 30 384 34 389 c 1
 84 396 134 409 173 430 c 1
 178 430 184 419 184 414 c 1
 183 407 178 371 178 363 c 0xdc
 178 362 178 359 180 359 c 0
 181 359 182 360 183 361 c 0
 207 382 259 428 312 428 c 0xbc
EndSplineSet
Substitution2: "'smcp' Lowercase to Small Capitals lookup 2-1" m.sc
EndChar

StartChar: n
Encoding: 110 110 77
Width: 519
Flags: W
HStem: -3 28<33 96 183 246 297 360 446 510> 363 25<32 92> 371 57<250 334>
VStem: 102 75<32 339> 366 75<32 339>
LayerCount: 2
Fore
SplineSet
315 428 m 0xb8
 420 428 441 363 441 221 c 2
 441 113 l 2
 441 84 441 57 446 41 c 0
 449 30 495 25 507 25 c 1
 511 20 512 2 507 -3 c 1
 467 -1 441 2 403 2 c 0
 365 2 339 -1 299 -3 c 1
 294 2 295 20 299 25 c 1
 311 25 358 30 361 41 c 0
 366 57 366 84 366 113 c 2
 366 211 l 2
 366 332 346 371 270 371 c 0xb8
 234 371 177 326 177 317 c 2
 177 113 l 2
 177 84 177 57 182 41 c 0
 185 30 231 25 243 25 c 1
 247 20 248 2 243 -3 c 1
 203 -1 177 2 139 2 c 0
 101 2 75 -1 35 -3 c 1
 30 2 31 20 35 25 c 1
 47 25 94 30 97 41 c 0
 102 57 102 84 102 113 c 2
 102 291 l 2
 102 304 102 334 97 346 c 0
 90 363 41 363 34 363 c 1
 32 365 30 384 34 389 c 1xd8
 84 396 134 409 173 430 c 1
 178 430 184 419 184 414 c 1
 183 407 178 366 178 358 c 0
 178 357 178 354 180 354 c 0
 181 354 182 355 183 356 c 0
 203 377 268 428 315 428 c 0xb8
EndSplineSet
Substitution2: "'smcp' Lowercase to Small Capitals lookup 2-1" n.sc
EndChar

StartChar: o
Encoding: 111 111 78
Width: 497
Flags: W
HStem: -7 32<209 313> 396 32<185 289>
VStem: 40 84<118 306> 373 84<114 302>
LayerCount: 2
Fore
SplineSet
237 396 m 0
 154 396 124 312 124 228 c 0
 124 133 172 25 260 25 c 0
 343 25 373 110 373 193 c 0
 373 288 324 396 237 396 c 0
248 429 m 0
 377 429 457 338 457 216 c 0
 457 90 368 -7 250 -7 c 0
 121 -7 40 86 40 208 c 0
 40 334 130 429 248 429 c 0
EndSplineSet
Substitution2: "'smcp' Lowercase to Small Capitals lookup 2-1" o.sc
EndChar

StartChar: p
Encoding: 112 112 79
Width: 498
Flags: W
HStem: -221 28<15 79 165 228> -8 34<192 306> 363 25<14 74> 370 58<216 310>
VStem: 84 75<-186 3 51 354> 378 82<136 294>
LayerCount: 2
Fore
SplineSet
284 428 m 0xdc
 405 428 460 311 460 227 c 0
 460 101 342 -8 232 -8 c 0
 207 -8 179 -2 163 3 c 1
 163 3 159 -2 159 -10 c 2
 159 -104 l 2
 159 -133 159 -161 164 -177 c 0
 167 -188 214 -192 226 -192 c 1
 230 -197 231 -216 226 -221 c 1
 186 -219 159 -216 121 -216 c 0
 83 -216 58 -219 18 -221 c 1
 13 -216 14 -197 18 -192 c 1
 30 -192 76 -188 79 -177 c 0
 84 -161 84 -133 84 -104 c 2
 84 295 l 2
 84 308 84 334 79 346 c 0
 72 363 23 363 16 363 c 1
 14 365 12 384 16 389 c 1xec
 66 396 117 409 156 430 c 1
 161 430 166 419 166 414 c 1
 165 407 159 382 159 374 c 0
 159 373 159 370 161 370 c 0
 162 370 163 371 164 372 c 0
 188 393 245 428 284 428 c 0xdc
242 370 m 0xdc
 202 370 159 346 159 332 c 2
 159 98 l 2
 159 47 216 26 250 26 c 0
 331 26 378 111 378 190 c 0
 378 306 316 370 242 370 c 0xdc
EndSplineSet
Substitution2: "'smcp' Lowercase to Small Capitals lookup 2-1" p.sc
EndChar

StartChar: q
Encoding: 113 113 80
Width: 485
Flags: W
HStem: -222 28<272 335 422 485> -7 59<190 281> 393 35<202 309>
VStem: 38 82<126 283> 341 75<-187 49 67 368>
LayerCount: 2
Fore
SplineSet
250 393 m 0
 158 393 120 289 120 229 c 0
 120 114 182 52 263 52 c 0
 302 52 341 76 341 91 c 2
 341 324 l 2
 341 366 293 393 250 393 c 0
279 428 m 0
 308 428 364 403 396 403 c 0
 402 403 409 404 415 406 c 1
 421 406 428 390 428 385 c 1
 419 365 416 332 416 312 c 2
 416 -105 l 2
 416 -134 416 -162 421 -178 c 0
 424 -189 470 -193 482 -193 c 1
 486 -198 487 -217 482 -222 c 1
 442 -220 416 -217 378 -217 c 0
 340 -217 314 -220 274 -222 c 1
 269 -217 270 -198 274 -193 c 1
 286 -193 333 -189 336 -178 c 0
 341 -162 341 -134 341 -105 c 2
 341 39 l 2
 341 44 339 53 334 49 c 0
 319 36 254 -7 212 -7 c 0
 100 -7 38 107 38 194 c 0
 38 328 175 428 279 428 c 0
EndSplineSet
Substitution2: "'smcp' Lowercase to Small Capitals lookup 2-1" q.sc
EndChar

StartChar: r
Encoding: 114 114 81
Width: 374
Flags: W
HStem: -3 28<33 96 183 268> 352 75<246 306> 363 25<32 92>
VStem: 102 75<33 314 322 357>
LayerCount: 2
Fore
SplineSet
296 427 m 0xd0
 321 427 347 414 356 398 c 1
 358 392 360 383 360 372 c 0
 360 336 337 321 327 321 c 0
 313 321 302 333 291 340 c 0
 282 346 273 352 255 352 c 0xd0
 213 352 177 286 177 264 c 2
 177 113 l 2
 177 84 177 57 182 41 c 0
 185 30 254 25 266 25 c 1
 270 20 271 2 266 -3 c 1
 226 -1 183 2 145 2 c 0
 107 2 75 -1 35 -3 c 1
 30 2 31 20 35 25 c 1
 47 25 94 30 97 41 c 0
 102 57 102 84 102 113 c 2
 102 295 l 2
 102 308 102 334 97 346 c 0
 90 363 41 363 34 363 c 1
 32 365 30 384 34 389 c 1xb0
 84 396 134 409 173 430 c 1
 178 430 184 419 184 414 c 1
 183 407 177 335 177 324 c 0
 177 320 180 321 181 322 c 0
 200 364 252 427 296 427 c 0xd0
EndSplineSet
Substitution2: "'smcp' Lowercase to Small Capitals lookup 2-1" r.sc
EndChar

StartChar: s
Encoding: 115 115 82
Width: 360
Flags: W
HStem: -11 31<125 218> 396 30<144 230>
VStem: 40 26<84 115> 49 75<284 372> 242 79<54 141> 275 26<302 339>
LayerCount: 2
Fore
SplineSet
190 427 m 0xd8
 228 427 247 419 290 414 c 1
 297 384 301 342 302 307 c 0
 302 303 297 302 292 302 c 0
 287 302 280 303 275 307 c 1
 265 343 235 396 193 396 c 0
 146 396 124 370 124 335 c 0xd4
 124 284 165 269 209 243 c 0
 253 217 321 186 321 124 c 0
 321 45 250 -11 171 -11 c 0
 126 -11 100 0 57 8 c 1
 49 29 40 84 40 109 c 1
 44 112 53 115 58 115 c 0
 61 115 63 115 66 113 c 1xe8
 78 72 120 21 172 21 c 0
 212 21 242 46 242 91 c 0
 242 151 180 170 123 203 c 0
 84 225 49 256 49 308 c 0
 49 380 118 427 190 427 c 0xd8
EndSplineSet
Substitution2: "'smcp' Lowercase to Small Capitals lookup 2-1" s.sc
EndChar

StartChar: t
Encoding: 116 116 83
Width: 303
Flags: W
HStem: -7 53<172 246> 382 40<27 81 156 286>
VStem: 81 75<61 382 422 508>
LayerCount: 2
Fore
SplineSet
156 422 m 1
 282 422 l 2
 287 422 287 417 287 411 c 0
 287 402 282 391 273 382 c 1
 156 382 l 1
 156 126 l 2
 156 74 178 46 221 46 c 0
 250 46 277 63 284 68 c 1
 286 67 287 65 287 62 c 0
 287 56 284 48 283 47 c 0
 269 31 231 -7 183 -7 c 0
 133 -7 81 15 81 99 c 2
 81 382 l 1
 24 382 l 2
 21 382 20 388 20 391 c 0
 20 395 44 421 45 422 c 1
 61 422 70 422 81 422 c 1
 81 433 81 475 81 483 c 1
 100 504 139 546 141 549 c 1
 146 554 156 554 156 550 c 2
 156 422 l 1
EndSplineSet
Substitution2: "'smcp' Lowercase to Small Capitals lookup 2-1" t.sc
EndChar

StartChar: u
Encoding: 117 117 84
Width: 502
Flags: W
HStem: -7 55<191 279> 20 26<427 484> 385 25<14 65 277 327> 410 20G<132 152 395 415>
VStem: 79 75<90 377> 341 75<71 377>
LayerCount: 2
Fore
SplineSet
341 312 m 2x9c
 341 325 342 350 334 365 c 0
 324 383 292 385 279 385 c 1
 276 388 275 405 279 410 c 1xac
 329 412 378 419 413 430 c 1
 418 430 423 411 423 406 c 1
 419 398 417 371 417 343 c 2
 417 298 l 0
 417 138 l 2
 417 127 417 90 423 63 c 0
 428 44 478 47 481 46 c 0
 483 45 484 38 484 35 c 0
 484 33 481 20 476 20 c 0x5c
 425 17 350 -8 349 -8 c 0
 344 -8 341 1 341 8 c 2
 341 53 l 2
 341 58 339 58 339 58 c 1
 312 29 251 -7 201 -7 c 0
 97 -7 79 106 79 188 c 2
 79 312 l 2
 79 325 79 350 71 365 c 0
 61 383 29 385 16 385 c 1
 13 388 12 405 16 410 c 1xac
 66 412 115 419 150 430 c 1
 155 430 161 415 161 410 c 1
 157 402 154 371 154 343 c 2
 154 301 l 0
 154 199 l 2
 154 95 184 48 252 48 c 0
 295 48 341 79 341 102 c 2
 341 312 l 2x9c
EndSplineSet
Substitution2: "'smcp' Lowercase to Small Capitals lookup 2-1" u.sc
EndChar

StartChar: v
Encoding: 118 118 85
Width: 461
Flags: W
HStem: -11 21G<222 227> 392 28<1 52 146 197 288 339 413 461>
LayerCount: 2
Fore
SplineSet
100 415 m 0
 137 415 159 418 198 420 c 1
 200 414 199 392 194 392 c 1
 187 392 146 390 146 375 c 0
 146 374 146 373 147 371 c 0
 254 107 l 1
 254 107 304 237 341 329 c 0
 346 341 347 353 347 360 c 0
 347 380 323 392 290 392 c 1
 285 392 285 415 290 420 c 1
 320 418 329 415 369 415 c 0
 406 415 421 418 460 420 c 1
 464 414 461 392 457 392 c 1
 449 392 408 385 396 358 c 0
 338 220 306 145 249 6 c 0
 246 -2 230 -11 224 -11 c 0
 220 -11 216 -9 215 -7 c 0
 152 143 110 262 56 372 c 0
 46 393 14 392 2 392 c 1
 0 397 -2 410 2 420 c 1
 42 418 60 415 100 415 c 0
EndSplineSet
Substitution2: "'smcp' Lowercase to Small Capitals lookup 2-1" v.sc
EndChar

StartChar: w
Encoding: 119 119 86
Width: 704
Flags: W
HStem: -11 21G<220 227 469 475> 392 28<0 50 148 197 261 303 410 456 526 580 653 704>
VStem: 330 74<298 370>
LayerCount: 2
Fore
SplineSet
99 415 m 0
 136 415 158 418 197 420 c 1
 199 414 199 394 195 392 c 1
 187 392 146 390 146 369 c 0
 146 368 148 362 151 354 c 0
 163 323 196 243 251 114 c 1
 301 240 330 310 330 319 c 0
 330 326 320 354 307 373 c 0
 296 389 276 392 264 392 c 1
 259 395 259 415 264 420 c 1
 304 418 313 415 353 415 c 0
 390 415 415 418 454 420 c 1
 456 414 457 396 453 392 c 1
 423 392 405 383 405 360 c 0
 405 357 405 355 407 350 c 0
 415 324 442 256 496 117 c 1
 534 212 568 295 582 336 c 0
 586 347 587 355 587 359 c 0
 587 387 551 390 529 392 c 1
 525 395 524 415 529 420 c 1
 569 418 574 415 614 415 c 0
 651 415 664 418 703 420 c 1
 704 417 706 397 700 392 c 1
 692 392 646 385 634 356 c 0
 580 220 549 142 492 6 c 0
 489 -2 478 -11 472 -11 c 0
 466 -11 461 -9 460 -7 c 2
 352 275 l 1
 246 8 l 2
 245 5 233 -11 222 -11 c 0
 218 -11 214 -9 213 -7 c 0
 152 144 119 224 55 370 c 0
 46 391 14 392 2 392 c 1
 -1 398 -1 414 2 420 c 1
 42 418 59 415 99 415 c 0
EndSplineSet
Substitution2: "'smcp' Lowercase to Small Capitals lookup 2-1" w.sc
EndChar

StartChar: x
Encoding: 120 120 87
Width: 464
Flags: W
HStem: -3 28<11 75 145 197 255 297 403 458> 392 28<22 80 178 219 260 315 371 439>
LayerCount: 2
Fore
SplineSet
120 415 m 0
 160 415 197 418 219 420 c 1
 220 416 222 398 217 392 c 1
 201 392 178 390 178 375 c 0
 178 372 180 368 183 363 c 2
 247 261 l 1
 273 302 316 353 316 373 c 0
 316 393 268 391 262 392 c 1
 260 393 259 416 262 420 c 1
 302 418 320 415 360 415 c 0
 395 415 425 418 439 420 c 1
 440 415 440 392 438 392 c 1
 419 391 375 387 362 370 c 0
 327 321 274 245 265 234 c 1
 275 219 382 61 382 61 c 2
 402 33 429 25 457 25 c 1
 459 25 459 1 456 -3 c 1
 420 -1 400 2 364 2 c 0
 322 2 298 -1 256 -3 c 1
 253 4 254 25 257 25 c 1
 271 26 298 31 298 43 c 0
 298 45 297 47 296 49 c 2
 296 49 245 132 219 171 c 1
 200 143 175 108 148 65 c 0
 143 57 143 52 143 47 c 0
 143 28 174 27 196 25 c 1
 198 25 199 2 195 -3 c 1
 157 -1 141 2 103 2 c 0
 66 2 48 -1 11 -3 c 1
 9 5 10 20 13 25 c 1
 44 30 84 33 106 63 c 2
 106 63 196 194 201 201 c 1
 193 213 88 370 88 370 c 2
 77 386 42 392 22 392 c 1
 20 392 20 414 23 420 c 1
 55 417 82 415 120 415 c 0
EndSplineSet
Substitution2: "'smcp' Lowercase to Small Capitals lookup 2-1" x.sc
EndChar

StartChar: y
Encoding: 121 121 88
Width: 458
Flags: W
HStem: -223 70<43 131> 392 28<0 51 145 197 283 335 408 456>
LayerCount: 2
Fore
SplineSet
99 415 m 0
 136 415 180 418 197 420 c 1
 199 414 198 392 193 392 c 1
 186 392 145 390 145 375 c 0
 145 374 145 373 146 371 c 0
 250 107 l 1
 250 107 299 237 336 329 c 0
 341 341 342 353 342 360 c 0
 342 380 319 392 286 392 c 1
 281 392 281 415 286 420 c 1
 301 418 334 415 374 415 c 0
 411 415 436 418 456 420 c 1
 460 414 457 392 453 392 c 1
 445 392 403 385 391 358 c 0
 333 220 302 145 245 6 c 0
 221 -54 202 -116 167 -168 c 0
 145 -201 114 -223 82 -223 c 0
 63 -223 40 -216 40 -181 c 0
 40 -169 46 -158 51 -152 c 1
 97 -152 122 -150 162 -97 c 0
 177 -76 205 -9 208 2 c 1
 153 142 113 247 55 372 c 0
 45 393 13 392 1 392 c 1
 -1 392 -1 418 1 420 c 1
 20 418 59 415 99 415 c 0
EndSplineSet
Substitution2: "'smcp' Lowercase to Small Capitals lookup 2-1" y.sc
EndChar

StartChar: z
Encoding: 122 122 89
Width: 436
Flags: W
HStem: 0 34<133 327> 388 33<104 284> 409 20G<56 145 369 391>
VStem: 377 32<87 126>
LayerCount: 2
Fore
SplineSet
145 421 m 2xd0
 270 421 l 2xd0
 323 421 349 424 389 429 c 1xb0
 394 421 392 410 392 405 c 1
 392 405 133 37 133 34 c 1
 270 34 l 2
 330 34 365 80 377 122 c 0
 378 127 380 128 384 128 c 0
 392 128 404 122 409 116 c 1
 409 116 380 45 365 0 c 1
 308 0 176 0 48 0 c 1
 41 2 33 12 33 20 c 0
 33 21 33 25 34 26 c 2
 285 387 l 1
 148 388 l 2xd0
 92 388 82 337 74 319 c 0
 72 315 63 311 53 311 c 0
 47 311 42 311 42 313 c 1
 46 328 55 377 58 429 c 1xb0
 58 429 110 421 145 421 c 2xd0
EndSplineSet
Substitution2: "'smcp' Lowercase to Small Capitals lookup 2-1" z.sc
EndChar

StartChar: braceleft
Encoding: 123 123 90
Width: 216
Flags: W
VStem: 57 43<-55 69 494 618> 102 45<117 237 325 446>
LayerCount: 2
Fore
SplineSet
102 374 m 0
 102 399 90 423 79 447 c 0
 67 472 57 498 57 528 c 0
 57 623 119 686 161 703 c 1
 169 703 177 694 177 685 c 1
 151 672 100 625 100 575 c 0
 100 538 112 513 124 486 c 0
 136 462 147 435 147 396 c 0
 147 333 100 291 75 281 c 1
 100 271 147 230 147 167 c 0
 147 128 136 100 124 76 c 0
 112 49 100 24 100 -13 c 0
 100 -63 151 -109 177 -122 c 1
 177 -131 169 -141 161 -141 c 1
 119 -124 57 -61 57 34 c 0
 57 64 67 90 79 115 c 0
 90 139 102 163 102 188 c 0
 102 240 66 261 28 271 c 1
 27 273 25 277 25 281 c 0
 25 285 27 290 28 292 c 1
 66 302 102 322 102 374 c 0
EndSplineSet
Substitution2: "'smcp' Lowercase to Small Capitals lookup 2-1" braceleft.sc
EndChar

StartChar: bar
Encoding: 124 124 91
Width: 200
Flags: W
VStem: 75 50<-115 747>
LayerCount: 2
Fore
SplineSet
125 -104 m 2
 125 -112 82 -120 80 -120 c 0
 73 -120 75 -116 75 -112 c 2
 75 739 l 1
 75 739 74 745 80 747 c 0
 97 752 113 754 116 754 c 0
 125 754 124 748 124 748 c 1
 125 -104 l 2
EndSplineSet
Substitution2: "'smcp' Lowercase to Small Capitals lookup 2-1" bar.sc
EndChar

StartChar: braceright
Encoding: 125 125 92
Width: 217
Flags: W
VStem: 70 45<117 237 325 446> 117 43<-55 69 494 618>
LayerCount: 2
Fore
SplineSet
56 703 m 1
 98 686 160 623 160 528 c 0
 160 498 150 472 138 447 c 0
 127 423 115 399 115 374 c 0
 115 322 151 302 189 292 c 1
 190 290 191 285 191 281 c 0
 191 277 191 274 189 271 c 1
 151 261 115 240 115 188 c 0
 115 163 127 139 138 115 c 0
 150 90 160 64 160 34 c 0
 160 -61 98 -124 56 -141 c 1
 48 -141 40 -131 40 -122 c 1
 66 -109 117 -63 117 -13 c 0
 117 24 105 49 93 76 c 0
 81 100 70 128 70 167 c 0
 70 230 117 271 142 281 c 1
 117 291 70 333 70 396 c 0
 70 435 81 462 93 486 c 0
 105 513 117 538 117 575 c 0
 117 625 66 672 40 685 c 1
 40 694 48 703 56 703 c 1
EndSplineSet
Substitution2: "'smcp' Lowercase to Small Capitals lookup 2-1" braceright.sc
EndChar

StartChar: asciitilde
Encoding: 126 126 93
Width: 556
Flags: W
HStem: 244 50<307 462> 296 50<104 255>
LayerCount: 2
Fore
SplineSet
265 271 m 0
 231 284 196 296 152 296 c 0
 114 296 86 274 63 253 c 1
 57 256 55 262 55 270 c 0
 55 306 130 346 182 346 c 0
 228 346 263 332 298 319 c 0
 332 306 366 294 412 294 c 0
 450 294 472 315 500 337 c 1
 506 334 509 328 509 320 c 0
 509 288 445 244 384 244 c 0
 336 244 301 257 265 271 c 0
EndSplineSet
Substitution2: "'smcp' Lowercase to Small Capitals lookup 2-1" asciitilde.sc
EndChar

StartChar: exclamdown
Encoding: 161 161 95
Width: 209
Flags: W
HStem: 312 107<63 147>
VStem: 52 107<324 408> 58 92<-208 90>
LayerCount: 2
Fore
SplineSet
52 365 m 0xc0
 52 394 75 420 104 420 c 0
 133 420 159 394 159 365 c 0
 159 336 133 312 104 312 c 0
 75 312 52 336 52 365 c 0xc0
101 -218 m 0
 71 -218 58 -186 58 -161 c 0
 58 -134 70 -3 91 241 c 1
 95 249 97 253 106 254 c 1
 111 252 117 249 120 243 c 1
 134 86 149 -111 149 -161 c 0xa0
 149 -188 132 -218 101 -218 c 0
EndSplineSet
Substitution2: "'smcp' Lowercase to Small Capitals lookup 2-1" exclamdown.sc
EndChar

StartChar: cent
Encoding: 162 162 96
Width: 435
Flags: W
HStem: -8 64<193 320> 385 43<195 289>
VStem: 44 76<129 282> 185 27<-42 -1> 266 27<418 460>
LayerCount: 2
Fore
SplineSet
266 461 m 17
 274 461 293 462 293 455 c 1
 212 -44 l 1
 203 -44 185 -44 185 -37 c 9
 266 461 l 17
EndSplineSet
Refer: 66 99 N 1 0 0 1 6 0 2
EndChar

StartChar: sterling
Encoding: 163 163 97
Width: 465
UnlinkRmOvrlpSave: 1
Flags: W
HStem: -8 64<232 352> 48 55<97 175> 299 35<66 370> 576 45<231 324>
VStem: 122 75<337 497> 145 73<184 340> 417 13<125 132>
LayerCount: 2
Fore
SplineSet
307 621 m 0x7a
 341 621 354 614 377 598 c 1
 381 594 387 580 387 570 c 0
 387 535 367 523 350 523 c 1
 329 523 313 546 298 560 c 0
 283 574 277 576 264 576 c 0
 213 576 197 515 197 448 c 0x7a
 197 376 218 321 218 266 c 0
 218 193 155 117 131 95 c 1
 145 102 154 103 165 103 c 0x76
 219 103 232 57 319 57 c 0
 373 57 408 118 417 136 c 1
 418 136 430 128 430 120 c 0
 430 116 429 111 427 105 c 0
 416 74 360 -8 284 -8 c 0xb6
 201 -8 164 48 113 48 c 0
 83 48 76 10 59 -6 c 1
 51 -6 43 7 43 16 c 0
 43 44 77 77 92 92 c 0
 119 119 145 178 145 226 c 0x76
 145 247 123 359 122 390 c 0
 118 523 215 621 307 621 c 0x7a
76 334 m 1
 92 334 361 334 372 334 c 1
 386 323 369 303 363 299 c 1
 54 299 l 17
 48 305 67 334 76 334 c 1
EndSplineSet
EndChar

StartChar: currency
Encoding: 164 164 98
Width: 560
Flags: W
HStem: 117 31<240 333> 452 32<225 318>
VStem: 100 71<220 388> 386 70<213 382>
LayerCount: 2
Fore
SplineSet
287 148 m 0
 347 148 386 214 386 287 c 0
 386 377 333 452 271 452 c 0
 211 452 171 385 171 312 c 0
 171 222 225 148 287 148 c 0
389 444 m 1
 446 498 l 2
 454 506 479 478 486 455 c 1
 428 400 l 1
 446 371 456 336 456 300 c 0
 456 261 445 224 424 194 c 1
 477 138 l 2
 485 130 457 105 434 98 c 1
 383 151 l 1
 354 130 318 117 279 117 c 0
 237 117 198 132 168 156 c 1
 116 107 l 2
 108 99 83 127 76 150 c 1
 129 200 l 1
 110 229 100 264 100 300 c 0
 100 343 114 382 137 413 c 1
 86 468 l 2
 78 476 106 501 129 508 c 1
 180 454 l 1
 208 474 242 484 279 484 c 0
 321 484 359 469 389 444 c 1
EndSplineSet
EndChar

StartChar: yen
Encoding: 165 165 99
Width: 656
UnlinkRmOvrlpSave: 1
Flags: W
HStem: -3 28<219 288 384 453> 135 36<208 470> 213 36<208 470> 597 28<26 81 225 277 419 485 567 628>
VStem: 294 85<32 292>
LayerCount: 2
Fore
SplineSet
218 171 m 1
 234 171 462 171 473 171 c 1
 487 160 470 139 464 135 c 1
 198 135 l 17
 192 141 209 171 218 171 c 1
218 249 m 1
 234 249 462 249 473 249 c 1
 487 238 470 217 464 213 c 1
 198 213 l 17
 192 219 209 249 218 249 c 1
294 113 m 2
 294 239 l 0
 294 246 292 257 287 267 c 16
 230 370 206 410 148 514 c 0
 127 550 111 565 84 581 c 0
 67 591 41 597 29 597 c 0
 24 597 24 620 29 625 c 1
 77 623 103 620 151 620 c 0
 199 620 237 623 276 625 c 1
 278 619 279 597 274 597 c 0
 260 597 216 590 216 565 c 0
 216 557 219 549 227 536 c 2
 363 304 l 1
 411 390 479 524 492 557 c 0
 493 560 495 565 495 571 c 0
 495 577 477 596 422 596 c 1
 419 596 418 621 420 624 c 1
 456 622 484 619 520 619 c 0
 571 619 589 622 628 624 c 1
 630 618 629 596 626 596 c 1
 618 596 561 596 539 557 c 0
 502 492 427 350 385 272 c 8
 379 261 380 251 380 242 c 0
 380 183 379 113 379 113 c 2
 379 84 379 57 384 41 c 0
 387 30 439 25 451 25 c 1
 455 20 456 2 451 -3 c 1
 411 -1 375 2 337 2 c 0
 299 2 261 -1 221 -3 c 1
 216 2 217 20 221 25 c 1
 233 25 286 30 289 41 c 0
 294 57 294 84 294 113 c 2
EndSplineSet
EndChar

StartChar: brokenbar
Encoding: 166 166 100
Width: 208
Flags: W
VStem: 80 50<-116 251 380 747>
LayerCount: 2
Fore
SplineSet
130 391 m 2
 130 383 87 376 85 376 c 0
 78 376 80 380 80 384 c 2
 80 739 l 1
 80 739 79 745 85 747 c 0
 102 752 119 752 122 752 c 0
 131 752 130 746 130 746 c 1
 130 391 l 2
80 -112 m 2
 80 243 l 1
 80 243 79 249 85 251 c 0
 102 256 119 256 122 256 c 0
 131 256 130 250 130 250 c 1
 130 -105 l 2
 130 -113 87 -120 85 -120 c 0
 78 -120 80 -116 80 -112 c 2
EndSplineSet
EndChar

StartChar: section
Encoding: 167 167 101
Width: 430
UnlinkRmOvrlpSave: 1
Flags: W
HStem: -76 49<110 233> 589 49<199 322>
VStem: 37 53<345 459> 117 45<482 538> 270 45<24 80> 342 53<103 217>
LayerCount: 2
Fore
SplineSet
297 638 m 0
 188 638 117 573 117 495 c 0
 117 425 185 370 232 327 c 0
 285 278 342 213 342 132 c 0
 342 89 324 69 303 32 c 0
 303 32 280 14 270 -3 c 24
 264 -14 266 -22 264 -34 c 17
 301 -9 395 103 395 175 c 0
 395 259 332 327 281 374 c 0
 235 416 162 491 162 536 c 0
 162 573 211 589 241 589 c 0
 256 589 264 585 272 581 c 0
 282 576 291 569 308 569 c 0
 324 569 343 590 343 604 c 0
 343 610 342 620 337 630 c 1
 323 636 311 638 297 638 c 0
135 -76 m 0
 244 -76 314 -12 314 66 c 0
 314 136 246 191 199 234 c 0
 146 283 90 349 90 430 c 0
 90 473 108 492 129 529 c 0
 129 529 152 547 162 564 c 24
 168 575 166 584 168 596 c 17
 131 571 37 459 37 387 c 0
 37 303 99 235 150 188 c 0
 196 146 270 70 270 25 c 0
 270 -12 220 -27 190 -27 c 0
 175 -27 167 -24 159 -20 c 0
 149 -15 141 -8 124 -8 c 0
 108 -8 89 -29 89 -43 c 0
 89 -49 90 -58 95 -68 c 1
 109 -74 121 -76 135 -76 c 0
EndSplineSet
EndChar

StartChar: copyright
Encoding: 169 169 103
Width: 643
Flags: W
HStem: 67 30<242 402> 190 31<289 407> 438 33<283 395> 570 30<242 402>
VStem: 55 32<251 417> 183 56<265 400> 559 30<254 414>
LayerCount: 2
Fore
SplineSet
445 270 m 1
 445 267 433 212 426 209 c 0
 395 196 363 190 322 190 c 0
 243 190 183 251 183 328 c 0
 183 406 239 472 320 472 c 0
 349 472 397 466 430 453 c 1
 430 453 445 398 445 394 c 0
 445 389 437 385 430 385 c 0
 427 385 425 386 423 387 c 1
 420 400 401 438 332 438 c 0
 279 438 238 391 238 337 c 0
 238 258 296 222 341 222 c 0
 370 222 398 228 411 240 c 0
 423 251 424 272 426 272 c 0
 429 272 444 272 445 270 c 1
87 334 m 0
 87 204 192 98 322 98 c 0
 452 98 559 204 559 334 c 0
 559 464 452 570 322 570 c 0
 192 570 87 464 87 334 c 0
55 334 m 0
 55 481 174 601 321 601 c 0
 468 601 589 481 589 334 c 0
 589 187 468 67 321 67 c 0
 174 67 55 187 55 334 c 0
EndSplineSet
EndChar

StartChar: ordfeminine
Encoding: 170 170 104
Width: 336
Flags: W
HStem: 243 36<112 169 239 288> 514 29<123 186>
VStem: 46 56<287 365> 56 55<445 488> 206 52<293 396 412 501>
LayerCount: 2
Fore
SplineSet
147 279 m 0xe8
 170 279 206 305 206 312 c 2
 206 396 l 17
 187 390 156 381 144 376 c 0
 120 366 102 352 102 327 c 0
 102 302 122 279 147 279 c 0xe8
184 543 m 0
 222 543 258 503 258 451 c 2
 258 312 l 2
 258 293 262 279 278 279 c 0
 290 279 299 287 301 288 c 1
 303 288 304 285 304 283 c 0
 304 279 302 274 300 271 c 1
 292 263 264 244 249 244 c 0
 229 244 212 267 208 288 c 1
 200 280 148 243 125 243 c 0
 80 243 46 277 46 321 c 0xe8
 46 348 65 369 80 375 c 0
 118 389 178 409 198 418 c 0
 205 421 206 423 206 435 c 2
 206 453 l 2
 206 483 185 514 148 514 c 0
 125 514 115 502 110 476 c 0
 106 453 96 443 79 443 c 0
 64 443 56 458 56 472 c 0xd8
 56 475 58 485 61 488 c 1
 82 508 134 543 184 543 c 0
EndSplineSet
EndChar

StartChar: guillemotleft
Encoding: 171 171 105
Width: 470
Flags: HW
LayerCount: 2
Fore
SplineSet
202 240 m 0
 202 250 203 249 207 258 c 1
 335 335 410 412 411 413 c 1
 427 408 431 404 433 401 c 1
 427 380 333 281 288 241 c 1
 333 201 427 102 433 81 c 1
 431 78 427 74 411 69 c 1
 410 70 335 148 207 225 c 1
 205 228 202 234 202 240 c 0
26 240 m 0
 26 250 27 249 31 258 c 1
 159 335 234 412 235 413 c 1
 251 408 255 404 257 401 c 1
 251 380 157 281 112 241 c 1
 157 201 251 102 257 81 c 1
 255 78 251 74 235 69 c 1
 234 70 159 148 31 225 c 1
 29 228 26 234 26 240 c 0
EndSplineSet
EndChar

StartChar: logicalnot
Encoding: 172 172 106
Width: 573
Flags: W
HStem: 355 55<48 445>
VStem: 445 59<155 355>
LayerCount: 2
Fore
SplineSet
504 410 m 17
 504 165 l 17
 503 164 478 150 458 150 c 0
 458 150 448 151 445 157 c 1
 445 178 445 278 445 355 c 9
 50 355 l 1
 50 355 44 355 44 365 c 1
 44 365 49 410 59 410 c 2
 504 410 l 17
EndSplineSet
EndChar

StartChar: registered
Encoding: 174 174 107
Width: 643
Flags: W
HStem: 130 31<242 402> 266 14<199 229 279 309 439 467> 393 18<277 307> 523 16<200 229 279 333> 633 31<242 402>
VStem: 55 32<314 481> 231 46<287 393 411 519> 357 47<421 514> 559 30<317 478>
LayerCount: 2
Fore
SplineSet
315 540 m 0
 353 540 404 515 404 468 c 0
 404 438 378 410 350 400 c 1
 372 364 393 336 420 303 c 0
 433 288 444 282 467 280 c 1
 469 278 466 267 466 266 c 1
 438 266 408 268 400 271 c 0
 394 273 383 276 373 289 c 0
 367 297 330 348 304 388 c 0
 302 392 298 393 292 393 c 0
 292 393 281 393 277 393 c 1
 277 317 l 1
 277 305 277 294 279 287 c 0
 280 282 303 280 308 280 c 1
 310 278 310 268 308 266 c 1
 291 267 271 268 255 268 c 0
 239 268 218 267 201 266 c 1
 199 268 199 278 201 280 c 1
 206 280 228 282 229 287 c 0
 231 294 231 304 231 317 c 2
 231 490 l 2
 231 502 231 513 229 520 c 0
 228 525 206 527 201 527 c 1
 199 529 199 539 201 541 c 1
 218 540 241 539 257 539 c 0
 273 539 291 540 315 540 c 0
357 458 m 0
 357 495 346 523 300 523 c 0
 295 523 281 523 279 519 c 0
 277 514 277 501 277 488 c 2
 277 411 l 1
 277 411 288 411 295 411 c 16
 330 411 357 426 357 458 c 0
87 397 m 0
 87 267 192 161 322 161 c 0
 452 161 559 267 559 397 c 0
 559 527 452 633 322 633 c 0
 192 633 87 527 87 397 c 0
55 397 m 0
 55 544 174 664 321 664 c 0
 468 664 589 544 589 397 c 0
 589 250 468 130 321 130 c 0
 174 130 55 250 55 397 c 0
EndSplineSet
EndChar

StartChar: degree
Encoding: 176 176 109
Width: 267
Flags: W
HStem: 427 36<92 176> 583 36<92 176>
VStem: 37 36<481 565> 193 36<481 565>
LayerCount: 2
Fore
SplineSet
73 523 m 0
 73 490 101 463 134 463 c 0
 167 463 193 490 193 523 c 0
 193 556 167 583 134 583 c 0
 101 583 73 556 73 523 c 0
37 523 m 0
 37 576 81 619 134 619 c 0
 187 619 229 576 229 523 c 0
 229 470 187 427 134 427 c 0
 81 427 37 470 37 523 c 0
EndSplineSet
EndChar

StartChar: plusminus
Encoding: 177 177 110
Width: 535
Flags: W
HStem: 6 55<38 498> 298 55<38 239 294 498>
VStem: 239 55<92 298 353 555>
LayerCount: 2
Fore
SplineSet
48 61 m 1
 126 61 447 61 493 61 c 0
 497 61 502 57 502 49 c 0
 502 33 494 14 486 6 c 1
 39 6 l 1
 39 6 33 6 33 16 c 0
 33 20 38 53 48 61 c 1
48 353 m 1
 239 353 l 9
 239 353 239 529 239 548 c 1
 255 554 274 559 281 559 c 0
 291 559 294 553 294 553 c 1
 294 353 l 25
 372 353 415 353 493 353 c 16
 497 353 502 349 502 341 c 0
 502 325 494 306 486 298 c 1
 294 298 l 25
 294 298 294 176 294 101 c 1
 282 92 262 90 252 90 c 0
 245 90 239 95 239 99 c 2
 239 298 l 25
 39 298 l 1
 39 298 33 298 33 308 c 0
 33 312 38 345 48 353 c 1
EndSplineSet
EndChar

StartChar: uni00B2
Encoding: 178 178 111
Width: 349
Flags: W
HStem: 248 54<118 277> 588 44<106 206>
VStem: 222 63<461 572>
LayerCount: 2
Fore
SplineSet
313 352 m 1
 302 324 291 280 277 248 c 1
 50 248 l 1
 44 248 36 256 38 260 c 1
 77 303 135 354 175 408 c 0
 202 445 222 482 222 518 c 0
 222 559 199 588 158 588 c 0
 114 588 91 561 73 540 c 1
 69 536 55 552 56 557 c 1
 78 596 124 632 169 632 c 0
 237 632 285 589 285 527 c 0
 285 495 270 464 241 429 c 0
 215 398 165 350 118 302 c 1
 236 302 l 2
 276 302 288 344 294 354 c 0
 295 356 296 356 299 357 c 0
 302 357 310 356 313 352 c 1
EndSplineSet
EndChar

StartChar: uni00B3
Encoding: 179 179 112
Width: 310
Flags: W
HStem: 243 27<105 183> 593 38<100 176>
VStem: 188 55<502 583> 212 62<305 419>
LayerCount: 2
Fore
SplineSet
158 631 m 0xe0
 199 631 243 606 243 556 c 0xe0
 243 513 208 485 187 475 c 1
 212 475 274 441 274 377 c 0
 274 291 200 243 115 243 c 0
 94 243 60 249 50 258 c 1
 50 258 38 268 38 281 c 0
 38 301 52 313 68 313 c 0
 85 313 92 297 104 285 c 0
 114 275 127 271 142 271 c 0
 183 271 212 299 212 359 c 0xd0
 212 407 178 443 142 443 c 0
 124 443 108 437 103 436 c 1
 101 438 99 442 98 446 c 0
 97 450 97 454 98 456 c 1
 146 466 188 495 188 543 c 0
 188 568 164 593 139 593 c 0
 103 593 76 563 70 557 c 1
 65 559 61 571 62 572 c 1
 76 593 106 631 158 631 c 0xe0
EndSplineSet
EndChar

StartChar: mu
Encoding: 181 181 114
Width: 528
Flags: W
HStem: -222 21G<123 134> -9 71<163 244 401 459> 407 20G<110 121 347 357>
VStem: 93 75<244 413> 93 42<106 292> 329 75<244 413>
LayerCount: 2
Fore
SplineSet
141 218 m 0xf4
 141 141 155 62 190 62 c 0
 255 62 305 152 329 222 c 1
 329 245 329 269 329 291 c 0
 329 304 330 370 329 407 c 1
 334 415 341 427 353 427 c 0
 363 427 404 404 404 391 c 0
 404 373 396 327 382 240 c 0
 380 230 372 190 372 190 c 1
 372 121 395 64 440 64 c 0
 465 64 483 85 490 94 c 1
 493 94 496 90 499 85 c 0
 501 81 502 77 502 74 c 0
 489 31 450 -4 411 -4 c 0
 364 -3 350 113 348 139 c 1
 319 71 264 -9 196 -9 c 0
 155 -9 140 70 135 99 c 1xec
 137 75 130 -87 151 -202 c 1
 146 -210 140 -222 128 -222 c 0
 118 -222 76 -199 76 -186 c 0
 76 -168 85 97 97 199 c 1
 97 222 93 269 93 291 c 0
 93 304 94 370 93 407 c 1
 98 415 104 427 116 427 c 0
 126 427 168 404 168 391 c 0
 168 373 165 327 146 240 c 0
 145 234 141 218 141 218 c 0xf4
EndSplineSet
EndChar

StartChar: paragraph
Encoding: 182 182 115
Width: 472
Flags: W
HStem: -4 26<153 210 363 422> 2 33<262 311> 281 39<259 313> 292 39<354 382> 597 36<259 314> 609 28<361 415>
VStem: 33 226<383 543> 221 38<42 280> 314 39<42 285 331 596>
LayerCount: 2
Fore
SplineSet
314 325 m 1x2980
 314 360 314 579 314 592 c 1
 310 596 296 597 286 597 c 0
 276 597 265 597 259 591 c 9
 259 591 259 420 259 320 c 1
 265 320 310 322 314 325 c 1x2980
313 285 m 17
 299 284 275 282 259 281 c 9
 259 216 259 178 259 113 c 16
 259 84 259 57 262 41 c 0
 263 34 282 35 286 35 c 0x6180
 293 35 311 35 312 41 c 0
 315 57 314 84 314 113 c 2
 313 285 l 17
353 292 m 1x1680
 353 223 353 182 353 113 c 16
 353 84 352 57 357 41 c 0
 360 30 409 22 421 22 c 1
 423 22 423 -2 421 -4 c 1x9680
 359 -2 352 2 290 2 c 0x4280
 245 2 193 -2 154 -4 c 1
 152 2 151 18 156 22 c 1
 164 22 213 30 216 41 c 0
 221 57 221 84 221 113 c 2
 221 280 l 17x8180
 96 280 33 390 33 458 c 0
 33 564 120 637 200 637 c 0
 258 637 237 633 295 633 c 0x8a80
 360 633 413 638 413 638 c 1
 418 633 417 612 412 609 c 1
 397 609 361 602 356 590 c 0
 354 583 354 577 354 527 c 0
 354 467 354 350 354 331 c 1
 359 330 401 344 401 344 c 1
 406 344 411 342 411 338 c 0
 410 328 390 305 383 302 c 0
 372 297 361 293 353 292 c 1x1680
EndSplineSet
EndChar

StartChar: periodcentered
Encoding: 183 183 116
Width: 218
Flags: W
HStem: 200 114<66 153>
VStem: 53 113<213 302>
LayerCount: 2
Fore
SplineSet
53 258 m 0
 53 289 78 314 109 314 c 0
 140 314 166 289 166 258 c 0
 166 227 140 200 109 200 c 0
 78 200 53 227 53 258 c 0
EndSplineSet
EndChar

StartChar: uni00B9
Encoding: 185 185 118
Width: 285
Flags: W
HStem: 247 24<56 113 203 253>
VStem: 120 72<287 555>
LayerCount: 2
Fore
SplineSet
120 506 m 2
 120 551 113 556 102 556 c 0
 90 556 67 547 47 540 c 1
 41 543 38 551 38 557 c 0
 38 560 39 563 41 564 c 0
 145 607 185 637 188 637 c 2
 189 637 l 2
 195 637 200 617 201 614 c 1
 201 614 192 573 192 535 c 2
 192 332 l 2
 192 312 193 302 200 286 c 0
 203 279 243 272 251 272 c 1
 254 272 254 251 251 247 c 1
 213 248 195 250 157 250 c 0
 119 250 98 248 60 247 c 1
 55 250 55 271 60 271 c 0
 72 271 111 278 114 285 c 0
 119 298 120 320 120 330 c 2
 120 506 l 2
EndSplineSet
EndChar

StartChar: ordmasculine
Encoding: 186 186 119
Width: 378
Flags: W
HStem: 241 23<160 233> 518 23<146 222>
VStem: 37 67<315 467> 274 67<316 469>
LayerCount: 2
Fore
SplineSet
183 518 m 0
 126 518 104 456 104 401 c 0
 104 337 135 265 199 265 c 0
 253 265 274 328 274 382 c 0
 274 445 246 518 183 518 c 0
191 541 m 0
 276 541 342 475 342 394 c 0
 342 313 276 241 191 241 c 0
 106 241 37 309 37 390 c 0
 37 473 104 541 191 541 c 0
EndSplineSet
EndChar

StartChar: guillemotright
Encoding: 187 187 120
Width: 470
Flags: HW
LayerCount: 2
Fore
SplineSet
271 240 m 0
 271 234 268 228 266 225 c 1
 138 148 63 70 62 69 c 1
 46 74 42 78 40 81 c 1
 46 102 140 201 185 241 c 1
 140 281 46 380 40 401 c 1
 42 404 46 408 62 413 c 1
 63 412 138 335 266 258 c 1
 270 249 271 250 271 240 c 0
446 240 m 0
 446 234 443 228 441 225 c 1
 313 148 238 70 237 69 c 1
 221 74 218 78 216 81 c 1
 222 102 315 201 360 241 c 1
 315 281 222 380 216 401 c 1
 218 404 221 408 237 413 c 1
 238 412 313 335 441 258 c 1
 445 249 446 250 446 240 c 0
EndSplineSet
EndChar

StartChar: onequarter
Encoding: 188 188 121
Width: 682
Flags: W
HStem: 104 44<432 543 604 637> 245 21<50 96 180 228>
VStem: 109 61<282 542> 543 58<-3 104 147 298>
LayerCount: 2
Fore
SplineSet
592 397 m 0
 598 397 601 391 601 386 c 8
 601 291 601 233 601 143 c 1
 608 143 625 143 635 143 c 1
 644 135 649 118 641 104 c 1
 627 104 610 104 604 104 c 9
 604 0 l 1
 602 -2 588 -3 574 -3 c 0
 561 -3 548 -2 543 2 c 9
 543 104 l 1
 382 104 l 1
 377 105 373 108 372 119 c 1
 572 386 l 2
 576 391 584 397 592 397 c 0
543 147 m 9
 543 147 543 289 543 298 c 1
 503 247 476 204 432 147 c 1
 439 147 535 147 543 147 c 9
170 521 m 2
 170 328 l 2
 170 308 172 295 177 280 c 0
 179 273 218 267 226 267 c 1
 231 262 228 247 227 245 c 1
 189 246 181 248 143 248 c 0
 105 248 91 246 53 245 c 1
 48 248 49 263 53 267 c 1
 65 267 99 274 102 281 c 0
 107 294 109 316 109 326 c 2
 109 508 l 2
 109 527 103 542 93 542 c 0
 82 542 66 534 46 527 c 1
 40 530 35 539 33 545 c 1
 52 557 82 574 165 623 c 1
 172 621 178 614 178 607 c 1
 178 607 170 559 170 521 c 2
182 -12 m 0
 172 -10 171 -4 171 -4 c 1
 512 621 l 1
 513 623 525 632 542 629 c 0
 548 628 550 622 550 619 c 1
 213 2 l 2
 210 -4 198 -15 182 -12 c 0
EndSplineSet
EndChar

StartChar: onehalf
Encoding: 189 189 122
Width: 732
Flags: W
HStem: -1 54<505 663> 245 21<53 99 183 231> 339 44<493 592>
VStem: 112 61<282 542> 608 63<212 323>
LayerCount: 2
Fore
SplineSet
556 383 m 0
 624 383 672 340 672 278 c 0
 672 246 656 215 627 180 c 0
 601 149 552 101 505 53 c 1
 622 53 l 2
 662 53 675 95 681 105 c 0
 682 107 683 107 686 108 c 0
 689 108 696 107 699 103 c 1
 688 75 677 31 663 -1 c 1
 437 -1 l 1
 431 -1 423 7 425 11 c 1
 462 51 515 98 554 148 c 0
 586 188 608 230 608 269 c 0
 608 310 585 339 544 339 c 0
 500 339 477 312 459 291 c 1
 455 287 441 303 442 308 c 1
 464 347 511 383 556 383 c 0
173 521 m 2
 173 328 l 2
 173 308 175 295 180 280 c 0
 182 273 221 267 229 267 c 1
 234 262 230 247 229 245 c 1
 191 246 184 248 146 248 c 0
 108 248 94 246 56 245 c 1
 51 248 52 263 56 267 c 1
 68 267 101 274 104 281 c 0
 109 294 112 316 112 326 c 2
 112 508 l 2
 112 527 106 542 96 542 c 0
 85 542 69 534 49 527 c 1
 43 530 38 539 36 545 c 1
 55 557 85 574 168 623 c 1
 175 621 181 614 181 607 c 1
 181 607 173 559 173 521 c 2
551 619 m 1
 214 2 l 2
 211 -4 199 -15 183 -12 c 0
 173 -10 172 -4 172 -4 c 1
 513 621 l 1
 514 623 526 632 543 629 c 0
 549 628 551 622 551 619 c 1
EndSplineSet
EndChar

StartChar: threequarters
Encoding: 190 190 123
Width: 683
Flags: W
HStem: 104 44<433 544 604 638> 243 27<101 179> 593 38<96 172>
VStem: 185 55<502 583> 208 62<305 419> 544 58<-3 104 147 298>
LayerCount: 2
Fore
SplineSet
593 397 m 0xe4
 599 397 602 391 602 386 c 8
 602 291 602 233 602 143 c 1
 609 143 626 143 636 143 c 1
 645 135 650 118 642 104 c 1
 628 104 610 104 604 104 c 9
 604 0 l 1
 602 -2 589 -3 575 -3 c 0
 562 -3 549 -2 544 2 c 9
 544 104 l 1
 383 104 l 1
 378 105 374 108 373 119 c 1
 573 386 l 2
 577 391 585 397 593 397 c 0xe4
544 147 m 9
 544 147 544 289 544 298 c 1
 504 247 477 204 433 147 c 1
 440 147 536 147 544 147 c 9
154 631 m 0
 195 631 239 606 239 556 c 0xf4
 239 513 204 485 183 475 c 1
 208 475 271 441 271 377 c 0
 271 291 196 243 111 243 c 0
 90 243 56 249 46 258 c 1
 46 258 34 268 34 281 c 0
 34 301 48 313 64 313 c 0
 81 313 88 297 100 285 c 0
 110 275 123 271 138 271 c 0
 179 271 208 299 208 359 c 0xec
 208 407 174 443 138 443 c 0
 120 443 104 437 99 436 c 1
 97 438 95 442 94 447 c 0
 93 450 93 454 94 456 c 1
 142 466 185 495 185 543 c 0xf4
 185 568 160 593 135 593 c 0
 99 593 72 563 66 557 c 1
 61 559 57 571 58 572 c 1
 72 593 102 631 154 631 c 0
556 619 m 1
 219 2 l 2
 216 -4 204 -15 188 -12 c 0
 178 -10 176 -4 176 -4 c 1
 518 621 l 1
 519 623 531 632 548 629 c 0
 554 628 556 622 556 619 c 1
EndSplineSet
EndChar

StartChar: questiondown
Encoding: 191 191 124
Width: 336
Flags: W
HStem: -218 92<164 280> -218 71<155 261> 312 107<185 269>
VStem: 40 49<-114 -13> 174 107<324 408> 221 28<174 254>
LayerCount: 2
Fore
SplineSet
281 365 m 0x38
 281 336 256 312 227 312 c 0
 198 312 174 336 174 365 c 0
 174 394 198 420 227 420 c 0
 256 420 281 394 281 365 c 0x38
249 243 m 1xb4
 254 222 257 180 257 154 c 0
 257 82 210 56 174 33 c 0
 126 3 89 -19 89 -66 c 0
 89 -117 124 -146 161 -146 c 0x78
 213 -146 220 -126 245 -126 c 0
 259 -126 288 -143 288 -175 c 0
 288 -190 284 -204 279 -211 c 1
 269 -216 253 -218 232 -218 c 0
 168 -218 40 -151 40 -37 c 0
 40 29 66 70 139 112 c 0
 165 128 209 162 215 173 c 0
 224 189 221 219 221 241 c 1
 225 249 227 253 236 254 c 1
 241 252 246 249 249 243 c 1xb4
EndSplineSet
Substitution2: "'smcp' Lowercase to Small Capitals lookup 2-1" questiondown.sc
EndChar

StartChar: AE
Encoding: 198 198 131
Width: 875
Flags: W
HStem: -3 28<-15 34 124 183 347 403> 0 33<509 727> 251 37<260 420> 305 36<503 676> 398 20G<715 722> 609 32<348 392 507 725>
VStem: 420 83<43 249 290 303 341 553> 704 31<225 283 363 418> 772 31<511 558>
LayerCount: 2
Fore
SplineSet
462 0 m 0x7f80
 397 0 349 -3 349 -3 c 1
 345 2 347 25 349 25 c 1
 361 25 408 36 413 48 c 1
 419 70 420 115 420 132 c 10
 420 249 l 17
 402 250 357 251 333 251 c 0
 293 251 279 249 234 246 c 0
 232 246 229 243 229 243 c 1
 229 243 187 174 157 126 c 0
 137 96 118 64 118 51 c 0
 118 28 173 25 181 25 c 1
 184 22 185 3 183 -3 c 1
 144 -1 131 2 88 2 c 0
 43 2 32 -1 -13 -3 c 1
 -16 0 -16 18 -13 25 c 1xbf80
 -1 25 28 35 42 44 c 0
 66 60 95 102 115 134 c 2
 386 570 l 2
 389 575 393 583 393 590 c 0
 393 608 361 614 349 614 c 1
 344 620 347 641 349 643 c 1
 349 643 397 642 462 642 c 0
 554 642 669 648 775 648 c 1
 782 599 795 560 804 516 c 1
 801 513 793 511 786 511 c 0
 779 511 773 513 772 518 c 0
 751 596 711 609 659 609 c 2
 575 609 l 0
 563 609 511 609 508 599 c 0
 503 583 503 555 503 529 c 2
 503 347 l 2
 503 342 524 341 545 341 c 2
 597 341 l 2
 691 341 687 347 704 411 c 0
 705 416 712 418 719 418 c 0
 726 418 732 416 735 413 c 1
 735 229 l 1
 733 227 727 225 720 225 c 0
 713 225 706 227 704 232 c 0
 689 288 686 291 677 297 c 0
 666 304 610 305 573 305 c 0
 546 305 503 305 503 296 c 2
 503 110 l 2
 503 95 503 48 509 43 c 0
 522 33 537 33 578 33 c 2
 625 33 l 2
 671 33 721 43 748 60 c 0
 779 79 794 116 810 158 c 0
 811 162 816 164 823 164 c 0
 833 164 845 161 848 158 c 1
 829 105 802 39 795 -4 c 1
 689 -4 592 0 462 0 c 0x7f80
420 290 m 9
 420 553 l 17
 399 521 260 293 260 293 c 1
 260 293 259 289 261 289 c 0
 286 288 316 288 338 288 c 0
 368 288 401 289 420 290 c 9
EndSplineSet
EndChar

StartChar: Eth
Encoding: 208 208 141
Width: 693
Flags: W
HStem: -3 31<42 112 209 382> 304 36<46 358> 611 31<44 113 206 368>
VStem: 117 86<42 608> 547 97<193 438>
LayerCount: 2
Fore
SplineSet
356 304 m 1
 328 304 62 304 48 304 c 1
 44 304 43 331 49 340 c 1
 77 340 342 340 356 340 c 1
 360 340 360 313 356 304 c 1
EndSplineSet
Refer: 35 68 N 1 0 0 1 0 0 3
EndChar

StartChar: multiply
Encoding: 215 215 148
Width: 453
Flags: W
HStem: 399 20G<73 79 375 381>
LayerCount: 2
Fore
SplineSet
194 241 m 1
 54 382 l 1
 54 396 68 419 77 419 c 0
 80 419 82 419 84 417 c 2
 84 417 227 278 229 276 c 9
 371 417 l 2
 372 418 374 419 377 419 c 0
 386 419 398 390 398 380 c 1
 398 380 265 247 262 244 c 1
 263 243 398 103 398 103 c 1
 398 88 388 63 377 63 c 0
 375 63 371 64 370 65 c 2
 370 65 228 208 227 209 c 1
 225 207 81 64 81 64 c 2
 80 63 77 62 75 62 c 0
 66 62 54 93 54 103 c 1
 54 103 190 237 194 241 c 1
EndSplineSet
Substitution2: "'smcp' Lowercase to Small Capitals lookup 2-1" multiply.sc
EndChar

StartChar: Oslash
Encoding: 216 216 149
Width: 730
Flags: W
HStem: -10 33<305 455> 618 33<274 427> 632 20G<539 556>
VStem: 48 97<209 437> 586 97<205 433>
LayerCount: 2
Fore
SplineSet
552 651 m 17xb8
 561 649 584 636 580 630 c 9
 172 -13 l 17
 163 -10 140 4 144 10 c 9
 552 651 l 17xb8
EndSplineSet
Refer: 46 79 N 1 0 0 1 0 0 3
EndChar

StartChar: Thorn
Encoding: 222 222 155
Width: 535
Flags: W
HStem: -3 28<42 111 207 276> 125 27<246 338> 459 38<220 352> 618 28<42 111 207 276>
VStem: 117 85<32 429 469 612> 416 90<228 396>
LayerCount: 2
Fore
SplineSet
160 642 m 0
 198 642 234 644 274 646 c 1
 279 641 278 623 274 618 c 1
 262 618 209 614 206 603 c 0
 201 587 202 559 202 530 c 2
 202 469 l 17
 238 494 300 497 317 497 c 0
 396 497 506 434 506 321 c 0
 506 202 419 125 291 125 c 0
 280 125 259 128 249 133 c 0
 246 135 235 142 235 154 c 0
 235 156 236 160 240 159 c 1
 251 156 262 152 277 152 c 0
 355 152 416 207 416 305 c 0
 416 402 361 459 281 459 c 0
 269 459 224 453 209 430 c 0
 202 419 202 381 202 352 c 0
 202 113 l 2
 202 84 201 57 206 41 c 0
 209 30 262 25 274 25 c 1
 278 20 279 2 274 -3 c 1
 234 -1 198 2 160 2 c 0
 122 2 84 -1 44 -3 c 1
 39 2 40 20 44 25 c 1
 56 25 109 30 112 41 c 0
 117 57 117 84 117 113 c 2
 117 530 l 2
 117 559 117 587 112 603 c 0
 109 614 56 618 44 618 c 1
 40 623 39 641 44 646 c 1
 84 644 122 642 160 642 c 0
EndSplineSet
EndChar

StartChar: germandbls
Encoding: 223 223 156
Width: 524
Flags: W
HStem: -10 30<28 83 181 240 339 410> 382 40<40 94> 645 32<216 318>
VStem: 94 75<32 382 422 533> 242 57<307 368> 360 73<477 610> 433 66<55 149>
LayerCount: 2
Fore
SplineSet
261 677 m 0xfc
 353 677 433 640 433 548 c 0xfc
 433 499 405 465 375 437 c 0
 338 404 298 380 298 351 c 0
 298 311 348 283 394 259 c 0
 440 235 499 201 499 134 c 0
 499 57 444 -10 370 -10 c 0
 310 -10 265 15 255 32 c 1
 255 36 256 41 256 45 c 0
 258 71 265 89 288 89 c 0
 306 89 315 67 328 48 c 0
 338 33 350 21 372 21 c 0
 407 21 433 51 433 100 c 0xfa
 433 144 394 165 351 188 c 0
 299 216 242 245 242 317 c 0
 242 358 281 383 314 420 c 0
 339 447 360 482 360 536 c 0
 360 599 326 645 264 645 c 0
 177 645 169 544 169 464 c 0
 169 113 l 2
 169 84 169 57 174 41 c 0
 177 30 228 25 240 25 c 1
 244 20 245 2 240 -3 c 1
 200 -1 169 2 131 2 c 0
 93 2 68 -1 28 -3 c 1
 23 2 24 20 28 25 c 1
 40 25 86 30 89 41 c 0
 94 57 94 84 94 113 c 2
 94 382 l 1
 37 382 l 2
 34 382 33 388 33 391 c 0
 33 395 57 421 58 422 c 1
 74 422 83 422 94 422 c 1
 94 423 94 424 94 428 c 0
 94 547 183 677 261 677 c 0xfc
EndSplineSet
Substitution2: "'smcp' Lowercase to Small Capitals lookup 2-1" germandbls.sc
EndChar

StartChar: ae
Encoding: 230 230 163
Width: 637
Flags: W
HStem: -8 62<405 531> -8 53<135 206> 242 36<331 512> 393 35<162 254 384 476>
VStem: 36 81<63 163> 51 79<288 346> 259 67<139 215> 513 83<279 360>
LayerCount: 2
Fore
SplineSet
177 189 m 0x7b
 142 176 117 150 117 113 c 0
 117 77 146 45 183 45 c 0
 218 45 272 73 272 102 c 1
 264 119 258 158 255 188 c 0
 254 199 253 209 253 215 c 1
 228 206 194 195 177 189 c 0x7b
433 393 m 0
 351 393 329 278 331 278 c 1
 340 278 480 278 490 278 c 0
 502 278 512 283 513 301 c 0
 514 324 493 393 433 393 c 0
449 428 m 0
 566 428 596 334 596 295 c 0
 596 267 591 250 572 249 c 0
 542 247 338 242 326 242 c 1
 323 117 399 55 485 55 c 0
 539 55 580 91 593 106 c 1
 594 106 601 101 601 93 c 0
 601 88 598 80 595 75 c 0
 577 47 528 -8 452 -8 c 0xb7
 392 -8 324 19 291 75 c 1
 268 51 184 -8 150 -8 c 0
 86 -8 36 41 36 104 c 0x7b
 36 144 59 170 81 182 c 0
 128 205 215 237 243 250 c 0
 253 254 255 256 257 264 c 0
 259 273 259 283 259 295 c 0
 259 339 232 389 184 389 c 0
 150 389 137 365 130 327 c 0
 124 294 108 281 84 281 c 0
 63 281 51 302 51 322 c 0x77
 51 330 55 342 58 346 c 1
 81 368 162 426 233 426 c 0
 275 426 307 396 324 365 c 1
 347 390 393 428 449 428 c 0
EndSplineSet
Substitution2: "'smcp' Lowercase to Small Capitals lookup 2-1" ae.sc
EndChar

StartChar: eth
Encoding: 240 240 173
Width: 504
UnlinkRmOvrlpSave: 1
Flags: W
HStem: -7 32<203 306> 396 32<178 293> 648 23<84 104>
VStem: 39 84<114 309> 366 85<125 324>
LayerCount: 2
Fore
SplineSet
338 683 m 17
 346 678 362 658 355 652 c 9
 125 497 l 17
 118 502 101 522 108 528 c 9
 338 683 l 17
229 396 m 0
 151 396 123 312 123 222 c 0
 123 126 174 25 253 25 c 0
 330 25 366 101 366 197 c 0
 366 251 358 300 347 321 c 0
 320 373 282 396 229 396 c 0
241 429 m 0
 269 429 304 425 324 413 c 1
 302 471 261 574 79 648 c 1
 79 655 85 672 93 672 c 1
 178 653 270 594 339 514 c 0
 405 437 451 341 451 241 c 3
 451 83 353 -7 250 -7 c 0
 117 -7 39 89 39 206 c 0
 39 311 105 429 241 429 c 0
EndSplineSet
Substitution2: "'smcp' Lowercase to Small Capitals lookup 2-1" eth.sc
EndChar

StartChar: divide
Encoding: 247 247 180
Width: 584
Flags: W
HStem: 5 98<254 336> 214 55<64 524> 379 98<254 336>
VStem: 246 98<13 94 387 468>
LayerCount: 2
Fore
SplineSet
64 214 m 17
 64 214 59 214 59 224 c 0
 59 228 64 261 75 269 c 9
 248 269 346 269 519 269 c 16
 523 269 527 265 527 257 c 0
 527 241 520 222 512 214 c 1
 64 214 l 17
EndSplineSet
Refer: 339 775 N 1 0 0 1 544 -481 2
Refer: 339 775 N 1 0 0 1 544 -107 2
Substitution2: "'smcp' Lowercase to Small Capitals lookup 2-1" divide.sc
EndChar

StartChar: oslash
Encoding: 248 248 181
Width: 497
Flags: W
HStem: -8 21G<122 138> -7 32<210 314> 396 32<186 290> 407 20G<351 367>
VStem: 41 84<118 306> 374 84<114 302>
LayerCount: 2
Fore
SplineSet
126 -8 m 17x9c
 118 -4 97 7 100 13 c 9
 363 427 l 17
 370 424 393 413 390 407 c 9
 126 -8 l 17x9c
EndSplineSet
Refer: 78 111 N 1 0 0 1 1 0 3
Substitution2: "'smcp' Lowercase to Small Capitals lookup 2-1" oslash.sc
EndChar

StartChar: thorn
Encoding: 254 254 187
Width: 483
Flags: W
HStem: -221 28<1 64 150 214> -8 34<177 291> 370 58<201 295> 613 25<4 61> 658 20G<124 147>
VStem: 70 75<-186 3 51 354 370 607> 364 82<136 294>
LayerCount: 2
Fore
SplineSet
269 428 m 0
 390 428 446 311 446 227 c 0
 446 101 327 -8 217 -8 c 0
 192 -8 165 -2 149 3 c 1
 149 3 145 -2 145 -10 c 2
 145 -104 l 2
 145 -133 145 -161 150 -177 c 0
 153 -188 199 -192 211 -192 c 1
 215 -197 216 -216 211 -221 c 1
 171 -219 145 -216 107 -216 c 0
 69 -216 43 -219 3 -221 c 1
 -2 -216 -1 -197 3 -192 c 1
 15 -192 62 -188 65 -177 c 0
 70 -161 70 -133 70 -104 c 2
 70 545 l 2
 70 559 70 584 65 596 c 0
 59 610 32 613 5 613 c 1
 4 613 2 638 6 639 c 1
 55 644 104 659 145 678 c 1
 150 678 156 669 156 662 c 1
 156 662 145 631 145 577 c 2
 145 577 145 383 145 375 c 0
 145 374 145 370 147 370 c 0
 148 370 149 371 150 372 c 0
 174 393 230 428 269 428 c 0
227 370 m 0
 187 370 145 346 145 332 c 2
 145 98 l 2
 145 47 202 26 236 26 c 0
 317 26 364 111 364 190 c 0
 364 306 301 370 227 370 c 0
EndSplineSet
Substitution2: "'smcp' Lowercase to Small Capitals lookup 2-1" thorn.sc
EndChar

StartChar: Aogonek
Encoding: 260 260 193
Width: 612
Flags: W
HStem: -218 58<450 522> -3 28<-13 42 127 188 394 451 569 617> 247 38<195 370> 628 20G<314 320>
VStem: 393 53<-156 -81>
LayerCount: 2
Fore
SplineSet
616 -3 m 1
 588 -2 570 0 546 1 c 1
 503 -25 446 -75 446 -118 c 0
 446 -133 453 -160 486 -160 c 0
 536 -160 559 -123 565 -123 c 0
 566 -123 570 -128 570 -136 c 0
 570 -141 568 -149 565 -153 c 0
 544 -181 506 -218 462 -218 c 0
 407 -218 393 -169 393 -143 c 0
 393 -89 449 -31 502 2 c 1
 501 2 501 2 500 2 c 0
 461 2 437 -1 396 -3 c 1
 391 2 392 20 397 25 c 1
 409 25 442 30 451 38 c 0
 454 41 455 46 455 52 c 0
 455 81 389 242 389 242 c 1
 389 242 386 246 383 246 c 0
 358 248 310 247 286 247 c 0
 246 247 225 247 181 244 c 0
 179 244 176 241 176 241 c 1
 176 241 148 169 132 122 c 16
 120 88 118 66 118 53 c 0
 119 30 178 25 186 25 c 1
 189 22 190 3 188 -3 c 1
 149 -1 135 2 93 2 c 0
 48 2 33 -1 -12 -3 c 1
 -15 0 -15 18 -12 25 c 1
 0 25 37 31 47 44 c 0
 67 69 79 101 93 136 c 2
 93 136 221 467 281 619 c 1
 286 629 310 647 319 647 c 0
 322 647 321 646 324 645 c 1
 523 123 l 0
 537 86 546 63 548 59 c 0
 558 36 607 25 615 25 c 1
 620 18 617 0 616 -3 c 1
284 529 m 1
 195 291 l 1
 195 291 195 287 197 287 c 0
 222 286 263 285 285 285 c 0
 315 285 337 286 367 288 c 0
 369 288 370 293 370 293 c 1
 284 529 l 1
EndSplineSet
EndChar

StartChar: aogonek
Encoding: 261 261 194
Width: 420
Flags: W
HStem: -218 58<262 334> -8 53<135 207> 389 37<155 263>
VStem: 36 81<63 163> 51 79<288 345> 205 53<-156 -85> 268 74<66 218 240 353>
LayerCount: 2
Fore
SplineSet
183 45 m 0xf6
 217 45 268 75 268 85 c 2
 268 218 l 17
 242 210 195 196 177 189 c 0
 142 175 117 150 117 113 c 0
 117 77 146 45 183 45 c 0xf6
271 58 m 1
 259 46 184 -8 150 -8 c 0
 86 -8 36 41 36 104 c 0xf6
 36 144 64 175 85 183 c 0
 140 203 228 231 256 244 c 0
 266 248 268 251 268 269 c 2
 268 295 l 2
 268 339 232 389 184 389 c 0
 150 389 137 366 130 328 c 0
 124 295 108 281 84 281 c 0
 63 281 51 302 51 322 c 0xee
 51 326 54 341 58 346 c 1
 88 374 164 426 235 426 c 0
 291 426 342 367 342 292 c 2
 342 91 l 2
 342 65 350 45 372 45 c 0
 390 45 401 56 404 58 c 1
 407 58 408 53 408 50 c 0
 408 44 406 36 403 31 c 1
 393 24 380 15 368 7 c 0
 331 -19 258 -65 258 -118 c 0
 258 -133 265 -160 298 -160 c 0
 348 -160 371 -123 377 -123 c 0
 378 -123 382 -128 382 -136 c 0
 382 -141 380 -149 377 -153 c 0
 356 -181 318 -218 274 -218 c 0
 219 -218 205 -169 205 -143 c 0
 205 -100 259 -36 306 1 c 1
 289 11 273 35 271 58 c 1
EndSplineSet
Substitution2: "'smcp' Lowercase to Small Capitals lookup 2-1" aogonek.sc
EndChar

StartChar: dcroat
Encoding: 273 273 206
Width: 502
Flags: W
HStem: -8 61<188 283> 20 26<428 485> 387 41<192 320> 513 34<209 478> 613 25<277 334> 658 20<397 420>
VStem: 38 82<127 285> 343 75<69 366 418 607>
LayerCount: 2
Fore
SplineSet
214 547 m 1x3f
 242 547 459 547 473 547 c 0
 477 547 479 543 479 539 c 3
 479 534 477 521 473 513 c 1
 445 513 227 513 213 513 c 0
 209 513 208 520 208 524 c 3
 208 529 210 540 214 547 c 1x3f
EndSplineSet
Refer: 67 100 N 1 0 0 1 0 0 3
Substitution2: "'smcp' Lowercase to Small Capitals lookup 2-1" dcroat.sc
EndChar

StartChar: Eogonek
Encoding: 280 280 213
Width: 573
Flags: W
HStem: -219 58<375 447> -3 28<42 111> 0 33<208 419> 305 36<202 375> 398 20G<414 421> 609 32<205 424> 618 28<42 111>
VStem: 117 85<43 303 341 606> 318 53<-157 -84> 403 31<225 283 363 418> 471 31<511 558>
LayerCount: 2
Fore
SplineSet
160 642 m 0x9de0
 252 642 368 648 474 648 c 1
 481 599 493 560 502 516 c 1
 499 513 492 511 485 511 c 0
 478 511 472 513 471 518 c 0
 450 596 410 609 358 609 c 2
 274 609 l 0
 262 609 209 609 206 599 c 0
 201 583 202 555 202 529 c 2
 202 347 l 2
 202 342 223 341 244 341 c 2
 295 341 l 2
 389 341 386 347 403 411 c 0
 404 416 410 418 417 418 c 0
 424 418 431 416 434 413 c 1
 434 229 l 1
 432 227 425 225 418 225 c 0
 411 225 405 227 403 232 c 0
 388 288 384 291 375 297 c 0
 364 304 309 305 272 305 c 0
 245 305 202 305 202 296 c 2
 202 110 l 2
 202 95 201 48 207 43 c 0
 220 33 236 33 277 33 c 2
 324 33 l 2
 370 33 420 43 447 60 c 0
 478 79 492 116 508 158 c 0
 509 162 515 164 522 164 c 0
 532 164 543 161 546 158 c 1
 527 105 501 39 494 -4 c 1
 436 -4 371 -77 371 -119 c 0
 371 -134 378 -161 411 -161 c 0
 461 -161 484 -124 490 -124 c 0
 491 -124 494 -129 494 -137 c 0
 494 -142 493 -150 490 -154 c 0
 469 -182 432 -219 388 -219 c 0
 333 -219 318 -170 318 -144 c 0
 318 -94 371 -37 420 -3 c 1
 340 -2 291 0 161 0 c 0xbde0
 115 0 82 -3 44 -3 c 1
 39 2 40 20 44 25 c 1
 56 25 109 30 112 41 c 0
 117 57 117 84 117 113 c 2
 117 530 l 2
 117 559 117 587 112 603 c 0
 109 614 56 618 44 618 c 1
 40 623 39 641 44 646 c 1xdbe0
 84 644 122 642 160 642 c 0x9de0
EndSplineSet
EndChar

StartChar: eogonek
Encoding: 281 281 214
Width: 420
Flags: W
HStem: -219 58<239 311> -8 62<188 292> 242 36<113 294> 393 35<168 259>
VStem: 39 69<139 242> 182 53<-157 -79> 295 83<279 360>
LayerCount: 2
Fore
SplineSet
330 25 m 0
 281 -16 234 -62 234 -119 c 0
 234 -134 241 -161 274 -161 c 0
 324 -161 348 -124 354 -124 c 0
 355 -124 357 -129 357 -137 c 0
 357 -142 357 -150 354 -154 c 0
 333 -182 295 -219 251 -219 c 0
 196 -219 182 -170 182 -144 c 0
 182 -105 219 -45 258 -6 c 1
 251 -7 242 -8 234 -8 c 0
 119 -8 39 80 39 195 c 0
 39 326 145 428 231 428 c 0
 348 428 378 334 378 295 c 0
 378 267 373 250 354 249 c 0
 324 247 120 242 108 242 c 1
 105 117 182 55 268 55 c 0
 322 55 362 91 375 106 c 0
 376 106 383 101 383 93 c 0
 383 88 380 80 377 75 c 0
 369 61 351 42 330 25 c 0
113 278 m 0
 122 278 262 278 272 278 c 0
 284 278 294 283 295 301 c 0
 296 324 275 393 215 393 c 0
 133 393 111 278 113 278 c 0
EndSplineSet
Substitution2: "'smcp' Lowercase to Small Capitals lookup 2-1" eogonek.sc
EndChar

StartChar: Hbar
Encoding: 294 294 227
Width: 708
Flags: W
HStem: -3 31<42 112 206 276 433 503 598 668> 317 33<203 508> 459 37<79 629> 615 31<42 112 206 276 433 503 598 668>
VStem: 117 85<35 311 354 609> 508 85<35 313 354 609>
LayerCount: 2
Fore
SplineSet
84 459 m 0
 80 459 79 467 79 472 c 3
 79 478 79 487 85 496 c 1
 624 496 l 0
 628 496 629 488 629 483 c 3
 629 477 629 468 623 459 c 1
 595 459 98 459 84 459 c 0
EndSplineSet
Refer: 39 72 N 1 0 0 1 0 0 3
EndChar

StartChar: hbar
Encoding: 295 295 228
Width: 503
Flags: W
HStem: -3 28<18 82 168 231 282 345 432 495> 371 57<235 320> 513 34<23 292> 613 25<22 78> 658 20<142 165>
VStem: 87 75<32 339 354 607> 351 75<32 339>
LayerCount: 2
Fore
SplineSet
28 547 m 1
 56 547 273 547 287 547 c 0
 291 547 293 543 293 539 c 3
 293 534 291 521 287 513 c 1
 259 513 41 513 27 513 c 0
 23 513 22 520 22 524 c 3
 22 529 24 540 28 547 c 1
EndSplineSet
Refer: 71 104 N 1 0 0 1 0 0 3
Substitution2: "'smcp' Lowercase to Small Capitals lookup 2-1" hbar.sc
EndChar

StartChar: Iogonek
Encoding: 302 302 235
Width: 320
Flags: W
HStem: -219 58<124 195> -3 28<41 104 224 277> 618 28<41 103 218 277>
VStem: 66 53<-157 -85> 117 85<36 607>
LayerCount: 2
Fore
SplineSet
162 642 m 0xe8
 205 642 236 644 275 646 c 1
 276 643 277 637 277 632 c 0
 277 626 276 618 273 618 c 0
 265 618 214 609 211 598 c 0
 204 572 202 542 202 507 c 2
 202 136 l 2xe8
 202 101 204 71 211 45 c 0
 214 34 265 25 273 25 c 0
 276 25 277 17 277 11 c 0
 277 6 276 0 275 -3 c 1
 257 -2 240 -1 224 0 c 1
 181 -25 119 -76 119 -119 c 0
 119 -134 126 -161 159 -161 c 0
 209 -161 232 -124 238 -124 c 0
 239 -124 242 -129 242 -137 c 0
 242 -142 241 -150 238 -154 c 0
 217 -182 180 -219 136 -219 c 0
 81 -219 66 -170 66 -144 c 0xf0
 66 -91 128 -32 180 2 c 1
 174 2 169 2 162 2 c 0
 117 2 90 -1 45 -3 c 1
 43 -1 41 6 41 12 c 0
 41 18 43 25 45 25 c 0
 57 25 105 33 110 45 c 1
 116 67 117 114 117 132 c 2
 117 511 l 2
 117 529 116 576 110 598 c 1
 105 610 57 618 45 618 c 0
 43 618 41 625 41 631 c 0
 41 637 43 644 45 646 c 1
 90 644 117 642 162 642 c 0xe8
EndSplineSet
EndChar

StartChar: dotlessi
Encoding: 305 305 238
Width: 263
Flags: W
HStem: -3 28<33 96 183 246> 363 25<32 92> 410 20G<154 176>
VStem: 102 75<32 357>
LayerCount: 2
Fore
SplineSet
177 317 m 0
 177 113 l 2
 177 84 177 57 182 41 c 0
 185 30 231 25 243 25 c 1
 247 20 248 2 243 -3 c 1
 203 -1 177 2 139 2 c 0
 101 2 75 -1 35 -3 c 1
 30 2 31 20 35 25 c 1
 47 25 94 30 97 41 c 0
 102 57 102 84 102 113 c 2
 102 295 l 2
 102 308 102 334 97 346 c 0
 90 363 41 363 34 363 c 1
 32 365 30 384 34 389 c 1
 84 396 134 409 173 430 c 1
 178 430 184 419 184 414 c 1
 183 407 177 360 177 350 c 2
 177 317 l 0
EndSplineSet
Substitution2: "'smcp' Lowercase to Small Capitals lookup 2-1" dotlessi.sc
EndChar

StartChar: kgreenlandic
Encoding: 312 312 245
Width: 520
Flags: W
HStem: -3 28<33 96 183 246 446 515> 363 25<32 92> 387 28<298 347 422 484> 410 20G<154 176>
VStem: 102 75<32 199 229 357>
LayerCount: 2
Fore
SplineSet
177 350 m 2xd8
 177 229 l 1
 194 235 224 261 257 289 c 0
 308 332 347 360 347 370 c 0
 347 385 309 386 300 387 c 1
 295 394 297 413 302 415 c 1xa8
 330 412 365 410 396 410 c 0x98
 429 410 461 412 482 415 c 1
 486 409 485 391 482 387 c 1xa8
 468 387 428 379 407 364 c 0
 396 356 306 292 248 243 c 1
 321 164 401 72 424 52 c 0
 449 31 489 24 514 25 c 1
 516 22 518 7 515 2 c 1
 508 -1 477 -4 451 -4 c 0
 393 -4 346 23 331 39 c 2
 331 39 248 129 192 190 c 0
 188 195 177 199 177 199 c 1
 177 113 l 2
 177 84 177 57 182 41 c 0
 185 30 231 25 243 25 c 1
 247 20 248 2 243 -3 c 1
 203 -1 177 2 139 2 c 0
 101 2 75 -1 35 -3 c 1
 30 2 31 20 35 25 c 1
 47 25 94 30 97 41 c 0
 102 57 102 84 102 113 c 2
 102 295 l 2
 102 308 102 334 97 346 c 0
 90 363 41 363 34 363 c 1
 32 365 30 384 34 389 c 1
 84 396 134 409 173 430 c 1
 178 430 184 419 184 414 c 1
 183 407 177 360 177 350 c 2xd8
EndSplineSet
Substitution2: "'smcp' Lowercase to Small Capitals lookup 2-1" kgreenlandic.sc
EndChar

StartChar: Lslash
Encoding: 321 321 254
Width: 550
Flags: W
HStem: -3 28<42 111> 0 33<208 428> 618 28<42 111 207 276>
VStem: 117 85<43 612>
LayerCount: 2
Fore
SplineSet
375 437 m 1x30
 380 432 396 409 392 406 c 9
 49 174 l 1
 43 180 29 199 33 202 c 9
 375 437 l 1x30
EndSplineSet
Refer: 43 76 N 1 0 0 1 0 0 3
EndChar

StartChar: lslash
Encoding: 322 322 255
Width: 249
Flags: W
HStem: -3 28<18 82 168 231> 613 25<22 78> 658 20<142 165>
VStem: 87 75<32 607>
LayerCount: 2
Fore
SplineSet
34 254 m 1
 28 260 15 277 19 281 c 9
 212 413 l 1
 217 408 231 391 227 387 c 9
 34 254 l 1
EndSplineSet
Refer: 75 108 N 1 0 0 1 0 0 3
Substitution2: "'smcp' Lowercase to Small Capitals lookup 2-1" lslash.sc
EndChar

StartChar: Eng
Encoding: 330 330 262
Width: 757
Flags: W
HStem: -222 46<406 510> -3 28<38 109 188 257> 619 28<38 112 510 579 659 730>
VStem: 126 45<46 555> 597 45<162 599>
LayerCount: 2
Fore
SplineSet
582 37 m 1
 171 556 l 1
 171 112 l 2
 171 77 171 61 181 45 c 0
 187 35 238 25 254 25 c 1
 259 18 258 3 256 -3 c 1
 217 -1 188 2 145 2 c 0
 100 2 85 -1 40 -3 c 1
 37 2 35 14 40 25 c 1
 52 25 109 33 116 45 c 0
 125 60 126 74 126 111 c 2
 126 535 l 2
 126 572 125 587 116 602 c 0
 109 614 52 621 40 621 c 1
 35 632 37 644 40 649 c 1
 85 647 108 645 140 645 c 0
 169 645 200 645 214 646 c 1
 264 568 489 313 597 162 c 1
 597 219 l 1
 597 532 l 2
 597 567 597 584 587 600 c 0
 581 610 529 619 513 619 c 1
 508 626 509 641 511 647 c 1
 550 645 580 643 623 643 c 0
 668 643 683 645 728 647 c 1
 731 642 733 630 728 619 c 1
 716 619 658 612 651 600 c 0
 642 585 642 570 642 533 c 2
 642 118 l 2
 642 -126 545 -222 413 -222 c 0
 398 -222 364 -213 352 -204 c 1
 347 -199 344 -189 344 -182 c 0
 344 -152 360 -127 391 -127 c 0
 409 -127 425 -143 438 -155 c 0
 449 -165 464 -176 481 -176 c 0
 517 -176 570 -135 582 37 c 1
EndSplineSet
EndChar

StartChar: eng
Encoding: 331 331 263
Width: 508
Flags: W
HStem: -3 28<33 96 183 246> 363 25<32 92> 371 57<250 334>
VStem: 102 75<32 339> 366 75<-67 339>
LayerCount: 2
Fore
SplineSet
366 45 m 2xb8
 366 211 l 2
 366 332 346 371 270 371 c 0xb8
 234 371 177 326 177 317 c 2
 177 113 l 2
 177 84 177 57 182 41 c 0
 185 30 231 25 243 25 c 1
 247 20 248 2 243 -3 c 1
 203 -1 177 2 139 2 c 0
 101 2 75 -1 35 -3 c 1
 30 2 31 20 35 25 c 1
 47 25 94 30 97 41 c 0
 102 57 102 84 102 113 c 2
 102 295 l 2
 102 308 102 334 97 346 c 0
 90 363 41 363 34 363 c 1
 32 365 30 384 34 389 c 1xd8
 84 396 134 409 173 430 c 1
 178 430 184 419 184 414 c 1
 183 407 178 366 178 358 c 0
 178 357 178 354 180 354 c 0
 181 354 182 355 183 356 c 0
 203 377 268 428 315 428 c 0
 420 428 441 363 441 221 c 1
 440 66 l 1
 440 -122 337 -199 271 -226 c 1
 266 -223 261 -216 259 -211 c 0
 258 -209 258 -205 259 -204 c 1
 315 -164 366 -117 366 45 c 2xb8
EndSplineSet
Substitution2: "'smcp' Lowercase to Small Capitals lookup 2-1" eng.sc
EndChar

StartChar: OE
Encoding: 338 338 270
Width: 993
Flags: W
HStem: -7 30<307 484> 0 33<628 845> 305 36<621 794> 398 20G<833 840> 609 32<625 844> 618 33<277 468>
VStem: 48 97<207 437> 536 85<65 303 341 563> 822 31<225 283 363 418> 891 31<511 558>
LayerCount: 2
Back
SplineSet
349.609375 618.1640625 m 0
 321.2890625 618.1640625 295.491210938 612.711914062 272.216796875 601.806640625 c 0
 248.942382812 590.901367188 229.573242188 576.497070312 214.111328125 558.59375 c 0
 198.649414062 540.690429688 185.546875 519.694335938 174.8046875 495.60546875 c 0
 164.0625 471.516601562 156.331054688 446.614257812 151.611328125 420.8984375 c 0
 146.891601562 395.182617188 144.53125 368.815429688 144.53125 341.796875 c 0
 144.53125 303.385742188 149.821289062 265.461914062 160.400390625 228.02734375 c 0
 170.979492188 190.592773438 185.872070312 156.575195312 205.078125 125.9765625 c 0
 224.284179688 95.3779296875 249.104492188 70.6376953125 279.541015625 51.7578125 c 0
 309.977539062 32.8779296875 343.424804688 23.4375 379.8828125 23.4375 c 1024
364.2578125 -9.765625 m 0
 321.614257812 -9.765625 281.005859375 -1.5458984375 242.431640625 14.892578125 c 0
 203.857421875 31.3310546875 170.247070312 53.8740234375 141.6015625 82.51953125 c 0
 112.956054688 111.165039062 90.1689453125 146.159179688 73.2421875 187.5 c 0
 56.3154296875 228.840820312 47.8515625 273.112304688 47.8515625 320.3125 c 0
 47.8515625 365.234375 56.3154296875 408.122070312 73.2421875 448.974609375 c 0
 90.1689453125 489.827148438 112.874023438 524.983398438 141.357421875 554.443359375 c 0
 169.840820312 583.903320312 203.532226562 607.421875 242.431640625 625 c 0
 281.331054688 642.578125 321.940429688 651.3671875 364.2578125 651.3671875 c 1024
EndSplineSet
Fore
SplineSet
580 0 m 8x7bc0
 535 0 493 -1 465 -3 c 0
 450 -4 378 -7 354 -7 c 0
 182 -7 48 137 48 320 c 0
 48 503 194 651 359 651 c 0xb7c0
 383 651 516 641 579 642 c 0
 671 642 788 648 894 648 c 1
 901 599 913 560 922 516 c 1
 919 513 911 511 904 511 c 0
 897 511 892 513 891 518 c 0
 870 596 829 609 777 609 c 2
 693 609 l 0
 681 609 629 609 626 599 c 0
 621 583 621 555 621 529 c 2
 621 347 l 2
 621 342 642 341 663 341 c 2
 715 341 l 2
 809 341 805 347 822 411 c 0
 823 416 830 418 837 418 c 0
 844 418 851 416 854 413 c 1
 854 229 l 1
 852 227 845 225 838 225 c 0
 831 225 824 227 822 232 c 0
 807 288 804 291 795 297 c 0
 784 304 728 305 691 305 c 0
 664 305 621 305 621 296 c 2
 621 110 l 2
 621 95 621 48 627 43 c 0
 640 33 655 33 696 33 c 2
 743 33 l 2
 789 33 839 43 866 60 c 0
 897 79 912 116 928 158 c 0
 929 162 934 164 941 164 c 0
 951 164 963 161 966 158 c 1
 947 105 920 39 913 -4 c 1
 807 -4 710 0 580 0 c 8x7bc0
349 618 m 0
 207 618 145 473 145 342 c 0
 145 191 228 23 379 23 c 0
 433 23 491 28 513 62 c 0
 536 97 536 130 536 183 c 2
 536 483 l 2
 536 517 530 549 502 579 c 0
 470 613 417 618 349 618 c 0
EndSplineSet
EndChar

StartChar: oe
Encoding: 339 339 271
Width: 759
Flags: W
HStem: -8 62<527 653> -7 32<209 313> 242 36<453 634> 396 32<185 290 514 592>
VStem: 40 84<118 306> 373 75<140 238> 635 83<279 360>
LayerCount: 2
Fore
SplineSet
555 393 m 0x3e
 473 393 451 278 453 278 c 0
 462 278 602 278 612 278 c 0
 624 278 634 283 635 301 c 0
 636 324 615 393 555 393 c 0x3e
237 396 m 0
 154 396 124 312 124 228 c 0
 124 133 172 25 260 25 c 0x7e
 343 25 373 110 373 193 c 0
 373 288 324 396 237 396 c 0
607 55 m 0xbe
 661 55 702 91 715 106 c 0
 716 106 723 101 723 93 c 0
 723 88 720 80 717 75 c 0
 699 47 650 -8 574 -8 c 0xbe
 504 -8 447 24 413 76 c 1
 376 25 317 -7 250 -7 c 0x7e
 121 -7 40 86 40 208 c 0
 40 334 130 429 248 429 c 0
 328 429 390 394 425 338 c 1
 464 394 520 428 571 428 c 0
 688 428 718 334 718 295 c 0
 718 267 713 250 694 249 c 0
 667 248 487 243 448 242 c 1
 448 98 537 55 607 55 c 0xbe
EndSplineSet
Substitution2: "'smcp' Lowercase to Small Capitals lookup 2-1" oe.sc
EndChar

StartChar: Tbar
Encoding: 358 358 290
Width: 611
Flags: W
HStem: -3 28<189 258 354 423> 304 36<152 464> 611 34<94 264 349 516>
VStem: 12 32<488 544> 264 85<32 611> 566 32<488 544>
LayerCount: 2
Fore
SplineSet
462 304 m 1
 434 304 167 304 153 304 c 1
 149 304 148 331 154 340 c 1
 182 340 448 340 462 340 c 1
 466 340 466 313 462 304 c 1
EndSplineSet
Refer: 51 84 N 1 0 0 1 0 0 3
EndChar

StartChar: tbar
Encoding: 359 359 291
Width: 303
Flags: W
HStem: -7 53<172 246> 262 39<22 286> 382 40<27 81 156 286>
VStem: 21 266 81 75<61 382 422 508>
LayerCount: 2
Fore
SplineSet
27 301 m 1xf0
 55 301 267 301 281 301 c 0
 285 301 287 296 287 291 c 3
 287 285 285 271 281 262 c 1
 253 262 40 262 26 262 c 0
 22 262 21 269 21 274 c 3
 21 280 21 292 27 301 c 1xf0
EndSplineSet
Refer: 83 116 N 1 0 0 1 0 0 3
Substitution2: "'smcp' Lowercase to Small Capitals lookup 2-1" tbar.sc
EndChar

StartChar: Uogonek
Encoding: 370 370 302
Width: 706
Flags: W
HStem: -219 58<360 431> -4 57<275 438> 618 28<26 95 192 261 474 542 617 690>
VStem: 101 85<155 612> 303 53<-157 -81> 557 45<153 599>
LayerCount: 2
Fore
SplineSet
144 642 m 0
 182 642 218 644 258 646 c 1
 263 641 262 623 258 618 c 1
 246 618 194 614 191 603 c 0
 186 587 186 559 186 530 c 2
 186 289 l 2
 186 208 203 148 234 109 c 0
 265 71 310 53 368 53 c 0
 469 53 554 100 557 268 c 1
 557 532 l 2
 557 567 557 584 547 600 c 0
 541 610 493 619 477 619 c 1
 472 626 473 641 475 647 c 1
 514 645 540 643 583 643 c 0
 628 643 643 645 688 647 c 1
 691 642 693 630 688 619 c 1
 676 619 619 612 612 600 c 0
 603 585 602 570 602 533 c 2
 602 270 l 2
 602 144 564 85 489 28 c 0
 462 7 355 -66 355 -119 c 0
 355 -134 363 -161 396 -161 c 0
 446 -161 469 -124 475 -124 c 0
 476 -124 479 -129 479 -137 c 0
 479 -142 478 -149 475 -153 c 0
 454 -181 416 -219 372 -219 c 0
 317 -219 303 -170 303 -144 c 0
 303 -91 357 -30 409 2 c 1
 393 -3 364 -4 347 -4 c 0
 277 -4 216 20 173 61 c 0
 128 104 101 167 101 245 c 2
 101 530 l 2
 101 559 101 587 96 603 c 0
 93 614 41 618 29 618 c 1
 25 623 24 641 29 646 c 1
 69 644 106 642 144 642 c 0
EndSplineSet
EndChar

StartChar: uogonek
Encoding: 371 371 303
Width: 495
Flags: W
HStem: -222 58<335 407> -7 60<190 272> 20 26<422 474> 404 20G<156 159 408 411>
VStem: 81 74<91 358> 278 53<-160 -86> 333 74<80 358>
LayerCount: 2
Fore
SplineSet
407 333 m 2xde
 407 138 l 2
 407 127 408 90 414 63 c 0
 419 44 469 47 472 46 c 0
 474 45 475 38 475 35 c 0
 475 33 472 20 467 20 c 0xbe
 460 20 454 19 447 18 c 0
 409 12 331 -71 331 -122 c 0
 331 -137 338 -164 371 -164 c 0
 421 -164 444 -127 450 -127 c 0
 451 -127 455 -132 455 -140 c 0
 455 -145 453 -153 450 -157 c 0
 429 -185 392 -222 348 -222 c 0
 293 -222 278 -172 278 -146 c 0
 278 -104 333 -27 376 2 c 1
 359 -3 341 -8 341 -8 c 0
 336 -8 333 1 333 8 c 2
 333 58 l 2
 333 63 331 62 331 62 c 1
 304 33 253 -7 203 -7 c 0
 99 -7 81 107 81 175 c 2
 81 298 l 2
 81 306 80 337 67 351 c 1
 46 377 11 367 11 373 c 0
 11 374 12 396 17 397 c 0
 61 404 115 412 151 423 c 0
 152 423 155 424 156 424 c 0
 162 424 162 408 161 403 c 0
 157 372 155 364 155 331 c 2
 155 199 l 2
 155 100 183 53 251 53 c 0
 294 53 333 95 333 115 c 2
 333 298 l 2
 333 306 332 337 319 351 c 1
 298 377 263 367 263 373 c 0
 263 374 264 396 269 397 c 0
 313 404 367 412 403 423 c 0
 404 423 407 424 408 424 c 0
 414 424 414 408 413 403 c 0
 409 372 407 366 407 333 c 2xde
EndSplineSet
Substitution2: "'smcp' Lowercase to Small Capitals lookup 2-1" uogonek.sc
EndChar

StartChar: uni021A
Encoding: 538 538 318
Width: 612
Flags: W
HStem: -222 177<295 361> -3 28<190 259 355 424> 611 34<95 265 350 517>
VStem: 13 32<488 544> 265 85<32 611> 320 62<-167 -89> 567 32<488 544>
LayerCount: 2
Fore
SplineSet
284 -99 m 0xf6
 284 -75 302 -45 361 -45 c 1
 373 -55 382 -81 382 -97 c 0
 382 -164 331 -203 302 -220 c 0
 301 -221 299 -222 295 -222 c 0
 282 -222 275 -218 275 -215 c 0
 275 -210 320 -180 320 -157 c 0
 320 -131 284 -128 284 -99 c 0xf6
EndSplineSet
Refer: 51 84 N 1 0 0 1 1 0 2
EndChar

StartChar: uni021B
Encoding: 539 539 319
Width: 304
Flags: W
HStem: -222 177<127 193> -7 53<173 247> 382 40<28 82 157 286>
VStem: 82 75<61 382 422 508> 152 62<-167 -89>
LayerCount: 2
Fore
SplineSet
116 -99 m 0xe8
 116 -75 134 -45 193 -45 c 1
 205 -55 215 -81 215 -97 c 0
 215 -164 164 -203 135 -220 c 0
 134 -221 131 -222 127 -222 c 0
 114 -222 107 -218 107 -215 c 0
 107 -210 152 -180 152 -157 c 0
 152 -131 116 -128 116 -99 c 0xe8
EndSplineSet
Refer: 83 116 N 1 0 0 1 1 0 2
Substitution2: "'smcp' Lowercase to Small Capitals lookup 2-1" uni021B.sc
EndChar

StartChar: uni0237
Encoding: 567 567 320
Width: 233
Flags: W
HStem: 363 25<19 79> 410 20G<141 163>
VStem: 90 75<-67 357>
LayerCount: 2
Fore
SplineSet
90 44 m 2
 90 295 l 2
 90 308 90 334 85 346 c 0
 78 363 28 363 21 363 c 1
 19 365 17 384 21 389 c 1
 71 396 122 409 161 430 c 1
 166 430 172 419 172 414 c 1
 171 407 165 363 165 350 c 2
 165 316 l 0
 165 66 l 1
 165 -122 62 -199 -4 -226 c 1
 -9 -223 -15 -216 -17 -211 c 0
 -18 -209 -18 -205 -17 -204 c 1
 39 -164 90 -118 90 44 c 2
EndSplineSet
EndChar

StartChar: gravecomb
Encoding: 768 768 332
Width: 0
GlyphClass: 4
Flags: W
HStem: 486 156
VStem: -342 156
LayerCount: 2
Fore
SplineSet
-307 643 m 0
 -293 643 -281 636 -280 635 c 0
 -249 596 -186 505 -186 499 c 0
 -186 493 -187 486 -194 486 c 0
 -204 486 -342 583 -342 614 c 0
 -342 619 -341 643 -307 643 c 0
EndSplineSet
EndChar

StartChar: acutecomb
Encoding: 769 769 333
Width: 0
GlyphClass: 4
Flags: W
HStem: 486 156
VStem: -312 156
LayerCount: 2
Fore
SplineSet
-191 643 m 0
 -157 643 -156 619 -156 614 c 0
 -156 583 -294 486 -304 486 c 0
 -311 486 -312 493 -312 499 c 0
 -312 505 -249 596 -218 635 c 0
 -217 636 -205 643 -191 643 c 0
EndSplineSet
EndChar

StartChar: uni0302
Encoding: 770 770 334
Width: 0
GlyphClass: 4
Flags: W
HStem: 485 150
VStem: -356 205
LayerCount: 2
Fore
SplineSet
-254 636 m 0
 -250 636 -246 632 -243 627 c 0
 -210 573 -189 548 -151 498 c 1
 -151 491 -157 485 -162 485 c 1
 -199 515 -254 560 -254 560 c 25
 -254 560 -312 512 -346 485 c 1
 -351 485 -356 491 -356 498 c 1
 -318 548 -298 573 -265 627 c 0
 -262 632 -258 636 -254 636 c 0
EndSplineSet
EndChar

StartChar: tildecomb
Encoding: 771 771 335
Width: 0
GlyphClass: 4
Flags: W
HStem: 486 44<-232 -143> 532 44<-343 -254>
VStem: -366 249
LayerCount: 2
Fore
SplineSet
-294 576 m 0
 -270 576 -252 565 -234 554 c 0
 -215 542 -192 530 -178 530 c 0
 -143 530 -130 564 -123 568 c 1
 -117 568 -117 564 -117 560 c 0
 -117 547 -125 531 -131 522 c 0
 -148 500 -168 486 -191 486 c 0
 -215 486 -232 497 -250 508 c 0
 -269 520 -290 532 -308 532 c 0
 -343 532 -351 498 -358 494 c 1
 -364 494 -366 501 -366 505 c 0
 -366 518 -360 532 -354 541 c 0
 -337 563 -317 576 -294 576 c 0
EndSplineSet
EndChar

StartChar: uni0304
Encoding: 772 772 336
Width: 0
GlyphClass: 4
Flags: W
HStem: 486 41<-366 -143>
LayerCount: 2
Fore
SplineSet
-147 486 m 1
 -192 486 -293 486 -366 486 c 1
 -376 490 -369 521 -360 527 c 9
 -275 527 -227 527 -142 527 c 1
 -135 522 -137 497 -147 486 c 1
EndSplineSet
EndChar

StartChar: uni0305
Encoding: 773 773 337
Width: 0
GlyphClass: 4
Flags: W
HStem: 722 62<-578 -1>
LayerCount: 2
Fore
SplineSet
-581 731 m 0
 -581 733 -578 783 -567 783 c 2
 1 783 l 2
 3 783 7 782 7 774 c 0
 7 756 0 733 -1 729 c 0
 -3 723 -9 722 -9 722 c 1
 -575 722 l 1
 -575 722 -581 721 -581 731 c 0
EndSplineSet
EndChar

StartChar: uni0306
Encoding: 774 774 338
Width: 0
GlyphClass: 4
Flags: W
HStem: 485 45<-310 -196>
VStem: -359 21<584 601> -168 21<583 601>
LayerCount: 2
Fore
SplineSet
-253 530 m 0
 -212 530 -178 559 -168 601 c 0
 -168 603 -166 604 -164 604 c 0
 -158 604 -146 596 -146 591 c 0
 -146 590 -147 585 -147 583 c 0
 -156 531 -200 485 -253 485 c 0
 -306 485 -349 528 -358 584 c 0
 -358 586 -359 590 -359 591 c 0
 -359 596 -348 604 -342 604 c 0
 -340 604 -338 603 -338 601 c 0
 -328 559 -294 530 -253 530 c 0
EndSplineSet
EndChar

StartChar: uni0307
Encoding: 775 775 339
Width: 0
GlyphClass: 4
Flags: W
HStem: 486 98<-290 -208>
VStem: -298 98<495 576>
LayerCount: 2
Fore
SplineSet
-298 535 m 0
 -298 562 -276 584 -249 584 c 0
 -222 584 -200 562 -200 535 c 0
 -200 508 -222 486 -249 486 c 0
 -276 486 -298 508 -298 535 c 0
EndSplineSet
EndChar

StartChar: uni0308
Encoding: 776 776 340
Width: 0
GlyphClass: 4
Flags: W
HStem: 486 90<-372 -296 -194 -117>
VStem: -380 92<494 568> -201 92<494 568>
LayerCount: 2
Fore
SplineSet
-154 576 m 0
 -130 576 -109 554 -109 530 c 0
 -109 506 -131 486 -155 486 c 0
 -179 486 -201 507 -201 531 c 0
 -201 555 -178 576 -154 576 c 0
-333 576 m 0
 -309 576 -288 554 -288 530 c 0
 -288 506 -310 486 -334 486 c 0
 -358 486 -380 507 -380 531 c 0
 -380 555 -357 576 -333 576 c 0
EndSplineSet
EndChar

StartChar: hookabovecomb
Encoding: 777 777 341
Width: 0
GlyphClass: 4
Flags: W
HStem: 628 28<-264 -215>
VStem: -313 45<574 624> -284 41<495 540> -210 40<566 627>
LayerCount: 2
Fore
SplineSet
-223 656 m 0xd0
 -189 656 -170 635 -170 606 c 0
 -170 574 -198 552 -220 542 c 0
 -238 534 -243 530 -243 518 c 0
 -243 510 -238 502 -235 499 c 1
 -235 494 -246 485 -251 485 c 1
 -257 487 -284 498 -284 518 c 0xb0
 -284 542 -255 554 -240 561 c 0
 -220 570 -210 580 -210 597 c 0
 -210 613 -219 628 -237 628 c 0
 -257 628 -269 619 -269 593 c 0
 -269 578 -286 573 -298 573 c 0
 -305 573 -313 577 -313 582 c 0
 -313 615 -265 656 -223 656 c 0xd0
EndSplineSet
EndChar

StartChar: uni030A
Encoding: 778 778 342
Width: 0
GlyphClass: 4
Flags: W
HStem: 486 33<-286 -212> 628 33<-288 -211>
VStem: -335 32<536 612> -196 32<536 612>
LayerCount: 2
Fore
SplineSet
-303 574 m 0
 -303 544 -278 520 -249 520 c 0
 -220 520 -196 544 -196 574 c 0
 -196 604 -220 628 -249 628 c 0
 -278 628 -303 604 -303 574 c 0
-335 574 m 0
 -335 622 -296 661 -249 661 c 0
 -202 661 -164 622 -164 574 c 0
 -164 526 -202 486 -249 486 c 0
 -296 486 -335 526 -335 574 c 0
EndSplineSet
EndChar

StartChar: uni030C
Encoding: 780 780 344
Width: 0
GlyphClass: 4
Flags: W
HStem: 485 150
VStem: -352 205
LayerCount: 2
Fore
SplineSet
-249 485 m 0
 -253 485 -257 489 -260 494 c 0
 -293 548 -314 573 -352 623 c 1
 -352 630 -346 636 -341 636 c 1
 -303 603 -249 555 -249 555 c 25
 -249 555 -195 603 -157 636 c 1
 -152 636 -146 630 -146 623 c 1
 -184 573 -205 548 -238 494 c 0
 -241 489 -245 485 -249 485 c 0
EndSplineSet
EndChar

StartChar: uni0312
Encoding: 786 786 345
Width: 0
GlyphClass: 4
Flags: W
HStem: 486 177<-278 -212>
VStem: -300 62<530 608>
LayerCount: 2
Fore
SplineSet
-201 540 m 0
 -201 516 -219 486 -278 486 c 1
 -290 496 -300 522 -300 538 c 0
 -300 605 -244 648 -220 661 c 0
 -219 662 -216 663 -212 663 c 0
 -199 663 -192 659 -192 656 c 0
 -192 651 -237 622 -237 599 c 0
 -237 573 -201 569 -201 540 c 0
EndSplineSet
EndChar

StartChar: uni0315
Encoding: 789 789 346
Width: 0
GlyphClass: 4
Flags: W
HStem: 450 208
VStem: -239 57<517 614>
LayerCount: 2
Fore
SplineSet
-218 658 m 0
 -211 658 -202 655 -196 652 c 1
 -190 642 -183 630 -183 598 c 0
 -183 549 -212 493 -251 450 c 1
 -257 450 -270 456 -270 461 c 1
 -252 483 -239 511 -239 540 c 0
 -239 586 -267 584 -267 617 c 0
 -267 635 -248 658 -218 658 c 0
EndSplineSet
EndChar

StartChar: uni0326
Encoding: 806 806 348
Width: 0
GlyphClass: 4
Flags: W
HStem: -224 179
VStem: -266 62<-161 -86>
LayerCount: 2
Fore
SplineSet
-245 -45 m 0
 -233 -45 -222 -49 -214 -54 c 1
 -208 -63 -204 -79 -204 -94 c 0
 -204 -152 -251 -203 -301 -224 c 1
 -309 -222 -316 -213 -316 -209 c 1
 -302 -202 -266 -174 -266 -145 c 0
 -266 -124 -300 -128 -300 -88 c 0
 -300 -79 -289 -45 -245 -45 c 0
EndSplineSet
EndChar

StartChar: uni0327
Encoding: 807 807 349
Width: 0
GlyphClass: 4
Flags: W
HStem: -148 23<-290 -227> -60 33<-249 -222>
VStem: -218 36<-119 -63>
LayerCount: 2
Fore
SplineSet
-249 -26 m 1
 -225 -26 l 2
 -200 -26 -182 -49 -182 -74 c 0
 -182 -120 -222 -148 -273 -148 c 0
 -285 -148 -301 -144 -307 -140 c 1
 -308 -135 -310 -132 -310 -126 c 0
 -310 -119 -302 -112 -296 -112 c 0
 -284 -112 -276 -125 -260 -125 c 0
 -233 -125 -218 -110 -218 -93 c 0
 -218 -70 -235 -60 -248 -60 c 0
 -259 -60 -263 -62 -273 -66 c 0
 -275 -66 -285 -58 -283 -54 c 0
 -274 -39 -260 -18 -252 -4 c 1
 -231 -4 l 1
 -249 -26 l 1
EndSplineSet
EndChar

StartChar: uni0328
Encoding: 808 808 350
Width: 0
GlyphClass: 4
Flags: W
HStem: -213 58<-270 -199>
VStem: -327 53<-152 -79>
LayerCount: 2
Fore
SplineSet
-177 41 m 0
 -160 41 -136 36 -148 24 c 0
 -170 3 -274 -51 -274 -113 c 0
 -274 -128 -267 -155 -234 -155 c 0
 -184 -155 -161 -118 -155 -118 c 0
 -154 -118 -150 -123 -150 -131 c 0
 -150 -136 -152 -143 -155 -147 c 0
 -176 -175 -214 -213 -258 -213 c 0
 -313 -213 -327 -164 -327 -138 c 0
 -327 -74 -205 41 -177 41 c 0
EndSplineSet
EndChar

StartChar: uni2010
Encoding: 8208 8208 383
Width: 369
Flags: W
HStem: 194 61<59 211> 205 62<165 310>
VStem: 58 255
LayerCount: 2
Fore
SplineSet
58 205 m 0x60
 58 252 66 255 69 255 c 2
 70 255 l 1xa0
 306 267 l 1
 307 267 l 2
 309 267 312 266 312 258 c 0
 312 210 300 205 300 205 c 1x60
 64 194 l 1xa0
 64 194 58 193 58 205 c 0x60
EndSplineSet
EndChar

StartChar: uni2011
Encoding: 8209 8209 384
Width: 369
Flags: W
HStem: 194 61<59 211> 205 62<165 310>
VStem: 58 255
LayerCount: 2
Fore
SplineSet
58 205 m 0x60
 58 252 66 255 69 255 c 2
 70 255 l 1xa0
 306 267 l 1
 307 267 l 2
 309 267 312 266 312 258 c 0
 312 210 300 205 300 205 c 1x60
 64 194 l 1xa0
 64 194 58 193 58 205 c 0x60
EndSplineSet
EndChar

StartChar: figuredash
Encoding: 8210 8210 385
Width: 516
Flags: W
HStem: 195 61<60 452>
LayerCount: 2
Fore
SplineSet
57 204 m 0
 57 206 59 256 70 256 c 2
 455 256 l 2
 457 256 460 255 460 249 c 0
 460 244 457 220 452 202 c 0
 450 196 445 195 445 195 c 1
 62 195 l 1
 62 195 57 194 57 204 c 0
EndSplineSet
EndChar

StartChar: endash
Encoding: 8211 8211 386
Width: 550
Flags: W
HStem: 195 61<62 484>
LayerCount: 2
Fore
SplineSet
59 204 m 0
 59 206 61 256 72 256 c 2
 487 256 l 2
 489 256 493 255 493 247 c 0
 493 229 485 206 484 202 c 0
 482 196 478 195 478 195 c 1
 64 195 l 1
 64 195 59 194 59 204 c 0
EndSplineSet
EndChar

StartChar: emdash
Encoding: 8212 8212 387
Width: 835
Flags: W
HStem: 205 61<62 769>
LayerCount: 2
Fore
SplineSet
59 214 m 0
 59 216 61 266 72 266 c 2
 771 266 l 2
 773 266 777 265 777 257 c 0
 777 239 771 216 770 212 c 0
 768 206 762 205 762 205 c 1
 64 205 l 1
 64 205 59 204 59 214 c 0
EndSplineSet
EndChar

StartChar: uni2015
Encoding: 8213 8213 388
Width: 1118
Flags: W
HStem: 205 61<62 1051>
LayerCount: 2
Fore
SplineSet
59 214 m 0
 59 216 61 266 72 266 c 2
 1052 266 l 1
 1052 266 1060 266 1060 257 c 0
 1060 239 1052 216 1051 212 c 0
 1049 206 1044 205 1044 205 c 1
 64 205 l 1
 64 205 59 204 59 214 c 0
EndSplineSet
EndChar

StartChar: quoteleft
Encoding: 8216 8216 389
Width: 205
Flags: HW
HStem: 423 315
VStem: 15 84<508 628.96>
LayerCount: 2
Fore
SplineSet
43 534 m 0
 43 644 161 711 172 711 c 0
 182 711 190 703 195 690 c 1
 124 648 113 595 113 584 c 0
 113 566 129 553 142 537 c 0
 153 525 161 514 161 500 c 0
 161 472 121 449 84 449 c 0
 76 449 69 451 61 453 c 1
 50 469 43 505 43 534 c 0
EndSplineSet
EndChar

StartChar: dagger
Encoding: 8224 8224 395
Width: 389
Flags: W
HStem: -8 21G<193 196> 427 79<39 103 286 351> 454 21<103 171 218 286> 627 20G<184 206>
VStem: 154 80<546 642> 179 31<390 450 478 595> 188 12<-8 73>
LayerCount: 2
Fore
SplineSet
150 475 m 8xb4
 164 475 171 480 181 493 c 1
 181 525 173 591 154 610 c 1
 154 631 173 646 195 646 c 0
 216 646 234 631 234 610 c 1
 215 591 208 525 208 493 c 1
 218 480 226 475 239 475 c 0xb8
 271 475 299 487 318 506 c 1
 339 506 355 486 355 465 c 0
 355 444 339 427 318 427 c 1xd8
 299 446 271 454 239 454 c 24xb8
 223 454 210 439 210 427 c 1xd4
 217 410 227 384 239 356 c 1
 218 221 213 167 200 4 c 1
 198 -2 197 -7 194 -8 c 1
 191 -7 190 0 188 4 c 1xd2
 175 167 170 221 149 356 c 1
 160 380 172 410 179 427 c 1xd4
 179 439 166 454 150 454 c 24xb4
 118 454 90 446 71 427 c 1
 50 427 34 444 34 465 c 0
 34 486 50 506 71 506 c 1xd4
 90 487 118 475 150 475 c 8xb4
EndSplineSet
EndChar

StartChar: daggerdbl
Encoding: 8225 8225 396
Width: 413
Flags: W
HStem: -8 21G<196 217> 133 79<51 115 298 362> 164 21<115 183 230 298> 427 79<51 115 298 362> 454 21<115 183 230 298> 627 20G<196 217>
VStem: 166 80<-4 93 546 642> 192 27<54 159 191 239 399 447 480 585>
LayerCount: 2
Fore
SplineSet
251 282 m 1x95
 239 254 229 229 222 212 c 1xd5
 222 200 235 185 251 185 c 24xa5
 283 185 311 193 330 212 c 1
 351 212 367 195 367 174 c 0
 367 153 351 133 330 133 c 1xc5
 311 152 283 164 251 164 c 0
 238 164 230 159 220 146 c 1xa5
 220 114 227 47 246 28 c 1
 246 7 228 -8 207 -8 c 0
 185 -8 166 7 166 28 c 1xa6
 185 47 192 114 192 146 c 1
 182 159 176 164 162 164 c 16xa5
 130 164 102 152 83 133 c 1
 62 133 46 153 46 174 c 0
 46 195 62 212 83 212 c 1xc5
 102 193 130 185 162 185 c 24xa5
 178 185 190 200 190 212 c 1
 183 229 172 258 161 282 c 1
 174 299 177 303 190 319 c 1
 177 334 179 333 161 356 c 1
 172 380 183 410 190 427 c 1xd5
 190 439 178 454 162 454 c 24x8d
 130 454 102 446 83 427 c 1
 62 427 46 444 46 465 c 0
 46 486 62 506 83 506 c 1x95
 102 487 130 475 162 475 c 8
 176 475 182 480 192 493 c 1x8d
 192 525 185 591 166 610 c 1
 166 631 185 646 207 646 c 0
 228 646 246 631 246 610 c 1x8e
 227 591 220 525 220 493 c 1
 230 480 238 475 251 475 c 0x8d
 283 475 311 487 330 506 c 1
 351 506 367 486 367 465 c 0
 367 444 351 427 330 427 c 1x95
 311 446 283 454 251 454 c 24x8d
 235 454 222 439 222 427 c 1
 229 410 239 384 251 356 c 1
 234 335 234 334 222 319 c 1
 232 306 235 302 251 282 c 1x95
EndSplineSet
EndChar

StartChar: bullet
Encoding: 8226 8226 397
Width: 366
Flags: W
HStem: 151 211<121 246>
VStem: 78 210<194 320>
LayerCount: 2
Fore
SplineSet
78 257 m 0
 78 315 126 362 184 362 c 0
 242 362 288 315 288 257 c 0
 288 199 242 151 184 151 c 0
 126 151 78 199 78 257 c 0
EndSplineSet
EndChar

StartChar: onedotenleader
Encoding: 8228 8228 398
Width: 205
Flags: W
HStem: -14 113<59 145>
VStem: 47 111<-1 88>
LayerCount: 2
Fore
SplineSet
47 44 m 0
 47 75 71 100 102 100 c 0
 133 100 158 75 158 44 c 0
 158 13 133 -14 102 -14 c 0
 71 -14 47 13 47 44 c 0
EndSplineSet
EndChar

StartChar: ellipsis
Encoding: 8230 8230 399
Width: 818
Flags: W
HStem: -14 113<60 148 366 453 672 759>
VStem: 47 113<-0 87> 353 113<-0 87> 658 113<-0 87>
LayerCount: 2
Fore
SplineSet
658 44 m 0
 658 75 685 100 716 100 c 0
 747 100 771 75 771 44 c 0
 771 13 747 -14 716 -14 c 0
 685 -14 658 13 658 44 c 0
353 44 m 0
 353 75 379 100 410 100 c 0
 441 100 466 75 466 44 c 0
 466 13 441 -14 410 -14 c 0
 379 -14 353 13 353 44 c 0
47 44 m 0
 47 75 73 100 104 100 c 0
 135 100 160 75 160 44 c 0
 160 13 135 -14 104 -14 c 0
 73 -14 47 13 47 44 c 0
EndSplineSet
EndChar

StartChar: perthousand
Encoding: 8240 8240 401
Width: 973
Flags: W
HStem: -7 24<445 513 771 838> 282 23<432 500 758 826> 317 24<163 230> 606 23<150 217>
VStem: 43 62<398 558> 269 64<389 557> 324 62<74 232> 550 65<68 233> 651 62<74 233> 877 64<65 233>
LayerCount: 2
Fore
SplineSet
794 282 m 0xf9c0
 736 282 713 218 713 160 c 0
 713 93 755 18 804 18 c 0
 861 18 877 84 877 141 c 0
 877 206 846 282 794 282 c 0xf9c0
798 306 m 0
 883 306 941 233 941 148 c 0
 941 70 888 -7 798 -7 c 0
 717 -7 651 62 651 148 c 0
 651 235 711 306 798 306 c 0
186 606 m 0
 128 606 104 542 104 484 c 0
 104 417 146 342 195 342 c 0
 252 342 269 408 269 465 c 0xfdc0
 269 530 238 606 186 606 c 0
189 630 m 0
 274 630 333 558 333 473 c 0
 333 395 279 317 189 317 c 0
 108 317 43 387 43 473 c 0
 43 560 102 630 189 630 c 0
468 282 m 0
 410 282 387 218 387 160 c 0xfbc0
 387 93 429 18 478 18 c 0
 535 18 550 84 550 141 c 0
 550 206 520 282 468 282 c 0
472 306 m 0
 557 306 615 233 615 148 c 0
 615 70 561 -7 471 -7 c 0
 390 -7 324 62 324 148 c 0
 324 235 385 306 472 306 c 0
588 609 m 1
 116 0 l 2
 112 -5 96 -12 84 -12 c 0
 70 -12 67 -3 66 -1 c 1
 537 609 l 2
 542 615 551 621 557 621 c 0
 585 621 579 618 588 609 c 1
EndSplineSet
EndChar

StartChar: minute
Encoding: 8242 8242 402
Width: 156
Flags: W
HStem: 482 200
VStem: 48 85<576 664> 60 73<576 673>
LayerCount: 2
Fore
SplineSet
108 683 m 0xa0
 118 683 133 679 133 659 c 0xc0
 133 613 98 546 70 490 c 0
 67 484 64 482 60 482 c 0xa0
 54 482 48 487 48 494 c 0xc0
 48 497 52 597 60 650 c 0
 62 662 89 683 108 683 c 0xa0
EndSplineSet
EndChar

StartChar: second
Encoding: 8243 8243 403
Width: 265
Flags: W
HStem: 482 200
VStem: 48 85<576 664> 60 73<576 673> 157 85<576 663> 170 72<576 673>
LayerCount: 2
Fore
SplineSet
219 683 m 0x88
 229 683 242 679 242 659 c 0x90
 242 613 209 546 181 490 c 0
 178 484 174 482 170 482 c 0x88
 164 482 157 487 157 494 c 0x90
 157 497 162 597 170 650 c 0
 172 662 200 683 219 683 c 0x88
108 683 m 0
 118 683 133 679 133 659 c 0xc0
 133 613 98 546 70 490 c 0
 67 484 64 482 60 482 c 0xa0
 54 482 48 487 48 494 c 0xc0
 48 497 52 597 60 650 c 0xa0
 62 662 89 683 108 683 c 0
EndSplineSet
EndChar

StartChar: uni2038
Encoding: 8248 8248 404
Width: 415
Flags: W
HStem: -35 143
VStem: 88 229
LayerCount: 2
Fore
SplineSet
307 -35 m 0
 294 -35 236 11 201 46 c 1
 170 10 110 -35 97 -35 c 0
 88 -35 88 -19 88 -19 c 1
 95 -9 154 31 189 98 c 1
 192 106 193 107 198 107 c 0
 217 107 208 93 255 40 c 0
 272 20 315 -15 317 -18 c 1
 317 -22 313 -35 307 -35 c 0
EndSplineSet
EndChar

StartChar: guilsinglleft
Encoding: 8249 8249 405
Width: 301
Flags: W
VStem: 29 231
LayerCount: 2
Fore
SplineSet
238 413 m 1
 260 407 261 399 261 395 c 0
 261 387 257 383 201 330 c 0
 179 309 134 260 115 241 c 1
 200 153 l 1
 252 101 260 100 260 89 c 0
 260 77 243 74 237 71 c 1
 236 73 180 129 36 222 c 1
 31 224 29 229 29 235 c 0
 29 245 30 254 37 262 c 1
 165 339 237 412 238 413 c 1
EndSplineSet
EndChar

StartChar: guilsinglright
Encoding: 8250 8250 406
Width: 300
Flags: W
VStem: 43 230
LayerCount: 2
Fore
SplineSet
65 71 m 1
 43 77 43 85 43 89 c 0
 43 100 53 104 102 153 c 1
 187 241 l 1
 168 260 123 309 101 330 c 0
 43 386 42 387 42 395 c 0
 42 407 58 410 64 413 c 1
 66 411 138 339 265 262 c 1
 272 254 273 245 273 235 c 0
 273 229 271 224 266 222 c 1
 142 142 77 84 65 71 c 1
EndSplineSet
EndChar

StartChar: Euro
Encoding: 8364 8364 410
Width: 691
UnlinkRmOvrlpSave: 1
Flags: W
HStem: -6 35<336 511> 233 47<39 431> 342 47<39 431> 591 34<332 503>
VStem: 89 93<241 376> 607 30<133 174>
LayerCount: 2
Fore
SplineSet
407 625 m 0
 469 625 536 620 605 605 c 1
 605 605 626 477 626 467 c 1
 626 457 617 453 607 453 c 0
 601 453 596 454 594 457 c 1
 588 486 566 591 410 591 c 0
 271 591 182 452 182 321 c 0
 182 175 263 29 426 29 c 0
 562 29 595 125 607 179 c 1
 620 179 637 172 637 172 c 1
 637 153 617 48 604 36 c 1
 552 7 489 -6 403 -6 c 0
 217 -6 89 136 89 302 c 0
 89 478 222 625 407 625 c 0
51 280 m 1
 79 280 420 280 434 280 c 0
 438 280 436 271 434 265 c 0
 432 258 428 244 418 233 c 1
 390 233 49 233 35 233 c 0
 31 233 33 242 35 248 c 0
 37 255 41 269 51 280 c 1
51 389 m 1
 79 389 420 389 434 389 c 0
 438 389 436 379 434 373 c 0
 432 366 428 353 418 342 c 1
 390 342 49 342 35 342 c 0
 31 342 33 350 35 356 c 0
 37 363 41 378 51 389 c 1
EndSplineSet
EndChar

StartChar: arrowleft
Encoding: 8592 8592 411
Width: 747
Flags: W
HStem: 211 62<144 705>
LayerCount: 2
Fore
SplineSet
259 395 m 0
 259 384 258 389 195 326 c 1
 144 272 l 1
 706 272 l 1
 706 272 713 273 713 263 c 0
 713 245 706 222 705 218 c 0
 703 212 698 211 698 211 c 1
 143 211 l 1
 198 153 l 1
 256 95 258 101 258 89 c 0
 258 76 240 74 235 71 c 1
 234 73 178 129 34 222 c 1
 29 224 27 229 27 235 c 0
 27 245 28 254 35 262 c 1
 163 339 235 412 236 413 c 1
 250 409 259 404 259 395 c 0
EndSplineSet
EndChar

StartChar: arrowup
Encoding: 8593 8593 412
Width: 390
Flags: W
HStem: 428 20G<34 46 339 351>
VStem: 162 62<-19 542>
LayerCount: 2
Fore
SplineSet
347 427 m 0
 331 427 344 429 224 542 c 1
 224 -21 l 1
 224 -21 224 -28 214 -28 c 0
 196 -28 173 -21 169 -20 c 0
 163 -18 162 -13 162 -13 c 1
 162 543 l 1
 104 487 l 1
 46 429 52 428 40 428 c 0
 27 428 25 445 22 450 c 1
 24 451 80 507 173 651 c 1
 175 656 181 658 187 658 c 0
 197 658 205 657 213 650 c 1
 290 522 363 450 364 449 c 1
 360 435 356 427 347 427 c 0
EndSplineSet
EndChar

StartChar: arrowright
Encoding: 8594 8594 413
Width: 746
Flags: W
HStem: 212 62<34 600>
LayerCount: 2
Fore
SplineSet
484 89 m 0
 484 103 488 93 600 212 c 1
 36 212 l 1
 36 212 29 211 29 221 c 0
 29 239 36 262 37 266 c 0
 39 272 44 273 44 273 c 1
 601 273 l 1
 544 331 l 2
 489 386 485 383 485 395 c 0
 485 408 503 410 508 413 c 1
 509 411 564 355 708 262 c 1
 713 260 715 255 715 249 c 0
 715 239 714 230 707 222 c 1
 579 145 507 72 506 71 c 1
 492 75 484 80 484 89 c 0
EndSplineSet
EndChar

StartChar: arrowdown
Encoding: 8595 8595 414
Width: 391
Flags: W
VStem: 164 62<88 650>
LayerCount: 2
Fore
SplineSet
41 203 m 0
 55 203 45 200 164 88 c 1
 164 651 l 1
 164 651 163 658 173 658 c 0
 191 658 215 651 219 650 c 0
 225 648 226 643 226 643 c 1
 226 87 l 1
 283 143 l 1
 342 202 334 202 348 202 c 0
 361 202 362 185 365 180 c 1
 363 179 307 123 214 -21 c 1
 212 -26 207 -28 201 -28 c 0
 191 -28 182 -27 174 -20 c 1
 97 108 24 180 23 181 c 1
 27 195 32 203 41 203 c 0
EndSplineSet
EndChar

StartChar: universal
Encoding: 8704 8704 415
Width: 709
Flags: W
HStem: 340 49<288 453> 618 28<24 76 203 255 474 528 634 685>
LayerCount: 2
Fore
SplineSet
479 397 m 2
 526 512 l 2
 535 534 543 551 543 569 c 0
 543 578 540 587 536 596 c 0
 528 612 489 618 477 618 c 0
 472 618 472 641 477 646 c 1
 513 644 533 641 569 641 c 0
 614 641 645 644 684 646 c 1
 685 643 686 635 686 630 c 0
 686 624 685 618 682 618 c 0
 674 618 633 614 619 589 c 0
 599 554 587 527 571 490 c 2
 376 19 l 2
 365 -7 355 -14 342 -14 c 0
 338 -14 334 -12 332 -8 c 2
 132 502 l 2
 117 540 105 569 88 594 c 0
 77 610 40 618 28 618 c 0
 26 618 24 625 24 631 c 0
 24 637 26 644 28 646 c 1
 73 644 99 641 144 641 c 0
 187 641 215 644 254 646 c 1
 256 640 257 618 252 618 c 0
 244 618 203 617 200 598 c 0
 199 593 199 589 199 584 c 0
 199 562 209 544 218 518 c 2
 264 394 l 2
 265 392 266 392 270 392 c 0
 303 390 334 389 366 389 c 0
 402 389 438 390 474 393 c 0
 476 393 479 396 479 397 c 2
453 334 m 2
 454 335 452 338 450 338 c 0
 424 340 399 340 373 340 c 0
 347 340 320 340 290 338 c 0
 289 338 288 337 288 336 c 2
 364 148 l 2
 365 146 366 145 368 145 c 0
 372 145 379 150 380 153 c 2
 453 334 l 2
EndSplineSet
EndChar

StartChar: partialdiff
Encoding: 8706 8706 416
Width: 470
Flags: W
HStem: 0 31<188 281> 322 36<169 285> 578 41<113 250>
VStem: 49 72<98 263> 340 75<135 440>
LayerCount: 2
Fore
SplineSet
340 212 m 0
 340 272 290 322 217 322 c 0
 154 322 121 251 121 194 c 0
 121 119 157 31 241 31 c 0
 297 31 340 101 340 212 c 0
202 0 m 0
 106 0 49 81 49 170 c 0
 49 270 113 358 230 358 c 0
 273 358 323 336 337 331 c 0
 342 329 346 338 345 346 c 1
 345 403 317 518 255 556 c 0
 227 573 199 578 174 578 c 0
 138 578 105 564 74 539 c 1
 72 542 65 547 65 555 c 0
 65 571 111 619 216 619 c 0
 343 619 415 458 415 288 c 0
 415 145 375 0 202 0 c 0
EndSplineSet
EndChar

StartChar: Delta
Encoding: 8710 8710 417
Width: 666
Flags: W
HStem: 0 60<104 523>
LayerCount: 2
Fore
SplineSet
522 66 m 2
 320 474 l 1
 316 477 313 478 309 472 c 2
 104 70 l 1
 102 63 107 60 112 60 c 2
 520 60 l 2
 524 60 523 62 522 66 c 2
345 599 m 1
 640 14 l 1
 640 14 634 8 632 0 c 1
 35 0 l 1
 31 6 30 9 26 16 c 1
 328 599 l 1
 345 599 l 1
EndSplineSet
EndChar

StartChar: gradient
Encoding: 8711 8711 418
Width: 666
Flags: W
HStem: 566 61<144 562>
LayerCount: 2
Fore
SplineSet
144 561 m 2
 347 152 l 1
 351 149 354 149 358 155 c 2
 562 557 l 1
 564 564 560 566 555 566 c 2
 147 566 l 2
 143 566 143 565 144 561 c 2
322 27 m 1
 27 613 l 1
 27 613 33 619 35 627 c 1
 632 627 l 1
 636 621 637 617 641 610 c 1
 339 27 l 1
 322 27 l 1
EndSplineSet
EndChar

StartChar: element
Encoding: 8712 8712 419
Width: 489
Flags: W
HStem: 10 46<176 433> 187 46<109 389> 365 46<173 434>
VStem: 51 59<170 296>
LayerCount: 2
Fore
SplineSet
396 211 m 0
 396 185 389 188 388 187 c 1
 114 187 l 2
 113 187 108 186 109 183 c 0
 121 121 171 56 236 56 c 2
 420 56 l 1
 420 56 435 53 435 19 c 0
 435 10 428 10 428 10 c 1
 238 10 l 2
 129 10 51 102 51 211 c 0
 51 317 123 411 229 411 c 2
 428 411 l 1
 428 411 435 411 435 399 c 0
 435 369 420 365 420 365 c 1
 229 365 l 2
 167 365 120 298 109 237 c 0
 109 234 111 232 114 232 c 2
 389 232 l 1
 389 231 396 228 396 211 c 0
EndSplineSet
EndChar

StartChar: notelement
Encoding: 8713 8713 420
Width: 482
Flags: W
HStem: 10 46<199 430> 187 46<106 215 291 386> 365 46<170 312 389 431>
VStem: 48 59<129 296>
LayerCount: 2
Fore
SplineSet
394 211 m 0
 394 185 386 188 385 187 c 1
 266 187 l 1
 198 62 l 1
 209 58 220 56 233 56 c 2
 417 56 l 1
 417 56 432 53 432 19 c 0
 432 10 425 10 425 10 c 1
 235 10 l 2
 213 10 193 14 174 21 c 1
 150 -22 l 1
 150 -22 150 -24 146 -24 c 0
 143 -24 127 -21 114 -5 c 0
 110 -1 113 2 113 2 c 1
 134 41 l 1
 81 77 48 140 48 211 c 0
 48 317 120 411 226 411 c 2
 338 411 l 1
 363 456 l 1
 363 456 363 459 367 459 c 0
 379 459 389 450 397 441 c 0
 402 436 400 432 400 432 c 1
 389 411 l 1
 425 411 l 1
 425 411 432 411 432 399 c 0
 432 369 417 365 417 365 c 1
 364 365 l 1
 291 232 l 1
 386 232 l 1
 386 231 394 228 394 211 c 0
160 87 m 1
 215 187 l 1
 111 187 l 2
 110 187 106 186 106 184 c 0
 106 178 120 124 160 87 c 1
240 232 m 1
 312 365 l 1
 226 365 l 2
 164 365 117 298 106 237 c 0
 106 234 108 232 111 232 c 2
 240 232 l 1
EndSplineSet
EndChar

StartChar: summation
Encoding: 8721 8721 421
Width: 606
Flags: W
HStem: -3 33<33 63> 2 44<144 484> 612 30<33 68>
VStem: 498 30<511 556>
LayerCount: 2
Fore
SplineSet
217 46 m 0x70
 250 46 288 47 320 47 c 0
 357 47 451 49 479 64 c 0
 498 74 519 106 535 158 c 0
 536 162 542 164 549 164 c 0
 559 164 570 161 573 158 c 1
 554 105 528 39 521 -4 c 1
 415 -4 241 2 152 2 c 0x70
 87 2 37 -3 37 -3 c 1
 35 -1 33 7 33 15 c 0
 33 23 35 30 37 30 c 0xb0
 48 30 68 50 77 62 c 2
 276 310 l 2
 278 313 278 315 275 319 c 0
 262 339 163 478 88 578 c 0
 75 595 49 612 37 612 c 0
 35 612 33 619 33 626 c 0
 33 633 35 641 37 643 c 1
 37 643 85 641 150 641 c 0
 241 641 395 648 501 648 c 1
 508 600 519 560 528 516 c 1
 525 513 519 511 512 511 c 0
 505 511 499 513 498 518 c 0
 483 574 457 588 447 593 c 0
 430 601 392 602 358 602 c 2
 313 602 l 2
 293 602 263 603 236 603 c 0
 202 603 173 601 171 593 c 1
 355 350 l 1
 357 344 359 337 359 331 c 0
 359 326 357 322 354 319 c 0
 266 221 144 88 144 57 c 0
 144 50 151 46 217 46 c 0x70
EndSplineSet
EndChar

StartChar: minus
Encoding: 8722 8722 422
Width: 596
Flags: W
HStem: 213 55<80 520>
LayerCount: 2
Fore
SplineSet
513 213 m 1
 356 213 240 213 72 213 c 1
 60 213 73 263 87 268 c 9
 526 268 l 17
 540 268 527 220 513 213 c 1
EndSplineSet
EndChar

StartChar: uni2213
Encoding: 8723 8723 423
Width: 583
Flags: W
HStem: 216 56<68 267 321 518> 510 56<65 516>
VStem: 267 55<14 216 271 469>
LayerCount: 2
Fore
SplineSet
513 565 m 1
 513 565 523 566 521 554 c 0
 514 507 508 513 505 510 c 1
 67 510 l 1
 67 510 60 509 62 523 c 0
 67 558 69 565 75 565 c 2
 513 565 l 1
321 213 m 2
 321 25 l 1
 321 25 321 16 277 10 c 0
 274 10 273 9 271 9 c 0
 264 9 267 13 267 17 c 2
 267 211 l 2
 267 213 266 216 261 216 c 2
 66 216 l 1
 66 216 61 216 61 226 c 0
 61 230 61 243 68 266 c 0
 70 272 75 271 75 271 c 1
 262 271 l 2
 265 271 267 274 267 276 c 2
 267 462 l 1
 267 462 265 467 271 469 c 0
 294 476 308 477 312 477 c 0
 322 477 321 471 321 471 c 1
 321 275 l 2
 321 272 322 271 325 271 c 2
 521 271 l 2
 525 271 528 273 528 266 c 0
 528 257 525 243 519 222 c 0
 517 216 512 216 512 216 c 1
 325 216 l 2
 322 216 321 215 321 213 c 2
EndSplineSet
EndChar

StartChar: radical
Encoding: 8730 8730 424
Width: 503
Flags: HW
LayerCount: 2
Fore
SplineSet
10 164 m 1
 -4 170 -11 178 -11 182 c 0
 -11 189 1 195 12 201 c 0
 47 221 124 272 138 284 c 0
 146 291 160 291 163 283 c 1
 171 251 186 221 188 216 c 2
 302 -30 l 1
 310 12 440 772 440 772 c 1
 477 772 l 1
 477 772 339 -24 315 -149 c 1
 300 -167 289 -169 283 -169 c 0
 279 -169 274 -168 273 -164 c 2
 101 215 l 1
 10 164 l 1
EndSplineSet
EndChar

StartChar: proportional
Encoding: 8733 8733 425
Width: 698
Flags: W
HStem: 40 55<173 296 590 641> 354 59<170 288 574 633>
VStem: 53 68<149 302>
LayerCount: 2
Fore
SplineSet
121 224 m 0
 121 156 169 95 237 95 c 0
 301 95 353 168 395 213 c 0
 396 214 396 214 395 215 c 0
 363 253 298 354 230 354 c 0
 164 354 121 290 121 224 c 0
624 42 m 1
 496 42 430 176 419 176 c 2
 418 176 l 1
 366 114 308 40 211 40 c 0
 118 40 53 125 53 218 c 0
 53 324 136 412 242 412 c 0
 337 412 406 326 446 279 c 0
 447 277 451 276 452 278 c 0
 489 324 546 394 625 409 c 1
 627 409 l 2
 633 409 635 403 635 394 c 0
 635 379 629 358 629 358 c 1
 569 358 510 279 476 240 c 0
 475 239 474 238 475 237 c 0
 520 180 576 98 643 98 c 0
 649 98 650 94 650 89 c 0
 650 74 633 45 624 42 c 1
EndSplineSet
EndChar

StartChar: infinity
Encoding: 8734 8734 426
Width: 869
Flags: W
HStem: 42 56<168 297 583 699> 354 59<170 288 573 700>
VStem: 53 67<151 302> 747 69<148 302>
LayerCount: 2
Fore
SplineSet
628 358 m 0
 568 358 510 279 476 240 c 0
 475 239 474 238 475 237 c 0
 520 180 576 98 643 98 c 0
 708 98 747 163 747 228 c 0
 747 297 697 358 628 358 c 0
120 224 m 0
 120 156 169 95 237 95 c 0
 301 95 353 168 395 213 c 0
 396 214 396 214 395 215 c 0
 363 253 298 354 230 354 c 0
 164 354 120 290 120 224 c 0
242 412 m 0
 337 412 406 326 446 279 c 0
 447 277 451 276 452 278 c 0
 493 330 559 412 654 412 c 0
 747 412 816 329 816 236 c 0
 816 129 730 42 623 42 c 0
 495 42 429 176 418 176 c 2
 417 176 l 1
 365 114 306 40 210 40 c 0
 117 40 53 125 53 218 c 0
 53 324 136 412 242 412 c 0
EndSplineSet
EndChar

StartChar: notequal
Encoding: 8800 8800 427
Width: 564
Flags: W
HStem: 114 55<63 199 280 505> 253 55<63 276 358 505>
LayerCount: 2
Fore
SplineSet
358 308 m 1
 503 308 l 2
 507 308 511 310 511 303 c 0
 511 294 507 280 501 259 c 0
 499 253 495 253 495 253 c 1
 327 253 l 1
 280 169 l 1
 503 169 l 2
 507 169 511 171 511 164 c 0
 511 155 507 141 501 120 c 0
 499 114 495 114 495 114 c 1
 250 114 l 1
 194 13 l 1
 194 13 194 11 190 11 c 0
 187 11 170 14 157 30 c 0
 153 34 156 37 156 37 c 1
 199 114 l 1
 61 114 l 1
 61 114 54 114 54 124 c 0
 54 128 55 141 62 164 c 0
 64 170 69 169 69 169 c 1
 229 169 l 1
 276 253 l 1
 61 253 l 1
 61 253 54 253 54 263 c 0
 54 267 55 280 62 303 c 0
 64 309 69 308 69 308 c 1
 306 308 l 1
 355 396 l 1
 355 396 355 399 359 399 c 0
 365 399 378 397 391 382 c 0
 396 377 394 372 394 372 c 1
 358 308 l 1
EndSplineSet
EndChar

StartChar: lessequal
Encoding: 8804 8804 428
Width: 504
Flags: W
HStem: 6 55<44 426>
LayerCount: 2
Fore
SplineSet
423 61 m 1
 423 61 432 62 430 50 c 0
 423 3 418 9 415 6 c 1
 42 6 l 1
 42 6 33 5 35 19 c 0
 37 33 38 36 44 56 c 0
 46 62 51 61 51 61 c 1
 423 61 l 1
438 133 m 0
 438 126 428 84 422 84 c 0
 421 84 419 85 417 86 c 2
 51 272 l 2
 36 280 33 294 33 311 c 0
 33 322 41 329 51 334 c 2
 411 517 l 2
 413 518 415 519 416 519 c 0
 419 519 426 509 433 473 c 0
 434 467 430 464 430 464 c 1
 111 303 l 1
 435 139 l 1
 435 139 438 138 438 133 c 0
EndSplineSet
EndChar

StartChar: greaterequal
Encoding: 8805 8805 429
Width: 503
Flags: W
HStem: 6 55<74 457>
LayerCount: 2
Fore
SplineSet
72 472 m 0
 72 490 84 519 88 519 c 0
 89 519 91 518 93 517 c 2
 454 334 l 2
 464 329 471 322 471 311 c 0
 471 294 469 280 454 272 c 2
 88 86 l 2
 83 84 82 80 77 93 c 0
 71 108 66 129 66 133 c 0
 66 137 69 139 69 139 c 1
 393 303 l 1
 75 464 l 1
 75 464 72 465 72 472 c 0
70 15 m 0
 70 16 74 61 85 61 c 2
 459 61 l 2
 461 61 465 60 465 53 c 0
 465 45 462 29 457 13 c 0
 455 7 450 6 450 6 c 1
 77 6 l 1
 77 6 70 5 70 15 c 0
EndSplineSet
EndChar

StartChar: propersubset
Encoding: 8834 8834 430
Width: 496
Flags: W
HStem: 0 55<176 432> 346 57<173 432>
VStem: 51 64<119 283>
LayerCount: 2
Fore
SplineSet
433 55 m 1
 433 55 439 56 439 47 c 0
 439 39 437 23 432 7 c 0
 430 1 425 0 425 0 c 1
 243 0 l 2
 134 0 51 92 51 201 c 0
 51 307 127 402 233 402 c 0
 311 402 433 401 433 401 c 1
 433 401 439 402 439 393 c 0
 439 385 437 369 432 353 c 0
 430 347 425 346 425 346 c 1
 233 346 l 2
 160 346 115 274 115 201 c 0
 115 126 166 55 241 55 c 2
 433 55 l 1
EndSplineSet
EndChar

StartChar: f_f
Encoding: 65536 -1 431
Width: 546
Flags: W
HStem: -3 28<24 88 174 241 273 337 423 490> 382 40<39 93 168 342 417 533> 609 38<227 333> 629 52<464 544>
VStem: 93 75<32 382 422 511> 342 75<32 382 422 553> 362 56<422 583>
LayerCount: 2
Fore
SplineSet
489 629 m 0xdc
 445 629 417 589 417 492 c 2
 417 422 l 1
 530 422 l 2
 535 422 535 417 535 411 c 0
 535 402 530 391 521 382 c 1
 417 382 l 1
 417 113 l 2
 417 84 417 57 422 41 c 0
 425 30 476 25 488 25 c 1
 492 20 493 2 488 -3 c 1
 448 -1 417 2 379 2 c 0
 341 2 316 -1 276 -3 c 1
 271 2 272 20 276 25 c 1
 288 25 334 30 337 41 c 0
 342 57 342 84 342 113 c 2
 342 382 l 1
 168 382 l 17
 168 113 l 2
 168 84 168 57 173 41 c 0
 176 30 227 25 239 25 c 1
 243 20 244 2 239 -3 c 1
 199 -1 168 2 130 2 c 0
 92 2 67 -1 27 -3 c 1
 22 2 23 20 27 25 c 1
 39 25 85 30 88 41 c 0
 93 57 93 84 93 113 c 2
 93 382 l 1
 37 382 l 2
 35 382 34 384 34 391 c 0
 34 396 49 422 62 422 c 2
 93 422 l 1
 93 428 l 2
 93 535 202 647 294 647 c 0xec
 354 647 397 627 411 612 c 1
 437 646 487 681 536 681 c 0
 554 681 571 673 577 668 c 1
 581 660 582 652 582 642 c 0
 582 615 563 599 548 599 c 0
 535 599 522 606 515 615 c 0
 509 622 500 629 489 629 c 0xdc
357 542 m 0
 359 547 362 551 362 553 c 0xea
 362 554 362 554 361 557 c 0
 357 567 334 609 273 609 c 0
 194 609 168 524 168 437 c 2
 168 422 l 9
 342 422 l 1
 342 455 l 2
 342 475 351 522 357 542 c 0
EndSplineSet
LCarets2: 1 259
Ligature2: "'liga' Standard Ligatures lookup 0-1" f f
EndChar

StartChar: f_i
Encoding: 65537 -1 432
Width: 519
Flags: W
HStem: -3 28<25 89 175 242 289 352 439 502> 369 40<40 94 169 343> 404 20G<433 436> 635 46<225 325>
VStem: 94 75<32 369 409 525> 347 88<538 605> 358 75<32 358>
LayerCount: 2
Fore
SplineSet
282 409 m 0xdc
 327 409 392 412 428 423 c 0
 429 423 432 424 433 424 c 0xba
 439 424 439 408 438 403 c 0
 434 372 433 366 433 333 c 2
 433 113 l 2
 433 84 433 57 438 41 c 0
 441 30 487 25 499 25 c 1
 503 20 504 2 499 -3 c 1
 459 -1 433 2 395 2 c 0
 357 2 331 -1 291 -3 c 1
 286 2 287 20 291 25 c 1
 303 25 350 30 353 41 c 0
 358 57 358 84 358 113 c 2
 358 298 l 2
 358 317 354 335 344 351 c 0
 334 368 301 369 273 369 c 0
 169 369 l 1
 169 113 l 2
 169 84 169 57 174 41 c 0
 177 30 228 25 240 25 c 1
 244 20 245 2 240 -3 c 1
 200 -1 169 2 131 2 c 0
 93 2 68 -1 28 -3 c 1
 23 2 24 20 28 25 c 1
 40 25 86 30 89 41 c 0
 94 57 94 84 94 113 c 2
 94 369 l 1
 37 369 l 2
 35 369 35 371 35 378 c 0
 35 383 50 409 63 409 c 2
 94 409 l 1xda
 94 424 l 2xba
 94 536 183 681 296 681 c 0
 341 681 383 655 403 634 c 0
 421 616 435 593 435 571 c 0
 435 550 417 531 392 531 c 0
 368 531 355 546 347 566 c 0
 341 581 337 596 331 605 c 0
 318 623 305 635 270 635 c 0
 213 635 169 543 169 456 c 2
 169 409 l 1
 282 409 l 0xdc
EndSplineSet
LCarets2: 1 269
Ligature2: "'liga' Standard Ligatures lookup 0-1" f i
EndChar

StartChar: f_f_i
Encoding: 65538 -1 433
Width: 795
Flags: W
HStem: -3 28<25 81 184 237 298 353 457 509 564 620 722 778> 363 46<40 97 171 369 443 624> 406 20G<708 711> 627 38<229 331> 641 38<495 583>
VStem: 97 74<36 363 409 530> 369 74<36 363 409 528> 633 75<36 355>
LayerCount: 2
Fore
SplineSet
633 113 m 2xa7
 633 303 l 2
 633 311 632 333 621 349 c 0
 612 362 563 363 550 363 c 2
 449 363 l 2
 446 363 443 360 443 357 c 2
 443 132 l 2
 443 100 444 71 451 45 c 0
 454 34 498 25 506 25 c 0
 511 25 511 3 509 -3 c 1
 470 -1 443 2 404 2 c 0
 364 2 342 -1 302 -3 c 1
 300 -1 298 6 298 12 c 0
 298 18 300 25 302 25 c 0
 314 25 355 34 358 45 c 0
 366 75 367 98 367 132 c 2
 367 132 369 269 369 356 c 0
 369 359 367 363 364 363 c 2
 177 363 l 2
 174 363 171 360 171 357 c 2
 171 132 l 2
 171 100 172 71 179 45 c 0
 182 34 225 25 233 25 c 0
 238 25 238 3 236 -3 c 1
 197 -1 171 2 132 2 c 0
 92 2 69 -1 29 -3 c 1
 27 -1 25 6 25 12 c 0
 25 18 27 25 29 25 c 0
 41 25 83 34 86 45 c 0
 94 75 95 98 95 132 c 2
 95 132 97 269 97 356 c 0
 97 359 95 363 92 363 c 2
 40 363 l 2
 38 363 37 365 37 369 c 0
 37 382 47 409 52 409 c 2
 92 409 l 2
 95 409 97 412 97 415 c 2
 97 428 l 2
 97 570 210 665 302 665 c 0xd7
 374 665 416 616 426 599 c 1
 464 649 514 679 563 679 c 0
 591 679 624 670 651 656 c 0
 681 640 704 620 704 598 c 0
 704 571 687 552 660 552 c 0
 643 552 627 559 619 573 c 0
 606 595 583 641 533 641 c 0
 473 641 438 551 443 464 c 1
 443 414 l 2
 443 412 446 409 448 409 c 2
 557 409 l 2xcf
 600 409 672 411 703 423 c 0
 704 423 707 426 708 426 c 0
 714 426 713 408 713 403 c 0
 709 372 708 366 708 333 c 2
 708 132 l 2
 708 100 709 71 716 45 c 0
 719 34 766 25 774 25 c 0
 779 25 779 3 777 -3 c 1
 738 -1 710 2 673 2 c 0
 633 2 606 -1 566 -3 c 1
 561 2 561 25 566 25 c 0
 578 25 623 34 626 45 c 0
 632 69 633 99 633 113 c 2xa7
268 627 m 0
 204 627 171 551 171 464 c 2
 171 414 l 2
 171 412 174 409 176 409 c 2
 364 409 l 2
 367 409 369 412 369 415 c 2
 369 419 l 2
 369 449 373 488 381 514 c 0
 383 519 383 525 383 528 c 0
 383 532 380 542 379 545 c 0
 373 554 351 627 268 627 c 0
EndSplineSet
LCarets2: 2 269 537
Ligature2: "'liga' Standard Ligatures lookup 0-1" f f i
EndChar

StartChar: f_l
Encoding: 65539 -1 434
Width: 541
Flags: W
HStem: -3 28<25 82 183 240 310 366 467 524> 363 46<39 95 170 285> 641 38<224 313>
VStem: 95 74<36 363 409 536> 379 75<36 581>
LayerCount: 2
Fore
SplineSet
94 113 m 2
 94 113 95 269 95 356 c 0
 95 359 94 363 91 363 c 2
 39 363 l 2
 37 363 36 365 36 369 c 0
 36 382 46 409 51 409 c 2
 91 409 l 2
 94 409 95 412 95 415 c 2
 95 428 l 2
 95 570 198 679 290 679 c 0
 319 679 357 656 382 656 c 0
 413 656 447 678 450 678 c 2
 453 678 l 2
 459 678 464 667 465 662 c 1
 465 662 454 631 454 577 c 2
 454 132 l 2
 454 100 455 71 462 45 c 0
 465 34 512 25 520 25 c 0
 525 25 525 3 523 -3 c 1
 484 -1 456 2 419 2 c 0
 379 2 352 -1 312 -3 c 1
 307 2 307 25 312 25 c 0
 324 25 369 34 372 45 c 0
 378 69 379 99 379 113 c 2
 379 489 l 2
 379 500 375 550 368 565 c 0
 358 586 310 641 260 641 c 0
 200 641 170 551 170 464 c 2
 170 414 l 2
 170 412 173 409 175 409 c 2
 283 409 l 2
 288 409 288 408 288 402 c 0
 288 393 283 377 276 363 c 1
 176 363 l 2
 173 363 170 360 170 357 c 2
 170 132 l 1
 171 100 170 71 177 45 c 0
 180 34 228 25 236 25 c 0
 241 25 241 3 239 -3 c 1
 200 -1 172 2 135 2 c 0
 95 2 68 -1 28 -3 c 1
 23 2 23 25 28 25 c 0
 40 25 85 34 88 45 c 0
 94 69 94 99 94 113 c 2
EndSplineSet
LCarets2: 1 273
Ligature2: "'liga' Standard Ligatures lookup 0-1" f l
EndChar

StartChar: f_f_l
Encoding: 65540 -1 435
Width: 813
Flags: W
HStem: -3 28<26 82 185 238 299 354 458 510 582 639 740 796> 363 46<39 96 172 368 442 557> 627 38<228 330> 641 38<493 586>
VStem: 96 74<36 363 409 530> 368 74<36 363> 382 61<409 575> 651 75<36 581>
LayerCount: 2
Fore
SplineSet
651 113 m 2xdd
 651 489 l 2
 651 500 648 550 641 565 c 0
 631 586 582 641 532 641 c 0
 472 641 442 551 442 464 c 2
 442 414 l 2xdb
 442 412 445 409 447 409 c 2
 556 409 l 2
 561 409 561 408 561 402 c 0
 561 393 556 377 549 363 c 1
 448 363 l 2
 445 363 442 360 442 357 c 0
 442 269 444 132 444 132 c 2
 444 100 445 71 452 45 c 0
 455 34 499 25 507 25 c 0
 512 25 512 3 510 -3 c 1
 471 -1 444 2 405 2 c 0
 365 2 343 -1 303 -3 c 1
 301 -1 299 6 299 12 c 0
 299 18 301 25 303 25 c 0
 315 25 356 34 359 45 c 0
 367 75 368 98 368 132 c 2
 368 356 l 2
 368 359 366 363 363 363 c 2
 177 363 l 2
 173 363 170 360 170 357 c 0
 170 269 172 132 172 132 c 2
 172 100 173 71 180 45 c 0
 183 34 226 25 234 25 c 0
 239 25 239 3 237 -3 c 1
 198 -1 172 2 133 2 c 0
 93 2 70 -1 30 -3 c 1
 28 -1 26 6 26 12 c 0
 26 18 28 25 30 25 c 0
 42 25 84 34 87 45 c 0
 95 75 96 98 96 132 c 2
 96 356 l 2
 96 359 94 363 91 363 c 2
 39 363 l 2
 37 363 36 365 36 369 c 0
 36 382 46 409 51 409 c 2
 91 409 l 2
 94 409 96 412 96 415 c 2
 96 428 l 2
 96 570 209 665 301 665 c 0xed
 373 665 415 616 425 599 c 1
 462 650 513 679 562 679 c 0
 591 679 629 656 654 656 c 0
 685 656 720 678 723 678 c 2
 726 678 l 2
 732 678 736 667 737 662 c 1
 737 662 727 631 727 577 c 2
 727 132 l 2
 727 100 727 71 734 45 c 0
 737 34 785 25 793 25 c 0
 798 25 798 3 796 -3 c 1
 757 -1 728 2 691 2 c 0
 651 2 625 -1 585 -3 c 1
 580 2 580 25 585 25 c 0
 597 25 642 34 645 45 c 0
 651 69 651 99 651 113 c 2xdd
378 545 m 0
 372 554 350 627 267 627 c 0
 203 627 170 551 170 464 c 2
 170 414 l 2
 170 412 173 409 175 409 c 2
 363 409 l 2
 366 409 367 414 368 419 c 2xed
 368 419 372 488 380 514 c 0
 382 519 382 525 382 528 c 0
 382 532 379 542 378 545 c 0
EndSplineSet
LCarets2: 2 273 547
Ligature2: "'liga' Standard Ligatures lookup 0-1" f f l
EndChar

StartChar: f_b
Encoding: 65541 -1 436
Width: 798
Flags: W
HStem: -7 33<26 86 182 238 489 597> 363 46<40 97 171 286> 370 5<461 532> 641 38<225 314>
VStem: 97 74<36 363 409 536> 380 75<52 344 375 581> 676 82<131 292>
LayerCount: 2
Fore
SplineSet
380 490 m 2xbe
 380 501 376 550 369 565 c 0
 359 586 311 641 261 641 c 0
 201 641 171 551 171 464 c 2
 171 414 l 2
 171 412 174 409 176 409 c 2
 284 409 l 2
 289 409 289 408 289 402 c 0
 289 393 284 377 277 363 c 1
 177 363 l 2
 174 363 171 360 171 357 c 0
 171 269 172 132 172 132 c 2
 172 100 173 71 180 45 c 0
 183 34 226 25 234 25 c 0
 239 25 239 3 237 -3 c 1
 198 -1 172 2 133 2 c 0
 93 2 70 -1 30 -3 c 1
 28 -1 26 6 26 12 c 0
 26 18 28 25 30 25 c 0
 42 25 84 34 87 45 c 0
 95 75 96 98 96 132 c 2
 96 132 97 269 97 356 c 0
 97 359 95 363 92 363 c 2
 40 363 l 2
 38 363 37 365 37 369 c 0
 37 382 47 409 52 409 c 2
 92 409 l 2xde
 95 409 97 412 97 415 c 2
 97 428 l 2
 97 570 199 679 291 679 c 0
 320 679 358 656 383 656 c 0
 414 656 448 678 451 678 c 2
 454 678 l 2
 460 678 465 667 466 662 c 1
 466 662 455 631 455 577 c 2
 455 385 l 2
 455 380 455 370 461 375 c 0
 476 386 542 428 579 428 c 0
 696 428 758 317 758 228 c 0
 758 100 656 -7 517 -7 c 0
 502 -7 465 2 444 8 c 0
 423 14 403 22 381 14 c 1
 376 14 368 30 368 35 c 1
 377 55 380 87 380 107 c 2
 380 490 l 2xbe
532 370 m 0xbe
 507 370 469 353 460 344 c 0
 457 341 455 338 455 333 c 2
 455 96 l 2
 455 54 503 26 546 26 c 0
 616 26 676 110 676 189 c 0
 676 302 619 370 532 370 c 0xbe
EndSplineSet
LCarets2: 1 332
Ligature2: "'liga' Standard Ligatures lookup 0-1" f b
EndChar

StartChar: f_f_b
Encoding: 65542 -1 437
Width: 1070
Flags: W
HStem: -3 28<26 82 185 238 299 354 458 510 766 863> 363 46<39 96 172 368 442 557> 370 5<732 804> 627 38<228 330> 641 38<493 586>
VStem: 96 74<36 363 409 530> 368 74<36 363> 382 61<409 575> 651 75<52 344 375 581> 947 82<131 292>
LayerCount: 2
Fore
SplineSet
651 489 m 2xaec0
 651 509 648 550 641 565 c 0
 631 586 582 641 532 641 c 0
 472 641 442 551 442 464 c 2
 442 414 l 2xadc0
 442 412 445 409 447 409 c 2
 556 409 l 2
 561 409 561 408 561 402 c 0
 561 393 556 377 549 363 c 1
 448 363 l 2
 445 363 442 360 442 357 c 0
 442 269 444 132 444 132 c 2
 444 100 445 71 452 45 c 0
 455 34 499 25 507 25 c 0
 512 25 512 3 510 -3 c 1
 471 -1 444 2 405 2 c 0
 365 2 343 -1 303 -3 c 1
 301 -1 299 6 299 12 c 0
 299 18 301 25 303 25 c 0
 315 25 356 34 359 45 c 0
 367 75 368 98 368 132 c 2
 368 356 l 2
 368 359 366 363 363 363 c 2
 177 363 l 2
 173 363 170 360 170 357 c 0
 170 269 172 132 172 132 c 2
 172 100 173 71 180 45 c 0
 183 34 226 25 234 25 c 0
 239 25 239 3 237 -3 c 1
 198 -1 172 2 133 2 c 0
 93 2 70 -1 30 -3 c 1
 28 -1 26 6 26 12 c 0
 26 18 28 25 30 25 c 0
 42 25 84 34 87 45 c 0
 95 75 96 98 96 132 c 2
 96 356 l 2
 96 359 94 363 91 363 c 2
 39 363 l 2
 37 363 36 365 36 369 c 0
 36 382 46 409 51 409 c 2
 91 409 l 2
 94 409 96 412 96 415 c 2
 96 428 l 2
 96 570 209 665 301 665 c 0xd6c0
 373 665 415 616 425 599 c 1
 462 650 513 679 562 679 c 0
 591 679 629 656 654 656 c 0
 685 656 720 678 723 678 c 2
 726 678 l 2
 732 678 736 667 737 662 c 1
 737 662 727 631 727 577 c 2
 727 385 l 2
 727 380 726 370 732 375 c 0
 747 386 814 428 851 428 c 0
 968 428 1029 317 1029 228 c 0
 1029 100 927 -7 788 -7 c 0
 773 -7 737 2 716 8 c 0
 695 14 674 22 652 14 c 1
 647 14 640 30 640 35 c 1
 649 55 651 87 651 107 c 2
 651 489 l 2xaec0
804 370 m 0
 779 370 740 353 731 344 c 0
 728 341 727 338 727 333 c 2
 727 96 l 2
 727 54 774 26 817 26 c 0
 887 26 947 110 947 189 c 0
 947 302 891 370 804 370 c 0
378 545 m 0
 372 554 350 627 267 627 c 0
 203 627 170 551 170 464 c 2
 170 414 l 2
 170 412 173 409 175 409 c 2
 363 409 l 2
 366 409 367 414 368 419 c 2xd6c0
 368 419 372 488 380 514 c 0
 382 519 382 525 382 528 c 0
 382 532 379 542 378 545 c 0
EndSplineSet
LCarets2: 2 273 586
Ligature2: "'liga' Standard Ligatures lookup 0-1" f f b
EndChar

StartChar: f_k
Encoding: 65543 -1 438
Width: 788
Flags: W
HStem: -3 28<26 82 185 238 310 373 460 523 723 792> 363 46<40 97 171 286> 387 28<575 624 699 761> 641 38<225 315>
VStem: 97 74<36 363 409 536> 379 75<32 199 229 582>
LayerCount: 2
Fore
SplineSet
379 488 m 2xbc
 379 499 376 548 369 565 c 0
 360 586 311 641 261 641 c 0
 201 641 171 551 171 464 c 2
 171 414 l 2
 171 412 174 409 176 409 c 2
 284 409 l 2
 289 409 289 408 289 402 c 0
 289 393 284 377 277 363 c 1
 177 363 l 2
 174 363 171 360 171 357 c 0
 171 269 172 132 172 132 c 2
 172 100 173 71 180 45 c 0
 183 34 226 25 234 25 c 0
 239 25 239 3 237 -3 c 1
 198 -1 172 2 133 2 c 0
 93 2 70 -1 30 -3 c 1
 28 -1 26 6 26 12 c 0
 26 18 28 25 30 25 c 0
 42 25 84 34 87 45 c 0
 95 75 96 98 96 132 c 2
 96 132 97 269 97 356 c 0
 97 359 95 363 92 363 c 2
 40 363 l 2
 38 363 37 365 37 369 c 0
 37 382 47 409 52 409 c 2
 92 409 l 2xdc
 95 409 97 412 97 415 c 2
 97 428 l 2
 97 570 199 679 291 679 c 0
 320 679 358 656 383 656 c 0
 414 656 448 678 451 678 c 2
 454 678 l 2
 460 678 465 667 466 662 c 1
 466 662 454 631 454 577 c 2
 454 229 l 1
 471 235 501 261 534 289 c 0
 585 332 624 360 624 370 c 0
 624 385 586 386 577 387 c 1
 572 394 574 413 579 415 c 1
 607 412 642 410 673 410 c 0
 706 410 738 412 759 415 c 1
 763 409 762 391 759 387 c 1
 745 387 705 379 684 364 c 0
 673 356 583 292 525 243 c 1
 598 164 678 72 701 52 c 0
 726 31 766 24 791 25 c 1
 793 22 795 7 792 2 c 1
 785 -1 755 -4 729 -4 c 0
 671 -4 623 23 608 39 c 2
 608 39 525 129 469 190 c 0
 465 195 454 199 454 199 c 1
 454 113 l 2
 454 84 454 57 459 41 c 0
 462 30 509 25 521 25 c 1
 525 20 526 2 521 -3 c 1
 481 -1 454 2 416 2 c 0
 378 2 352 -1 312 -3 c 1
 307 2 308 20 312 25 c 1
 324 25 371 30 374 41 c 0
 379 57 379 84 379 113 c 2
 379 488 l 2xbc
EndSplineSet
LCarets2: 1 293
Ligature2: "'liga' Standard Ligatures lookup 0-1" f k
EndChar

StartChar: f_f_k
Encoding: 65544 -1 439
Width: 1059
Flags: W
HStem: -3 28<26 82 185 238 299 354 458 510 581 645 731 795 995 1064> 363 46<39 96 172 368 442 557> 387 28<847 895 971 1032> 627 38<228 330> 641 38<493 586>
VStem: 96 74<36 363 409 530> 368 74<36 363> 381 62<409 578> 650 75<32 199 229 582>
LayerCount: 2
Fore
SplineSet
650 489 m 2xae80
 650 500 648 550 641 565 c 0
 632 586 582 641 532 641 c 0
 472 641 442 551 442 464 c 2
 442 414 l 2xad80
 442 412 445 409 447 409 c 2
 556 409 l 2
 561 409 561 408 561 402 c 0
 561 393 556 377 549 363 c 1
 448 363 l 2
 445 363 442 360 442 357 c 0
 442 269 444 132 444 132 c 2
 444 100 445 71 452 45 c 0
 455 34 499 25 507 25 c 0
 512 25 512 3 510 -3 c 1
 471 -1 444 2 405 2 c 0
 365 2 343 -1 303 -3 c 1
 301 -1 299 6 299 12 c 0
 299 18 301 25 303 25 c 0
 315 25 356 34 359 45 c 0
 367 75 367 98 368 132 c 1
 368 356 l 2
 368 359 366 363 363 363 c 2
 177 363 l 2
 173 363 170 360 170 357 c 0
 170 269 172 132 172 132 c 2
 172 100 173 71 180 45 c 0
 183 34 226 25 234 25 c 0
 239 25 239 3 237 -3 c 1
 198 -1 172 2 133 2 c 0
 93 2 70 -1 30 -3 c 1
 28 -1 26 6 26 12 c 0
 26 18 28 25 30 25 c 0
 42 25 84 34 87 45 c 0
 95 75 95 98 96 132 c 1
 96 356 l 2
 96 359 94 363 91 363 c 2
 39 363 l 2
 37 363 36 365 36 369 c 0
 36 382 46 409 51 409 c 2
 91 409 l 2xce80
 94 409 96 412 96 415 c 2
 96 428 l 2
 96 570 209 665 301 665 c 0xb680
 373 665 415 616 425 599 c 1
 462 650 513 679 562 679 c 0
 591 679 630 656 654 656 c 0
 685 656 720 678 723 678 c 2
 726 678 l 2
 732 678 736 667 737 662 c 1
 737 662 726 631 726 577 c 2
 726 229 l 1
 743 235 773 261 806 289 c 0
 857 332 896 360 896 370 c 0
 896 385 858 386 849 387 c 1
 844 394 846 413 851 415 c 1
 879 412 913 410 944 410 c 0
 977 410 1009 412 1030 415 c 1
 1034 409 1033 391 1030 387 c 1
 1016 387 976 379 955 364 c 0
 944 356 855 292 797 243 c 1
 870 164 950 72 973 52 c 0
 998 31 1037 24 1062 25 c 1
 1064 22 1066 7 1063 2 c 1
 1056 -1 1026 -4 1000 -4 c 0
 942 -4 895 23 880 39 c 2
 880 39 796 129 740 190 c 0
 736 195 726 199 726 199 c 1
 726 113 l 2
 726 84 725 57 730 41 c 0
 733 30 780 25 792 25 c 1
 796 20 797 2 792 -3 c 1
 752 -1 726 2 688 2 c 0
 650 2 624 -1 584 -3 c 1
 579 2 580 20 584 25 c 1
 596 25 643 30 646 41 c 0
 651 57 650 84 650 113 c 2
 650 489 l 2xae80
377 545 m 0
 372 554 350 627 267 627 c 0
 203 627 170 551 170 464 c 2
 170 414 l 2
 170 412 173 409 175 409 c 2
 363 409 l 2
 366 409 367 414 368 419 c 2xd680
 368 419 372 488 379 514 c 0
 381 519 381 525 381 528 c 0
 381 532 378 542 377 545 c 0
EndSplineSet
LCarets2: 2 269 566
Ligature2: "'liga' Standard Ligatures lookup 0-1" f f k
EndChar

StartChar: f_h
Encoding: 65545 -1 440
Width: 792
Flags: W
HStem: -3 28<27 81 182 233 309 372 459 522 573 636 722 786> 363 46<39 95 169 284> 371 57<526 611> 641 38<223 312>
VStem: 95 74<35 363 409 536> 378 75<32 339 354 581> 642 75<32 339>
LayerCount: 2
Fore
SplineSet
378 486 m 2xbe
 378 503 374 550 367 565 c 0
 357 586 309 641 259 641 c 0
 199 641 169 551 169 464 c 2
 169 414 l 2
 169 412 172 409 174 409 c 2
 282 409 l 2
 287 409 287 408 287 402 c 0
 287 393 282 377 275 363 c 1
 175 363 l 2
 172 363 169 360 169 357 c 0
 169 269 170 132 170 132 c 2
 170 100 171 71 178 45 c 0
 181 34 221 23 229 23 c 0
 234 23 234 3 232 -3 c 1
 193 -1 173 2 134 2 c 0
 94 2 71 -1 31 -3 c 1
 29 -1 27 6 27 12 c 0
 27 18 29 23 31 23 c 0
 43 23 82 34 85 45 c 0
 93 75 94 98 94 132 c 2
 94 132 95 269 95 356 c 0
 95 359 93 363 90 363 c 2
 38 363 l 2
 36 363 35 365 35 369 c 0
 35 382 45 409 50 409 c 2
 90 409 l 2xde
 93 409 95 412 95 415 c 2
 95 428 l 2
 95 570 197 679 289 679 c 0
 318 679 356 656 381 656 c 0
 412 656 446 678 449 678 c 2
 452 678 l 2
 458 678 463 667 464 662 c 1
 464 662 453 631 453 577 c 2
 453 577 453 364 453 356 c 0
 453 355 454 354 456 354 c 0
 457 354 458 355 459 356 c 0
 479 377 544 428 591 428 c 0
 696 428 717 363 717 221 c 2
 717 113 l 2
 717 84 717 57 722 41 c 0
 725 30 771 25 783 25 c 1
 787 20 788 2 783 -3 c 1
 743 -1 717 2 679 2 c 0
 641 2 615 -1 575 -3 c 1
 570 2 571 20 575 25 c 1
 587 25 634 30 637 41 c 0
 642 57 642 84 642 113 c 2
 642 211 l 2
 642 332 622 371 546 371 c 0
 510 371 453 326 453 317 c 2
 453 113 l 2
 453 84 453 57 458 41 c 0
 461 30 508 25 520 25 c 1
 524 20 525 2 520 -3 c 1
 480 -1 453 2 415 2 c 0
 377 2 352 -1 312 -3 c 1
 307 2 308 20 312 25 c 1
 324 25 370 30 373 41 c 0
 378 57 378 84 378 113 c 2
 378 486 l 2xbe
EndSplineSet
LCarets2: 1 293
Ligature2: "'liga' Standard Ligatures lookup 0-1" f h
EndChar

StartChar: f_f_h
Encoding: 65546 -1 441
Width: 1066
Flags: W
HStem: -3 28<26 82 185 238 299 354 458 510 582 646 732 796 846 909 996 1059> 363 46<39 96 172 368 442 557> 371 57<800 884> 627 38<228 330> 641 38<493 586>
VStem: 96 74<36 363 409 530> 368 74<36 363> 381 62<409 578> 651 75<32 339 354 582> 915 75<32 339>
LayerCount: 2
Fore
SplineSet
651 486 m 2xaec0
 651 501 648 550 641 565 c 0
 632 586 582 641 532 641 c 0
 472 641 442 551 442 464 c 2
 442 414 l 2xadc0
 442 412 445 409 447 409 c 2
 556 409 l 2
 561 409 561 408 561 402 c 0
 561 393 556 377 549 363 c 1
 448 363 l 2
 445 363 442 360 442 357 c 0
 442 269 444 132 444 132 c 2
 444 100 445 71 452 45 c 0
 455 34 499 25 507 25 c 0
 512 25 512 3 510 -3 c 1
 471 -1 444 2 405 2 c 0
 365 2 343 -1 303 -3 c 1
 301 -1 299 6 299 12 c 0
 299 18 301 25 303 25 c 0
 315 25 356 34 359 45 c 0
 367 75 367 98 368 132 c 1
 368 356 l 2
 368 359 366 363 363 363 c 2
 177 363 l 2
 173 363 170 360 170 357 c 0
 170 269 172 132 172 132 c 2
 172 100 173 71 180 45 c 0
 183 34 226 25 234 25 c 0
 239 25 239 3 237 -3 c 1
 198 -1 172 2 133 2 c 0
 93 2 70 -1 30 -3 c 1
 28 -1 26 6 26 12 c 0
 26 18 28 25 30 25 c 0
 42 25 84 34 87 45 c 0
 95 75 95 98 96 132 c 1
 96 356 l 2
 96 359 94 363 91 363 c 2
 39 363 l 2
 37 363 36 365 36 369 c 0
 36 382 46 409 51 409 c 2
 91 409 l 2xcec0
 94 409 96 412 96 415 c 2
 96 428 l 2
 96 570 209 665 301 665 c 0xb6c0
 373 665 415 616 425 599 c 1
 462 650 513 679 562 679 c 0
 591 679 630 656 654 656 c 0
 685 656 720 678 723 678 c 2
 726 678 l 2
 732 678 736 667 737 662 c 1
 737 662 727 631 727 577 c 2
 727 577 727 364 727 356 c 0
 727 355 727 354 729 354 c 0
 730 354 731 355 732 356 c 0
 752 377 817 428 864 428 c 0
 969 428 990 363 990 221 c 2
 990 113 l 2
 990 84 990 57 995 41 c 0
 998 30 1045 25 1057 25 c 1
 1061 20 1062 2 1057 -3 c 1
 1017 -1 990 2 952 2 c 0
 914 2 889 -1 849 -3 c 1
 844 2 845 20 849 25 c 1
 861 25 907 30 910 41 c 0
 915 57 915 84 915 113 c 2
 915 211 l 2
 915 332 895 371 819 371 c 0
 783 371 727 326 727 317 c 2
 727 113 l 2
 727 84 726 57 731 41 c 0
 734 30 781 25 793 25 c 1
 797 20 798 2 793 -3 c 1
 753 -1 726 2 688 2 c 0
 650 2 625 -1 585 -3 c 1
 580 2 581 20 585 25 c 1
 597 25 643 30 646 41 c 0
 651 57 651 84 651 113 c 2
 651 486 l 2xaec0
377 545 m 0
 372 554 350 627 267 627 c 0
 203 627 170 551 170 464 c 2
 170 414 l 2
 170 412 173 409 175 409 c 2
 363 409 l 2
 366 409 367 414 368 419 c 2xd6c0
 368 419 372 488 379 514 c 0
 381 519 381 525 381 528 c 0
 381 532 378 542 377 545 c 0
EndSplineSet
LCarets2: 2 269 576
Ligature2: "'liga' Standard Ligatures lookup 0-1" f f h
EndChar

StartChar: f_j
Encoding: 65547 -1 442
Width: 501
Flags: W
HStem: -3 26<27 76 187 233> 363 46<39 95 169 350> 406 20G<433 437> 641 38<223 308>
VStem: 95 74<35 363 409 536> 358 75<-67 355>
LayerCount: 2
Fore
SplineSet
358 303 m 2xbc
 358 311 358 333 347 349 c 0
 338 362 288 363 275 363 c 2
 175 363 l 2
 172 363 169 360 169 357 c 0
 169 269 170 132 170 132 c 2
 170 100 171 71 178 45 c 0
 181 34 221 23 229 23 c 0
 234 23 234 3 232 -3 c 1
 193 -1 173 2 134 2 c 0
 94 2 71 -1 31 -3 c 1
 29 -1 27 6 27 12 c 0
 27 18 29 23 31 23 c 0
 43 23 82 34 85 45 c 0
 93 75 94 98 94 132 c 2
 94 132 95 269 95 356 c 0
 95 359 93 363 90 363 c 2
 38 363 l 2
 36 363 35 365 35 369 c 0
 35 382 45 409 50 409 c 2
 90 409 l 2
 93 409 95 412 95 415 c 2
 95 428 l 2
 95 570 197 679 289 679 c 0
 349 679 430 640 430 598 c 0
 430 571 413 552 386 552 c 0
 369 552 353 559 345 573 c 0
 332 595 309 641 259 641 c 0
 199 641 169 551 169 464 c 2
 169 414 l 2
 169 412 172 409 174 409 c 2
 282 409 l 2xdc
 325 409 393 411 429 423 c 0
 430 423 433 426 434 426 c 0
 440 426 438 408 438 403 c 0
 434 372 434 366 434 333 c 2
 434 316 l 0
 434 66 l 1
 434 -122 331 -199 265 -226 c 1
 260 -223 254 -216 252 -211 c 0
 251 -209 251 -205 252 -204 c 1
 308 -164 358 -118 358 44 c 2
 358 303 l 2xbc
EndSplineSet
LCarets2: 1 278
Ligature2: "'liga' Standard Ligatures lookup 0-1" f j
EndChar

StartChar: f_f_j
Encoding: 65548 -1 443
Width: 775
Flags: W
HStem: -3 28<26 82 185 238 299 354 458 510> 363 46<39 96 170 368 442 624> 406 20G<708 711> 627 38<228 330> 641 38<494 581>
VStem: 96 74<36 363 409 530> 368 74<36 363 409 528> 633 75<-67 355>
LayerCount: 2
Fore
SplineSet
633 303 m 2xa7
 633 311 631 333 620 349 c 0
 611 362 562 363 549 363 c 2
 448 363 l 2
 445 363 442 360 442 357 c 0
 442 269 444 132 444 132 c 2
 444 100 445 71 452 45 c 0
 455 34 499 25 507 25 c 0
 512 25 512 3 510 -3 c 1
 471 -1 444 2 405 2 c 0
 365 2 343 -1 303 -3 c 1
 301 -1 299 6 299 12 c 0
 299 18 301 25 303 25 c 0
 315 25 356 34 359 45 c 0
 367 75 368 98 368 132 c 2
 368 356 l 2
 368 359 366 363 363 363 c 2
 176 363 l 2
 173 363 170 360 170 357 c 0
 170 269 172 132 172 132 c 2
 172 100 173 71 180 45 c 0
 183 34 226 25 234 25 c 0
 239 25 239 3 237 -3 c 1
 198 -1 172 2 133 2 c 0
 93 2 70 -1 30 -3 c 1
 28 -1 26 6 26 12 c 0
 26 18 28 25 30 25 c 0
 42 25 84 34 87 45 c 0
 95 75 96 98 96 132 c 2
 96 356 l 2
 96 359 94 363 91 363 c 2
 39 363 l 2
 37 363 36 365 36 369 c 0
 36 382 46 409 51 409 c 2
 91 409 l 2
 94 409 96 412 96 415 c 2
 96 428 l 2
 96 570 209 665 301 665 c 0xd7
 373 665 415 616 425 599 c 1
 463 649 513 679 562 679 c 0
 622 679 703 640 703 598 c 0
 703 571 686 552 659 552 c 0
 642 552 626 559 618 573 c 0
 605 595 582 641 532 641 c 0
 472 641 437 551 442 464 c 1
 442 414 l 2
 442 412 445 409 447 409 c 2
 556 409 l 2xcf
 599 409 666 411 702 423 c 0
 703 423 707 426 708 426 c 0
 714 426 712 408 712 403 c 0
 708 372 708 366 708 333 c 2
 708 316 l 0
 708 66 l 1
 708 -122 605 -199 539 -226 c 1
 534 -223 528 -216 526 -211 c 0
 525 -209 525 -205 526 -204 c 1
 582 -164 633 -118 633 44 c 2
 633 303 l 2xa7
378 545 m 0
 372 554 350 627 267 627 c 0
 203 627 170 551 170 464 c 2
 170 414 l 2
 170 412 173 409 175 409 c 2
 363 409 l 2
 366 409 368 412 368 415 c 2
 368 419 l 2
 368 449 372 488 380 514 c 0
 382 519 382 525 382 528 c 0
 382 532 379 542 378 545 c 0
EndSplineSet
LCarets2: 2 269 552
Ligature2: "'liga' Standard Ligatures lookup 0-1" f f j
EndChar

StartChar: T_h
Encoding: 65549 -1 444
Width: 1011
Flags: W
HStem: -3 28<190 254 367 427 527 590 676 740 790 854 940 1004> 371 57<744 828> 601 38<74 260 359 511> 636 20G<26 36> 658 20G<663 671>
VStem: 10 33<509 562> 267 85<36 592> 596 75<32 339 354 578> 859 75<32 339>
LayerCount: 2
Fore
SplineSet
596 518 m 2xef80
 596 581 558 601 483 601 c 0
 406 601 362 594 360 586 c 0
 352 559 352 525 352 488 c 2
 352 136 l 2
 352 101 353 71 360 45 c 0
 363 34 415 25 423 25 c 0
 426 25 427 17 427 11 c 0
 427 6 426 0 425 -3 c 1
 386 -1 355 2 312 2 c 0
 267 2 239 -1 194 -3 c 1
 192 -1 190 6 190 12 c 0
 190 18 192 25 194 25 c 0
 206 25 255 33 260 45 c 1
 266 67 267 114 267 132 c 2
 267 485 l 2
 267 524 266 572 258 586 c 0
 254 594 229 601 152 601 c 0xef80
 77 601 62 586 43 514 c 0
 42 510 38 509 33 509 c 0
 24 509 13 513 10 516 c 1
 28 655 l 1xdf80
 44 651 82 645 96 645 c 0
 183 644 232 639 310 639 c 0
 388 639 455 639 524 645 c 0
 580 650 661 678 665 678 c 2
 668 678 l 2
 674 678 680 667 681 662 c 1
 681 662 671 631 671 577 c 2
 671 577 671 364 671 356 c 0
 671 355 672 354 674 354 c 0
 675 354 676 355 677 356 c 0
 697 377 762 428 809 428 c 0
 914 428 935 363 935 221 c 2
 935 113 l 2
 935 84 934 57 939 41 c 0
 942 30 989 25 1001 25 c 1
 1005 20 1006 2 1001 -3 c 1
 961 -1 934 2 896 2 c 0
 858 2 833 -1 793 -3 c 1
 788 2 789 20 793 25 c 1
 805 25 851 30 854 41 c 0
 859 57 859 84 859 113 c 2
 859 211 l 2
 859 332 840 371 764 371 c 0
 728 371 671 326 671 317 c 2
 671 113 l 2
 671 84 671 57 676 41 c 0
 679 30 725 25 737 25 c 1
 741 20 742 2 737 -3 c 1
 697 -1 671 2 633 2 c 0
 595 2 569 -1 529 -3 c 1
 524 2 525 20 529 25 c 1
 541 25 588 30 591 41 c 0
 596 57 596 84 596 113 c 2
 596 518 l 2xef80
EndSplineSet
LCarets2: 1 479
Ligature2: "'liga' Standard Ligatures lookup 0-1" T h
EndChar

StartChar: f.short
Encoding: 65550 -1 445
Width: 300
Flags: W
HStem: -3 28<25 89 175 242> 382 40<40 94 169 288> 622 59<210 294>
VStem: 94 75<32 382 422 533>
LayerCount: 2
Fore
SplineSet
263 681 m 0
 292 681 294 679 309 669 c 1
 313 665 319 652 319 642 c 0
 319 607 293 603 280 603 c 0
 270 603 262 607 251 613 c 0
 240 619 236 622 223 622 c 0
 193 622 167 592 168 531 c 2
 169 422 l 1
 285 422 l 2
 290 422 289 417 289 411 c 0
 289 402 285 391 276 382 c 1
 169 382 l 1
 169 113 l 2
 169 84 169 57 174 41 c 0
 177 30 228 25 240 25 c 1
 244 20 245 2 240 -3 c 1
 200 -1 169 2 131 2 c 0
 93 2 68 -1 28 -3 c 1
 23 2 24 20 28 25 c 1
 40 25 86 30 89 41 c 0
 94 57 94 84 94 113 c 2
 94 382 l 1
 37 382 l 2
 34 382 33 388 33 391 c 0
 33 395 57 421 58 422 c 1
 74 422 83 422 94 422 c 1
 94 433 94 428 94 428 c 2
 94 570 203 681 263 681 c 0
EndSplineSet
EndChar

StartChar: AE.alt01
Encoding: 65551 -1 446
Width: 822
Flags: W
HStem: -3 26<-17 37 141 190 332 377> 2 41<509 712> 289 43<269 392 488 633> 602 47<507 672> 602 39<458 607> 610 30<309 346>
VStem: -18 147<2 59> 350 107<552 595> 398 88<213 286> 652 30<370 408> 706 31<513 557>
LayerCount: 2
Fore
SplineSet
542 602 m 2x3360
 466 602 457 587 457 576 c 2
 457 574 l 1x3360
 479 339 l 2
 480 333 495 332 514 332 c 2
 550 332 l 2
 639 332 635 337 652 401 c 0
 653 406 659 408 666 408 c 0
 673 408 680 406 683 403 c 1
 682 392 682 380 682 369 c 0
 682 318 688 267 695 216 c 1
 693 214 686 212 679 212 c 0
 672 212 666 214 664 219 c 0
 649 275 643 275 634 281 c 0
 623 288 564 289 527 289 c 0
 501 289 486 288 486 280 c 2
 486 279 l 1
 500 150 l 1
 500 150 506 82 509 65 c 0
 511 52 513 43 584 43 c 0
 621 43 679 45 707 60 c 0
 726 70 745 106 760 158 c 0
 761 162 767 164 774 164 c 0
 784 164 795 161 798 158 c 1
 780 105 761 39 754 -4 c 1
 648 -4 555 2 466 2 c 0x72e0
 401 2 335 -3 335 -3 c 1
 333 -1 332 5 332 11 c 0
 332 20 334 30 337 30 c 0
 349 30 404 40 409 49 c 0
 415 59 417 72 417 87 c 0
 417 125 400 259 398 278 c 0
 398 283 395 286 390 286 c 2
 248 286 l 2
 245 286 243 285 242 283 c 2
 161 128 l 1
 138 86 130 65 130 53 c 0
 130 30 183 23 189 23 c 0
 190 23 191 22 191 20 c 0
 191 14 188 1 186 -3 c 1xa2e0
 147 -1 129 2 86 2 c 0x62e0
 41 2 29 -1 -16 -3 c 1
 -17 -2 -18 1 -18 4 c 0
 -18 12 -15 23 -11 23 c 0
 1 23 36 31 48 44 c 0
 107 103 102 140 348 572 c 0
 349 574 350 577 350 581 c 0
 350 593 341 610 313 610 c 0
 310 610 309 614 309 619 c 0
 309 627 312 638 315 641 c 1
 406 641 l 2xa760
 497 641 613 648 719 648 c 1
 726 599 730 561 737 518 c 1
 734 515 727 513 720 513 c 0
 713 513 707 515 706 520 c 0
 684 602 630 602 604 602 c 2
 542 602 l 2x3360
270 332 m 1
 291 331 309 331 326 331 c 0
 347 331 367 331 388 333 c 0
 391 333 393 335 393 338 c 0
 386 414 373 534 373 534 c 1
 269 336 l 1
 269 334 l 2
 269 332 270 332 270 332 c 1
EndSplineSet
EndChar

StartChar: Q.alt01
Encoding: 65552 -1 447
Width: 717
Flags: W
HStem: -216 62<869 1093> -144 27<1173 1195> 600 52<266 436>
VStem: 46 96<203 440> 574 96<195 435>
LayerCount: 2
Fore
SplineSet
142 327 m 0
 142 184 222 37 365 37 c 0
 500 37 574 177 574 312 c 0
 574 454 494 600 352 600 c 0
 217 600 142 462 142 327 c 0
479 16 m 1
 549 0 551 0 626 -30 c 0
 656 -42 855 -154 993 -154 c 0
 1073 -154 1172 -122 1186 -116 c 1
 1188 -116 l 2
 1193 -116 1196 -131 1196 -139 c 0
 1196 -142 1196 -144 1195 -144 c 0
 1152 -166 1097 -216 947 -216 c 0
 839 -216 632 -105 527 -68 c 0
 437 -36 351 -25 255 8 c 1
 133 46 46 176 46 320 c 0
 46 503 186 651 358 651 c 0
 530 651 670 503 670 320 c 0
 670 172 584 46 479 16 c 1
EndSplineSet
EndChar

StartChar: zero.onum
Encoding: 65553 -1 448
Width: 525
Flags: W
HStem: -7 46<199 336> 395 47<190 327>
VStem: 47 73<127 316> 405 73<121 306>
LayerCount: 2
Fore
SplineSet
268 39 m 0
 352 39 405 121 405 210 c 0
 405 314 338 395 258 395 c 0
 174 395 120 313 120 224 c 0
 120 120 188 39 268 39 c 0
263 441 m 0
 383 441 479 341 479 219 c 0
 479 96 386 -7 265 -7 c 0
 144 -7 47 96 47 219 c 0
 47 344 140 441 263 441 c 0
EndSplineSet
EndChar

StartChar: one.onum
Encoding: 65554 -1 449
Width: 300
Flags: W
HStem: -3 28<53 109 211 268> 347 32<41 89>
VStem: 122 75<36 358>
LayerCount: 2
Fore
SplineSet
197 342 m 2
 197 111 l 2
 197 87 200 65 205 45 c 0
 208 34 256 25 264 25 c 0
 267 25 268 17 268 11 c 0
 268 6 267 0 266 -3 c 1
 227 -1 197 2 160 2 c 0
 120 2 96 -1 56 -3 c 1
 51 2 51 25 56 25 c 0
 68 25 111 33 115 46 c 0
 121 66 122 85 122 101 c 2
 122 326 l 2
 122 334 122 358 103 358 c 0
 90 358 47 347 45 347 c 0
 40 347 37 371 40 379 c 1
 94 395 157 421 193 432 c 0
 194 432 196 433 197 433 c 0
 203 433 203 417 202 412 c 0
 198 381 197 375 197 342 c 2
EndSplineSet
EndChar

StartChar: two.onum
Encoding: 65555 -1 450
Width: 425
Flags: W
HStem: 0 69<164 344> 372 69<147 252>
VStem: 270 77<263 354> 359 26<95 133>
LayerCount: 2
Fore
SplineSet
239 441 m 0
 305 441 347 390 347 332 c 0
 347 285 310 228 260 176 c 1
 164 80 l 2
 161 77 162 69 167 69 c 2
 283 68 l 2
 341 68 341 84 359 122 c 0
 361 127 368 133 374 133 c 0
 378 133 382 130 386 125 c 1
 376 75 367 51 359 -1 c 1
 226 0 l 1
 44 0 l 1
 38 2 36 10 36 16 c 1
 144 120 270 233 270 306 c 0
 270 330 254 372 193 372 c 0
 132 372 105 343 72 307 c 0
 70 305 67 303 64 303 c 0
 60 303 55 313 55 316 c 0
 55 319 55 322 56 323 c 0
 73 359 126 441 239 441 c 0
EndSplineSet
EndChar

StartChar: three.onum
Encoding: 65556 -1 451
Width: 381
Flags: W
HStem: -186 49<46 165> 123 35<91 135> 380 62<137 227>
VStem: 243 73<266 364> 258 86<-33 95>
LayerCount: 2
Fore
SplineSet
223 441 m 0xf0
 267 441 316 400 316 339 c 0xf0
 316 282 267 209 227 188 c 1
 274 184 344 127 344 44 c 0
 344 -76 179 -186 70 -186 c 0
 56 -186 44 -184 30 -178 c 1
 25 -168 24 -158 24 -152 c 0
 24 -138 44 -117 60 -117 c 0
 90 -117 94 -137 126 -137 c 0
 206 -137 258 -61 258 24 c 0xe8
 258 77 222 134 169 134 c 0
 140 134 114 128 99 123 c 1
 92 124 91 133 91 141 c 0
 91 145 93 153 95 158 c 1
 165 179 243 243 243 309 c 0
 243 353 218 380 179 380 c 0
 124 380 88 340 74 326 c 0
 72 324 70 322 67 322 c 0
 64 322 58 333 58 338 c 0
 58 339 59 345 60 347 c 0
 92 399 152 441 223 441 c 0xf0
EndSplineSet
EndChar

StartChar: four.onum
Encoding: 65557 -1 452
Width: 444
Flags: W
HStem: 6 59<84 261 338 416>
VStem: 261 77<-184 6 64 311>
LayerCount: 2
Fore
SplineSet
299 -186 m 0
 274 -186 261 -179 261 -170 c 2
 261 1 l 1
 260 6 255 6 252 6 c 2
 21 6 l 1
 13 12 7 26 7 34 c 1
 303 432 l 2
 309 440 317 443 325 443 c 0
 331 443 338 439 338 434 c 2
 338 72 l 2
 338 67 341 65 347 64 c 1
 400 64 l 2
 412 64 417 53 417 22 c 0
 417 16 414 9 411 6 c 1
 344 6 l 2
 340 6 338 3 338 -2 c 2
 338 -176 l 1
 338 -176 332 -186 299 -186 c 0
261 71 m 2
 263 302 l 2
 263 305 260 311 258 311 c 1
 258 311 258 310 257 309 c 2
 85 76 l 2
 84 75 84 74 84 73 c 0
 84 69 87 64 91 64 c 2
 252 64 l 1
 255 65 260 65 261 71 c 2
EndSplineSet
EndChar

StartChar: five.onum
Encoding: 65558 -1 453
Width: 351
Flags: W
HStem: -184 28<30 96> 357 74<112 278>
VStem: 236 79<-14 109>
LayerCount: 2
Fore
SplineSet
29 -164 m 0
 29 -160 30 -155 34 -155 c 0
 105 -155 236 -88 236 42 c 0
 236 122 164 175 62 202 c 0
 55 204 52 210 52 218 c 0
 52 222 70 343 86 422 c 0
 87 427 91 432 95 432 c 0
 164 432 238 430 273 438 c 1
 277 432 281 422 281 404 c 0
 281 387 278 374 271 361 c 1
 172 354 135 358 123 357 c 0
 115 357 115 356 114 350 c 2
 104 281 l 2
 103 275 113 270 123 267 c 0
 220 241 315 179 315 76 c 0
 315 -68 166 -184 37 -184 c 1
 33 -180 29 -172 29 -164 c 0
EndSplineSet
EndChar

StartChar: six.onum
Encoding: 65559 -1 454
Width: 470
Flags: W
HStem: -7 38<190 291> 323 48<187 297>
VStem: 47 88<106 287> 336 88<97 280>
LayerCount: 2
Fore
SplineSet
259 371 m 0
 363 371 424 284 424 188 c 0
 424 79 342 -7 238 -7 c 0
 136 -7 47 88 47 197 c 0
 47 403 236 552 384 620 c 1
 395 618 402 603 402 593 c 1
 303 544 206 452 161 332 c 1
 184 352 221 371 259 371 c 0
238 323 m 0
 187 323 158 298 146 286 c 1
 138 255 135 222 135 188 c 0
 135 100 175 31 246 31 c 0
 290 31 336 81 336 169 c 0
 336 252 316 323 238 323 c 0
EndSplineSet
EndChar

StartChar: seven.onum
Encoding: 65560 -1 455
Width: 411
Flags: W
HStem: 353 72<72 343>
VStem: 27 24<288 316>
LayerCount: 2
Fore
SplineSet
342 425 m 2
 367 425 399 428 405 428 c 0
 411 428 412 424 412 419 c 0
 412 406 403 385 386 354 c 2
 103 -186 l 1
 100 -187 98 -187 96 -187 c 0
 83 -187 72 -171 72 -158 c 0
 72 -155 72 -151 74 -148 c 2
 343 354 l 1
 260 354 184 353 108 353 c 0
 73 353 59 307 52 287 c 1
 44 286 35 285 27 293 c 1
 31 338 34 369 36 413 c 0
 36 421 45 425 54 425 c 2
 342 425 l 2
EndSplineSet
EndChar

StartChar: eight.onum
Encoding: 65561 -1 456
Width: 476
Flags: W
HStem: -6 33<188 296> 576 36<193 289>
VStem: 62 78<81 235> 84 71<407 537> 324 72<395 542> 336 77<83 205>
LayerCount: 2
Fore
SplineSet
84 463 m 0xd0
 84 543 152 612 235 612 c 0
 320 612 396 558 396 468 c 0xd8
 396 405 352 355 299 327 c 1
 295 326 295 323 298 321 c 0
 358 277 413 229 413 161 c 0
 413 66 330 -6 235 -6 c 0
 142 -6 62 67 62 159 c 0xe4
 62 239 125 291 173 312 c 0
 176 313 175 316 173 318 c 0
 120 353 84 397 84 463 c 0xd0
155 469 m 0
 155 405 211 373 257 346 c 0
 259 345 261 344 263 344 c 0
 266 344 268 346 271 348 c 0
 319 379 324 422 324 472 c 0
 324 527 293 576 244 576 c 0
 191 576 155 530 155 469 c 0
140 152 m 0xe4
 140 74 185 27 235 27 c 0
 302 27 336 64 336 142 c 0
 336 224 234 278 220 287 c 0
 217 289 213 291 210 291 c 0
 209 291 207 291 206 290 c 0
 150 264 140 221 140 152 c 0xe4
EndSplineSet
EndChar

StartChar: nine.onum
Encoding: 65562 -1 457
Width: 446
Flags: W
HStem: 63 48<165 275> 403 38<171 272>
VStem: 38 88<155 338> 327 88<147 328>
LayerCount: 2
Fore
SplineSet
224 441 m 0
 326 441 415 346 415 237 c 0
 415 31 226 -118 78 -186 c 1
 68 -183 60 -168 60 -158 c 1
 159 -109 256 -17 301 103 c 1
 278 83 241 63 203 63 c 0
 99 63 38 151 38 247 c 0
 38 356 120 441 224 441 c 0
216 403 m 0
 172 403 126 354 126 266 c 0
 126 183 146 111 224 111 c 0
 275 111 303 136 315 148 c 1
 323 179 327 212 327 246 c 0
 327 334 287 403 216 403 c 0
EndSplineSet
EndChar

StartChar: iogonek.dotless
Encoding: 65563 -1 458
Width: 261
Flags: W
HStem: -219 58<108 180> -3 28<29 85 206 243> 404 20G<172 176>
VStem: 51 53<-157 -85> 98 75<36 358>
LayerCount: 2
Fore
SplineSet
31 -3 m 1xf0
 26 2 26 25 31 25 c 0
 43 25 88 34 91 45 c 0
 97 69 98 99 98 113 c 2
 98 298 l 2
 98 306 97 337 84 351 c 1
 63 377 27 367 27 373 c 0
 27 374 28 396 33 397 c 0
 77 404 132 412 168 423 c 0
 169 423 172 424 173 424 c 0
 179 424 179 408 178 403 c 0
 174 372 173 366 173 333 c 2
 173 132 l 2xe8
 173 100 174 71 181 45 c 0
 184 34 231 25 239 25 c 0
 244 25 244 3 242 -3 c 1
 231 -2 215 -2 206 -1 c 1
 163 -27 104 -77 104 -119 c 0
 104 -134 111 -161 144 -161 c 0
 194 -161 217 -124 223 -124 c 0
 224 -124 227 -129 227 -137 c 0
 227 -142 226 -150 223 -154 c 0
 202 -182 164 -219 120 -219 c 0
 65 -219 51 -170 51 -144 c 0
 51 -91 112 -33 164 1 c 1
 156 1 148 2 138 2 c 0
 98 2 71 -1 31 -3 c 1xf0
EndSplineSet
EndChar

StartChar: gravecomb.cap
Encoding: 65564 -1 459
Width: 0
GlyphClass: 4
Flags: W
HStem: 711 130
VStem: -345 181
LayerCount: 2
Fore
SplineSet
-164 720 m 0
 -164 717 -167 711 -170 711 c 0
 -187 711 -345 778 -345 812 c 0
 -345 824 -338 841 -300 841 c 0
 -292 841 -286 840 -282 838 c 0
 -248 813 -164 727 -164 720 c 0
EndSplineSet
EndChar

StartChar: acutecomb.cap
Encoding: 65565 -1 460
Width: 0
GlyphClass: 4
Flags: W
HStem: 711 130
VStem: -342 181
LayerCount: 2
Fore
SplineSet
-342 720 m 0
 -342 727 -258 813 -224 838 c 0
 -220 840 -214 841 -206 841 c 0
 -168 841 -161 824 -161 812 c 0
 -161 778 -319 711 -336 711 c 0
 -339 711 -342 717 -342 720 c 0
EndSplineSet
EndChar

StartChar: uni0302.cap
Encoding: 65566 -1 461
Width: 0
GlyphClass: 4
Flags: W
HStem: 711 129
VStem: -361 223
LayerCount: 2
Fore
SplineSet
-249 840 m 0
 -245 840 -241 836 -237 832 c 0
 -198 790 -180 773 -138 728 c 1
 -138 722 -142 711 -147 711 c 1
 -164 722 -249 773 -249 773 c 25
 -249 773 -325 726 -351 711 c 1
 -356 711 -361 722 -361 728 c 1
 -319 772 -301 788 -261 832 c 0
 -257 836 -253 840 -249 840 c 0
EndSplineSet
EndChar

StartChar: uni030A.cap
Encoding: 65567 -1 462
Width: 0
GlyphClass: 4
Flags: W
HStem: 711 33<-287 -212> 853 33<-288 -211>
VStem: -336 32<761 836> -196 32<761 837>
LayerCount: 2
Fore
SplineSet
-304 799 m 0
 -304 769 -278 744 -249 744 c 0
 -220 744 -196 769 -196 799 c 0
 -196 829 -220 853 -249 853 c 0
 -278 853 -304 829 -304 799 c 0
-336 799 m 0
 -336 847 -296 886 -249 886 c 0
 -202 886 -164 847 -164 799 c 0
 -164 751 -202 711 -249 711 c 0
 -296 711 -336 751 -336 799 c 0
EndSplineSet
EndChar

StartChar: tildecomb.cap
Encoding: 65568 -1 463
Width: 0
GlyphClass: 4
Flags: W
HStem: 711 43<-229 -130> 756 43<-351 -254>
VStem: -378 275
LayerCount: 2
Fore
SplineSet
-297 799 m 0
 -270 799 -252 789 -232 778 c 0
 -211 766 -187 755 -172 755 c 0
 -133 755 -116 787 -109 791 c 1
 -105 791 -103 785 -103 781 c 0
 -103 769 -110 756 -117 747 c 0
 -135 725 -158 711 -184 711 c 0
 -211 711 -229 721 -249 732 c 0
 -270 744 -289 756 -309 756 c 0
 -348 756 -365 722 -372 718 c 1
 -376 718 -378 725 -378 729 c 0
 -378 741 -371 755 -364 764 c 0
 -346 786 -323 799 -297 799 c 0
EndSplineSet
EndChar

StartChar: uni0304.cap
Encoding: 65569 -1 464
Width: 0
GlyphClass: 4
Flags: W
HStem: 711 41<-373 -128>
LayerCount: 2
Fore
SplineSet
-133 711 m 1
 -178 711 -300 711 -373 711 c 1
 -383 715 -376 746 -367 752 c 9
 -367 752 -212 752 -127 752 c 1
 -120 747 -123 722 -133 711 c 1
EndSplineSet
EndChar

StartChar: uni0306.cap
Encoding: 65570 -1 465
Width: 0
GlyphClass: 4
Flags: W
HStem: 711 45<-309 -189>
VStem: -355 21<794 810> -164 21<794 810>
LayerCount: 2
Fore
SplineSet
-164 816 m 1
 -154 816 -143 807 -143 800 c 0
 -143 798 -143 796 -144 794 c 0
 -158 743 -202 711 -249 711 c 0
 -296 711 -340 743 -354 794 c 0
 -355 796 -355 798 -355 800 c 0
 -355 807 -344 816 -334 816 c 1
 -321 778 -292 756 -249 756 c 0
 -206 756 -177 778 -164 816 c 1
EndSplineSet
EndChar

StartChar: uni0327.cap
Encoding: 65571 -1 466
Width: 459
GlyphClass: 4
Flags: W
HStem: -170 27<167 241> -65 39<215 247>
VStem: 252 43<-136 -69>
LayerCount: 2
Fore
SplineSet
215 -26 m 1
 244 -26 l 2
 274 -26 295 -53 295 -83 c 0
 295 -137 247 -170 187 -170 c 0
 173 -170 154 -165 147 -160 c 1
 146 -154 144 -151 144 -144 c 0
 144 -136 153 -128 160 -128 c 0
 174 -128 183 -143 202 -143 c 0
 234 -143 252 -124 252 -104 c 0
 252 -77 232 -65 217 -65 c 0
 204 -65 199 -68 187 -73 c 0
 185 -73 173 -64 175 -59 c 0
 186 -41 203 -17 212 0 c 1
 236 0 l 1
 215 -26 l 1
EndSplineSet
EndChar

StartChar: hookabovecomb.cap
Encoding: 65575 -1 470
Width: 0
GlyphClass: 4
Flags: W
HStem: 711 57<-283 -239> 831 21<-262 -225>
VStem: -285 47<717 758> -219 51<773 830>
LayerCount: 2
Fore
SplineSet
-246 831 m 0
 -259 831 -264 820 -270 809 c 0
 -276 797 -283 788 -297 788 c 0
 -309 788 -319 796 -319 813 c 0
 -319 817 -318 821 -316 825 c 1
 -305 838 -279 852 -234 852 c 0
 -200 852 -168 839 -168 807 c 0
 -168 777 -203 767 -214 760 c 0
 -225 753 -238 744 -238 731 c 0
 -238 726 -235 722 -232 718 c 1
 -234 715 -240 711 -244 711 c 1
 -253 712 -285 719 -285 737 c 0
 -285 749 -273 761 -252 768 c 0
 -238 773 -219 782 -219 802 c 0
 -219 820 -230 831 -246 831 c 0
EndSplineSet
EndChar

StartChar: uni0308.narrow
Encoding: 65577 -1 472
Width: 300
GlyphClass: 4
Flags: W
HStem: 457 96<31 112 188 268>
VStem: 22 98<466 544> 179 98<466 544>
LayerCount: 2
Fore
SplineSet
229 553 m 0
 255 553 276 530 276 504 c 0
 276 478 254 457 228 457 c 0
 202 457 179 479 179 505 c 0
 179 531 203 553 229 553 c 0
72 553 m 0
 98 553 120 530 120 504 c 0
 120 478 97 457 71 457 c 0
 45 457 22 479 22 505 c 0
 22 531 46 553 72 553 c 0
EndSplineSet
EndChar

StartChar: uni0308.cap
Encoding: 65578 -1 473
Width: 333
GlyphClass: 4
Flags: W
HStem: 695 98<37 118 213 294>
VStem: 28 98<704 785> 205 98<704 785>
LayerCount: 2
Fore
SplineSet
205 744 m 0
 205 771 227 793 254 793 c 0
 281 793 303 771 303 744 c 0
 303 717 281 695 254 695 c 0
 227 695 205 717 205 744 c 0
28 744 m 0
 28 771 50 793 77 793 c 0
 104 793 126 771 126 744 c 0
 126 717 104 695 77 695 c 0
 50 695 28 717 28 744 c 0
EndSplineSet
EndChar

StartChar: uni030C.cap
Encoding: 65579 -1 474
Width: 255
GlyphClass: 4
Flags: W
HStem: 710 129
VStem: 21 223
LayerCount: 2
Fore
SplineSet
133 710 m 0
 129 710 125 714 121 718 c 0
 82 760 63 778 21 823 c 1
 21 829 26 839 31 839 c 1
 48 828 133 777 133 777 c 25
 133 777 209 824 235 839 c 1
 240 839 245 829 245 823 c 1
 203 779 185 762 145 718 c 0
 141 714 137 710 133 710 c 0
EndSplineSet
EndChar

